# Blender v2.90.1 OBJ File: 'Wraper_00.blend'
# www.blender.org
mtllib Wraper_00.mtl
o Plane
v 6.838951 0.000000 0.838951
v 6.838951 0.000000 -4.838951
v -1.419475 0.000000 -4.838951
v -1.419475 0.000000 0.838951
v -2.838951 0.000000 -4.129213
v -1.419475 0.000000 0.129213
v -2.838951 0.000000 0.838951
v -2.838951 0.000000 -4.838951
v -2.838951 0.000000 -2.000000
v -2.838951 0.000000 -0.580525
v -1.419475 0.000000 -4.838951
v -2.838951 0.000000 -3.419475
v -1.419475 0.000000 0.838951
v -1.419475 0.000000 -2.000000
v -1.419475 0.000000 -0.580525
v -1.419475 0.000000 -3.419475
v -2.838951 0.000000 0.129213
v -2.838951 0.000000 -2.709738
v -2.838951 0.000000 -1.290262
v -1.419475 0.000000 -4.129213
v -1.419475 0.000000 -1.290262
v -1.419475 0.000000 -2.709738
vt 0.250000 1.000000
vt 0.000000 1.000000
vt 0.000000 0.875000
vt 0.250000 0.000000
vt 1.000000 0.000000
vt 1.000000 1.000000
vt 0.250000 1.000000
vt 0.250000 0.000000
vt 0.250000 0.125000
vt 0.000000 0.000000
vt 0.000000 0.125000
vt 0.250000 0.250000
vt 0.250000 0.375000
vt 0.000000 0.250000
vt 0.250000 0.500000
vt 0.000000 0.375000
vt 0.000000 0.500000
vt 0.250000 0.625000
vt 0.000000 0.625000
vt 0.250000 0.750000
vt 0.000000 0.750000
vt 0.250000 0.875000
vn 0.0000 1.0000 0.0000
usemtl Material.002
s off
f 11/1/1 8/2/1 5/3/1
f 4/4/1 1/5/1 2/6/1 3/7/1
f 13/8/1 6/9/1 7/10/1
f 7/10/1 6/9/1 17/11/1
f 15/12/1 21/13/1 10/14/1
f 15/12/1 10/14/1 17/11/1
f 6/9/1 15/12/1 17/11/1
f 21/13/1 14/15/1 19/16/1
f 19/16/1 14/15/1 9/17/1
f 14/15/1 22/18/1 9/17/1
f 9/17/1 22/18/1 18/19/1
f 22/18/1 16/20/1 18/19/1
f 18/19/1 16/20/1 12/21/1
f 16/20/1 20/22/1 12/21/1
f 12/21/1 20/22/1 5/3/1
f 20/22/1 11/1/1 5/3/1
f 10/14/1 21/13/1 19/16/1
