# Blender v2.93.1 OBJ File: 'CardPackAnimated3.blend'
# www.blender.org
o Plane
v -0.700000 0.000000 1.167000
v 0.700000 0.000000 1.167000
v 2.371980 -0.079129 -1.341120
v 1.034653 0.008136 -1.166440
v 2.440583 -0.076201 -0.997819
v 0.700000 0.000000 -0.816900
v -0.560000 0.000000 1.167000
v -0.420000 0.000000 1.167000
v -0.280000 -0.000000 1.167000
v -0.140000 0.000000 1.167000
v -0.000000 0.000000 1.167000
v 0.140000 0.000000 1.167000
v 0.280000 0.000000 1.167000
v 0.420000 0.000000 1.167000
v 0.560000 0.000000 1.167000
v 1.161899 0.054917 -1.172405
v 1.287383 0.087160 -1.185562
v 1.426333 0.114135 -1.210736
v 1.578004 0.116707 -1.225851
v 1.718199 0.094867 -1.238135
v 1.849040 0.078404 -1.248459
v 1.985948 0.061644 -1.272270
v 2.121287 0.016562 -1.288958
v 2.245868 -0.023723 -1.312305
v 0.560000 0.000000 -0.816900
v 0.420000 0.000000 -0.816900
v 0.280000 0.000000 -0.816900
v 0.140000 0.000000 -0.816900
v -0.000000 0.000000 -0.816900
v -0.140000 0.000000 -0.816900
v -0.280000 -0.000000 -0.816900
v -0.420000 0.000000 -0.816900
v -0.560000 0.000000 -0.816900
v -0.700000 0.000000 -0.816900
v 2.298023 -0.072241 -0.973845
v 2.154485 -0.045411 -0.948185
v 2.022782 -0.012573 -0.936107
v 1.881526 0.022194 -0.906745
v 1.742448 0.038782 -0.894114
v 1.604503 0.039173 -0.885551
v 1.478981 0.049069 -0.871554
v 1.344593 0.051379 -0.842755
v 1.057655 -0.008920 -0.817514
v 1.194811 0.036807 -0.824470
v 2.300498 -0.062727 -0.972861
v 2.442729 -0.066447 -0.998331
v 2.374127 -0.069375 -1.341631
v 1.054383 0.000505 -0.816837
v 1.192362 0.046439 -0.823760
v 1.159450 0.064549 -1.171695
v 1.343475 0.061221 -0.841557
v 1.286265 0.097002 -1.184364
v 1.478908 0.058864 -0.869636
v 1.426260 0.123930 -1.208818
v 1.605222 0.048906 -0.883384
v 1.578723 0.126439 -1.223684
v 1.743966 0.048516 -0.892637
v 1.719717 0.104602 -1.236658
v 1.883589 0.031946 -0.905940
v 1.850840 0.087926 -1.246376
v 2.024979 -0.003140 -0.934223
v 1.988145 0.071078 -1.270385
v 2.157315 -0.035987 -0.946742
v 2.124117 0.025986 -1.287515
v 2.248343 -0.014209 -1.311321
v -0.560000 -0.010000 1.167000
v -0.420000 -0.010000 -0.816900
v -0.420000 -0.010000 1.167000
v 1.031381 0.017561 -1.165764
v 0.420000 -0.010000 1.167000
v 0.420000 -0.010000 -0.816900
v 0.560000 -0.010000 1.167000
v 0.560000 -0.010000 -0.816900
v 0.700000 -0.010000 1.167000
v 0.700000 -0.010000 -0.816900
v 0.280000 -0.010000 -0.816900
v 0.280000 -0.010000 1.167000
v 0.140000 -0.010000 -0.816900
v 0.140000 -0.010000 1.167000
v -0.000000 -0.010000 -0.816900
v -0.000000 -0.010000 1.167000
v -0.140000 -0.010000 -0.816900
v -0.140000 -0.010000 1.167000
v -0.280000 -0.010000 -0.816900
v -0.280000 -0.010000 1.167000
v -0.560000 -0.010000 -0.816900
v -0.700000 -0.010000 1.167000
v -0.700000 -0.010000 -0.816900
vt 0.100000 0.850000
vt 0.000000 1.000000
vt 0.000000 0.850000
vt 1.000000 0.850000
vt 0.900000 1.000000
vt 0.900000 0.850000
vt 0.800000 1.000000
vt 0.800000 0.850000
vt 0.700000 1.000000
vt 0.700000 0.850000
vt 0.600000 1.000000
vt 0.600000 0.850000
vt 0.500000 1.000000
vt 0.500000 0.850000
vt 0.400000 1.000000
vt 0.400000 0.850000
vt 0.300000 1.000000
vt 0.300000 0.850000
vt 0.200000 1.000000
vt 0.200000 0.850000
vt 0.100000 1.000000
vt 0.100000 0.000000
vt 0.200000 0.000000
vt 0.200000 0.850000
vt 1.000000 1.000000
vt 0.800000 0.000000
vt 0.900000 0.000000
vt 0.800000 0.850000
vt 1.000000 0.000000
vt 0.900000 0.850000
vt 1.000000 0.850000
vt 0.700000 0.850000
vt 0.600000 0.850000
vt 0.700000 0.000000
vt 0.600000 0.000000
vt 0.500000 0.850000
vt 0.400000 0.850000
vt 0.500000 0.000000
vt 0.400000 0.000000
vt 0.300000 0.850000
vt 0.300000 0.000000
vt 0.100000 0.850000
vt 0.000000 0.850000
vt 0.000000 0.000000
vt 0.100000 0.850000
vt 0.000000 0.850000
vt 0.000000 1.000000
vt 1.000000 0.850000
vt 0.900000 0.850000
vt 0.900000 1.000000
vt 0.800000 0.850000
vt 0.800000 1.000000
vt 0.700000 0.850000
vt 0.700000 1.000000
vt 0.600000 0.850000
vt 0.600000 1.000000
vt 0.500000 0.850000
vt 0.500000 1.000000
vt 0.400000 0.850000
vt 0.400000 1.000000
vt 0.300000 0.850000
vt 0.300000 1.000000
vt 0.200000 0.850000
vt 0.200000 1.000000
vt 0.100000 1.000000
vt 0.100000 0.000000
vt 0.200000 0.850000
vt 0.200000 0.000000
vt 1.000000 1.000000
vt 0.800000 0.000000
vt 0.800000 0.850000
vt 0.900000 0.000000
vt 0.900000 0.850000
vt 1.000000 0.000000
vt 1.000000 0.850000
vt 0.700000 0.850000
vt 0.700000 0.000000
vt 0.600000 0.850000
vt 0.600000 0.000000
vt 0.500000 0.850000
vt 0.500000 0.000000
vt 0.400000 0.850000
vt 0.400000 0.000000
vt 0.300000 0.850000
vt 0.300000 0.000000
vt 0.100000 0.850000
vt 0.000000 0.000000
vt 0.000000 0.850000
vn -0.0255 -0.9996 0.0136
vn 0.3117 -0.9469 -0.0788
vn 0.0820 -0.9897 -0.1170
vn -0.0554 -0.9821 -0.1798
vn -0.1004 -0.9717 -0.2136
vn -0.0127 -0.9870 -0.1600
vn -0.1304 -0.9802 -0.1488
vn -0.2701 -0.9460 -0.1793
vn -0.2521 -0.9561 -0.1493
vn -0.2014 -0.9735 -0.1085
vn 0.0000 1.0000 0.0000
vn -0.4140 -0.9079 -0.0663
vn 0.3414 -0.9374 -0.0683
vn 0.2410 -0.9678 -0.0732
vn 0.1663 -0.9775 -0.1298
vn -0.0021 -0.9822 -0.1881
vn -0.1682 -0.9639 -0.2065
vn -0.1351 -0.9794 -0.1501
vn -0.1454 -0.9784 -0.1471
vn -0.3302 -0.9287 -0.1689
vn -0.3280 -0.9345 -0.1380
vn 0.0238 0.9996 -0.0133
vn -0.3113 0.9470 0.0787
vn -0.0830 0.9896 0.1171
vn 0.0544 0.9822 0.1800
vn 0.0999 0.9718 0.2136
vn 0.0134 0.9870 0.1600
vn 0.1305 0.9802 0.1486
vn 0.2706 0.9459 0.1792
vn 0.2515 0.9563 0.1494
vn 0.2016 0.9734 0.1085
vn 0.0000 -1.0000 0.0000
vn 0.4141 0.9078 0.0663
vn -0.3408 0.9376 0.0683
vn -0.2404 0.9679 0.0731
vn -0.1654 0.9777 0.1297
vn 0.0022 0.9822 0.1881
vn 0.1683 0.9639 0.2065
vn 0.1357 0.9793 0.1501
vn 0.1457 0.9784 0.1469
vn 0.3294 0.9290 0.1690
vn 0.3287 0.9343 0.1379
vn 0.0000 0.0000 -1.0000
vn -0.0658 0.0527 -0.9964
vn -0.1981 0.0714 -0.9776
vn 0.0765 -0.1299 0.9886
vn -0.1205 0.0749 -0.9899
vn 0.9568 -0.2205 -0.1893
vn 0.1561 -0.1711 0.9728
vn -0.1999 0.1417 -0.9695
vn 1.0000 0.0000 0.0000
vn 0.0453 -0.1853 0.9816
vn -0.0994 0.2069 -0.9733
vn 0.1690 -0.0646 0.9835
vn 0.1452 -0.1657 0.9754
vn -0.0585 0.1902 -0.9800
vn 0.0000 0.0000 1.0000
vn -0.0510 0.1900 -0.9805
vn -0.1396 0.2310 -0.9629
vn -0.0594 0.1888 -0.9802
vn -0.1327 0.1625 -0.9777
vn 0.0676 -0.0522 0.9963
vn 0.1258 -0.0739 0.9893
vn -1.0000 0.0000 0.0000
vn 0.2018 -0.1416 0.9691
vn -0.9427 -0.3306 0.0460
vn 0.0910 -0.2068 0.9741
vn 0.0625 -0.1906 0.9797
s off
f 35/1/1 3/2/1 5/3/1
f 43/4/2 16/5/2 44/6/2
f 44/6/3 17/7/3 42/8/3
f 42/8/4 18/9/4 41/10/4
f 41/10/5 19/11/5 40/12/5
f 40/12/6 20/13/6 39/14/6
f 39/14/7 21/15/7 38/16/7
f 38/16/8 22/17/8 37/18/8
f 37/18/9 23/19/9 36/20/9
f 36/20/10 24/21/10 35/1/10
f 7/22/11 8/23/11 32/24/11
f 35/1/12 24/21/12 3/2/12
f 43/4/13 4/25/13 16/5/13
f 44/6/14 16/5/14 17/7/14
f 42/8/15 17/7/15 18/9/15
f 41/10/16 18/9/16 19/11/16
f 40/12/17 19/11/17 20/13/17
f 39/14/18 20/13/18 21/15/18
f 38/16/19 21/15/19 22/17/19
f 37/18/20 22/17/20 23/19/20
f 36/20/21 23/19/21 24/21/21
f 14/26/11 15/27/11 26/28/11
f 15/27/11 2/29/11 25/30/11
f 26/28/11 15/27/11 25/30/11
f 2/29/11 6/31/11 25/30/11
f 26/28/11 27/32/11 14/26/11
f 27/32/11 28/33/11 13/34/11
f 14/26/11 27/32/11 13/34/11
f 12/35/11 13/34/11 28/33/11
f 28/33/11 29/36/11 12/35/11
f 29/36/11 30/37/11 11/38/11
f 12/35/11 29/36/11 11/38/11
f 10/39/11 11/38/11 30/37/11
f 30/37/11 31/40/11 10/39/11
f 31/40/11 32/24/11 9/41/11
f 10/39/11 31/40/11 9/41/11
f 8/23/11 9/41/11 32/24/11
f 32/24/11 33/42/11 7/22/11
f 33/42/11 34/43/11 1/44/11
f 1/44/11 7/22/11 33/42/11
f 45/45/22 46/46/22 47/47/22
f 48/48/23 49/49/23 50/50/23
f 49/49/24 51/51/24 52/52/24
f 51/51/25 53/53/25 54/54/25
f 53/53/26 55/55/26 56/56/26
f 55/55/27 57/57/27 58/58/27
f 57/57/28 59/59/28 60/60/28
f 59/59/29 61/61/29 62/62/29
f 61/61/30 63/63/30 64/64/30
f 63/63/31 45/45/31 65/65/31
f 66/66/32 67/67/32 68/68/32
f 45/45/33 47/47/33 65/65/33
f 48/48/34 50/50/34 69/69/34
f 49/49/35 52/52/35 50/50/35
f 51/51/36 54/54/36 52/52/36
f 53/53/37 56/56/37 54/54/37
f 55/55/38 58/58/38 56/56/38
f 57/57/39 60/60/39 58/58/39
f 59/59/40 62/62/40 60/60/40
f 61/61/41 64/64/41 62/62/41
f 63/63/42 65/65/42 64/64/42
f 70/70/32 71/71/32 72/72/32
f 72/72/32 73/73/32 74/74/32
f 71/71/32 73/73/32 72/72/32
f 74/74/32 73/73/32 75/75/32
f 71/71/32 70/70/32 76/76/32
f 76/76/32 77/77/32 78/78/32
f 70/70/32 77/77/32 76/76/32
f 79/79/32 78/78/32 77/77/32
f 78/78/32 79/79/32 80/80/32
f 80/80/32 81/81/32 82/82/32
f 79/79/32 81/81/32 80/80/32
f 83/83/32 82/82/32 81/81/32
f 82/82/32 83/83/32 84/84/32
f 84/84/32 85/85/32 67/67/32
f 83/83/32 85/85/32 84/84/32
f 68/68/32 67/67/32 85/85/32
f 67/67/32 66/66/32 86/86/32
f 86/86/32 87/87/32 88/88/32
f 87/87/32 86/86/32 66/66/32
f 31/40/43 30/37/43 82/82/43 84/84/43
f 16/5/44 4/25/44 69/69/44 50/50/44
f 3/2/45 24/21/45 65/65/45 47/47/45
f 39/14/46 38/16/46 59/59/46 57/57/46
f 30/37/43 29/36/43 80/80/43 82/82/43
f 17/7/47 16/5/47 50/50/47 52/52/47
f 5/3/48 3/2/48 47/47/48 46/46/48
f 38/16/49 37/18/49 61/61/49 59/59/49
f 29/36/43 28/33/43 78/78/43 80/80/43
f 18/9/50 17/7/50 52/52/50 54/54/50
f 6/31/51 2/29/51 74/74/51 75/75/51
f 37/18/52 36/20/52 63/63/52 61/61/52
f 28/33/43 27/32/43 76/76/43 78/78/43
f 19/11/53 18/9/53 54/54/53 56/56/53
f 35/1/54 5/3/54 46/46/54 45/45/54
f 36/20/55 35/1/55 45/45/55 63/63/55
f 27/32/43 26/28/43 71/71/43 76/76/43
f 20/13/56 19/11/56 56/56/56 58/58/56
f 7/22/57 1/44/57 87/87/57 66/66/57
f 26/28/43 25/30/43 73/73/43 71/71/43
f 21/15/58 20/13/58 58/58/58 60/60/58
f 8/23/57 7/22/57 66/66/57 68/68/57
f 25/30/43 6/31/43 75/75/43 73/73/43
f 22/17/59 21/15/59 60/60/59 62/62/59
f 9/41/57 8/23/57 68/68/57 85/85/57
f 23/19/60 22/17/60 62/62/60 64/64/60
f 10/39/57 9/41/57 85/85/57 83/83/57
f 24/21/61 23/19/61 64/64/61 65/65/61
f 11/38/57 10/39/57 83/83/57 81/81/57
f 43/4/62 44/6/62 49/49/62 48/48/62
f 12/35/57 11/38/57 81/81/57 79/79/57
f 44/6/63 42/8/63 51/51/63 49/49/63
f 34/43/43 33/42/43 86/86/43 88/88/43
f 13/34/57 12/35/57 79/79/57 77/77/57
f 1/44/64 34/43/64 88/88/64 87/87/64
f 42/8/65 41/10/65 53/53/65 51/51/65
f 33/42/43 32/24/43 67/67/43 86/86/43
f 14/26/57 13/34/57 77/77/57 70/70/57
f 4/25/66 43/4/66 48/48/66 69/69/66
f 41/10/67 40/12/67 55/55/67 53/53/67
f 32/24/43 31/40/43 84/84/43 67/67/43
f 15/27/57 14/26/57 70/70/57 72/72/57
f 2/29/57 15/27/57 72/72/57 74/74/57
f 40/12/68 39/14/68 57/57/68 55/55/68
