# Blender v2.93.1 OBJ File: 'CardPackAnimated3.blend'
# www.blender.org
o Plane
v -0.700000 0.000000 1.167000
v 0.700000 0.000000 1.167000
v 0.662825 0.276343 -1.276237
v 0.700000 0.000000 -1.167000
v 0.731197 0.376560 -0.947829
v 0.700000 0.000000 -0.816900
v -0.560000 0.000000 1.167000
v -0.420000 0.000000 1.167000
v -0.280000 -0.000000 1.167000
v -0.140000 0.000000 1.167000
v -0.000000 0.000000 1.167000
v 0.140000 0.000000 1.167000
v 0.280000 0.000000 1.167000
v 0.420000 0.000000 1.167000
v 0.560000 0.000000 1.167000
v 0.560000 0.000000 -1.167000
v 0.420000 0.000000 -1.167000
v 0.280000 0.000000 -1.167000
v 0.135516 -0.004196 -1.166774
v 0.063351 0.111301 -1.168893
v 0.138132 0.239800 -1.180733
v 0.267721 0.259197 -1.194244
v 0.396557 0.267330 -1.215040
v 0.525817 0.278772 -1.244183
v 0.560000 0.000000 -0.816900
v 0.420000 0.000000 -0.816900
v 0.280000 0.000000 -0.816900
v 0.140000 0.000000 -0.816900
v -0.000000 0.000000 -0.816900
v -0.140000 0.000000 -0.816900
v -0.280000 -0.000000 -0.816900
v -0.420000 0.000000 -0.816900
v -0.560000 0.000000 -0.816900
v -0.700000 0.000000 -0.816900
v 0.601299 0.325551 -0.909902
v 0.460745 0.294753 -0.874163
v 0.314461 0.266134 -0.851669
v 0.162385 0.250090 -0.833388
v 0.081207 0.134313 -0.820051
v 0.144916 0.004601 -0.817148
v 0.280000 0.000000 -0.816900
v 0.420000 0.000000 -0.816900
v 0.700000 0.000000 -0.816900
v 0.560000 0.000000 -0.816900
v 0.599475 0.335215 -0.910842
v 0.728939 0.385999 -0.950239
v 0.660567 0.285782 -1.278647
v 0.700000 -0.010000 -0.816900
v 0.560000 -0.010000 -0.816900
v 0.560000 -0.010000 -1.167000
v 0.420000 -0.010000 -0.816900
v 0.420000 -0.010000 -1.167000
v 0.280000 -0.010000 -0.816900
v 0.280000 -0.010000 -1.167000
v 0.140557 -0.002821 -0.816791
v 0.131156 -0.011618 -1.166417
v 0.072794 0.134818 -0.819736
v 0.054938 0.111805 -1.168579
v 0.154277 0.255943 -0.833472
v 0.133195 0.247583 -1.179979
v 0.312818 0.275871 -0.851650
v 0.266079 0.268934 -1.194225
v 0.459290 0.304577 -0.874675
v 0.395102 0.277154 -1.215551
v 0.523993 0.288436 -1.245122
v -0.560000 -0.010000 1.167000
v -0.420000 -0.010000 -0.816900
v -0.420000 -0.010000 1.167000
v 0.700000 -0.010000 -1.167000
v 0.420000 -0.010000 1.167000
v 0.420000 -0.010000 -0.816900
v 0.560000 -0.010000 1.167000
v 0.560000 -0.010000 -0.816900
v 0.700000 -0.010000 1.167000
v 0.700000 -0.010000 -0.816900
v 0.280000 -0.010000 -0.816900
v 0.280000 -0.010000 1.167000
v 0.140000 -0.010000 -0.816900
v 0.140000 -0.010000 1.167000
v -0.000000 -0.010000 -0.816900
v -0.000000 -0.010000 1.167000
v -0.140000 -0.010000 -0.816900
v -0.140000 -0.010000 1.167000
v -0.280000 -0.010000 -0.816900
v -0.280000 -0.010000 1.167000
v -0.560000 -0.010000 -0.816900
v -0.700000 -0.010000 1.167000
v -0.700000 -0.010000 -0.816900
vt 0.100000 0.850000
vt 0.000000 1.000000
vt 0.000000 0.850000
vt 1.000000 0.850000
vt 0.900000 1.000000
vt 0.900000 0.850000
vt 0.800000 1.000000
vt 0.800000 0.850000
vt 0.700000 1.000000
vt 0.700000 0.850000
vt 0.600000 1.000000
vt 0.600000 0.850000
vt 0.500000 1.000000
vt 0.500000 0.850000
vt 0.400000 1.000000
vt 0.400000 0.850000
vt 0.300000 1.000000
vt 0.300000 0.850000
vt 0.200000 1.000000
vt 0.200000 0.850000
vt 0.100000 1.000000
vt 0.100000 0.000000
vt 0.200000 0.000000
vt 0.200000 0.850000
vt 1.000000 1.000000
vt 0.800000 0.000000
vt 0.900000 0.000000
vt 0.800000 0.850000
vt 1.000000 0.000000
vt 0.900000 0.850000
vt 1.000000 0.850000
vt 0.700000 0.850000
vt 0.600000 0.850000
vt 0.700000 0.000000
vt 0.600000 0.000000
vt 0.500000 0.850000
vt 0.400000 0.850000
vt 0.500000 0.000000
vt 0.400000 0.000000
vt 0.300000 0.850000
vt 0.300000 0.000000
vt 0.100000 0.850000
vt 0.000000 0.850000
vt 0.000000 0.000000
vt 0.100000 0.850000
vt 0.000000 0.850000
vt 0.000000 1.000000
vt 1.000000 0.850000
vt 0.900000 0.850000
vt 0.900000 1.000000
vt 0.800000 0.850000
vt 0.800000 1.000000
vt 0.700000 0.850000
vt 0.700000 1.000000
vt 0.600000 0.850000
vt 0.600000 1.000000
vt 0.500000 0.850000
vt 0.500000 1.000000
vt 0.400000 0.850000
vt 0.400000 1.000000
vt 0.300000 0.850000
vt 0.300000 1.000000
vt 0.200000 0.850000
vt 0.200000 1.000000
vt 0.100000 1.000000
vt 0.100000 0.000000
vt 0.200000 0.850000
vt 0.200000 0.000000
vt 1.000000 1.000000
vt 0.800000 0.000000
vt 0.800000 0.850000
vt 0.900000 0.000000
vt 0.900000 0.850000
vt 1.000000 0.000000
vt 1.000000 0.850000
vt 0.700000 0.850000
vt 0.700000 0.000000
vt 0.600000 0.850000
vt 0.600000 0.000000
vt 0.500000 0.850000
vt 0.500000 0.000000
vt 0.400000 0.850000
vt 0.400000 0.000000
vt 0.300000 0.850000
vt 0.300000 0.000000
vt 0.100000 0.850000
vt 0.000000 0.000000
vt 0.000000 0.850000
vn 0.4061 -0.8942 0.1883
vn 0.0000 1.0000 0.0000
vn 0.0341 0.9991 -0.0261
vn 0.8957 0.4383 -0.0748
vn 0.8160 -0.5767 -0.0399
vn 0.1056 -0.9944 0.0057
vn 0.1980 -0.9793 0.0415
vn 0.2334 -0.9688 0.0829
vn 0.0141 -0.9907 0.1354
vn -0.0290 0.9996 0.0000
vn 0.8478 0.5291 -0.0361
vn 0.8638 -0.5037 -0.0110
vn 0.1499 -0.9885 0.0188
vn 0.0648 -0.9978 0.0114
vn 0.1016 -0.9930 0.0608
vn -0.4077 0.8936 -0.1878
vn 0.0000 -1.0000 0.0000
vn -0.0514 -0.9983 0.0265
vn -0.8953 -0.4392 0.0748
vn -0.8272 0.5607 0.0368
vn -0.1251 0.9921 -0.0030
vn -0.1984 0.9792 -0.0414
vn -0.2331 0.9689 -0.0829
vn -0.0140 0.9907 -0.1355
vn 0.0109 -0.9999 0.0000
vn -0.8506 -0.5246 0.0361
vn -0.8659 0.5000 0.0113
vn -0.1601 0.9870 -0.0141
vn -0.0654 0.9978 -0.0113
vn -0.1009 0.9930 -0.0609
vn 0.0000 0.0000 -1.0000
vn -0.2314 -0.2158 -0.9486
vn 0.0456 0.0824 0.9956
vn 0.9544 0.1647 -0.2490
vn 0.1081 0.0717 0.9916
vn 1.0000 0.0000 0.0000
vn 0.1443 0.0477 0.9884
vn -0.0024 -0.0199 -0.9998
vn 0.2023 0.2109 0.9563
vn 0.2240 0.1098 0.9684
vn -0.0320 -0.0378 -0.9988
vn 0.0000 0.0000 1.0000
vn -0.0985 -0.0304 -0.9947
vn -0.1058 0.0041 -0.9944
vn -0.1579 -0.0498 -0.9862
vn -0.2114 -0.1079 -0.9714
vn -1.0000 0.0000 0.0000
vn 0.0004 0.0204 0.9998
vn 0.0321 0.0376 0.9988
s off
f 35/1/1 3/2/1 5/3/1
f 43/4/2 16/5/2 44/6/2
f 44/6/2 17/7/2 42/8/2
f 42/8/2 18/9/2 41/10/2
f 41/10/3 19/11/3 40/12/3
f 40/12/4 20/13/4 39/14/4
f 39/14/5 21/15/5 38/16/5
f 38/16/6 22/17/6 37/18/6
f 37/18/7 23/19/7 36/20/7
f 36/20/8 24/21/8 35/1/8
f 7/22/2 8/23/2 32/24/2
f 35/1/9 24/21/9 3/2/9
f 43/4/2 4/25/2 16/5/2
f 44/6/2 16/5/2 17/7/2
f 42/8/2 17/7/2 18/9/2
f 41/10/10 18/9/10 19/11/10
f 40/12/11 19/11/11 20/13/11
f 39/14/12 20/13/12 21/15/12
f 38/16/13 21/15/13 22/17/13
f 37/18/14 22/17/14 23/19/14
f 36/20/15 23/19/15 24/21/15
f 14/26/2 15/27/2 26/28/2
f 15/27/2 2/29/2 25/30/2
f 26/28/2 15/27/2 25/30/2
f 2/29/2 6/31/2 25/30/2
f 26/28/2 27/32/2 14/26/2
f 27/32/2 28/33/2 13/34/2
f 14/26/2 27/32/2 13/34/2
f 12/35/2 13/34/2 28/33/2
f 28/33/2 29/36/2 12/35/2
f 29/36/2 30/37/2 11/38/2
f 12/35/2 29/36/2 11/38/2
f 10/39/2 11/38/2 30/37/2
f 30/37/2 31/40/2 10/39/2
f 31/40/2 32/24/2 9/41/2
f 10/39/2 31/40/2 9/41/2
f 8/23/2 9/41/2 32/24/2
f 32/24/2 33/42/2 7/22/2
f 33/42/2 34/43/2 1/44/2
f 1/44/2 7/22/2 33/42/2
f 45/45/16 46/46/16 47/47/16
f 48/48/17 49/49/17 50/50/17
f 49/49/17 51/51/17 52/52/17
f 51/51/17 53/53/17 54/54/17
f 53/53/18 55/55/18 56/56/18
f 55/55/19 57/57/19 58/58/19
f 57/57/20 59/59/20 60/60/20
f 59/59/21 61/61/21 62/62/21
f 61/61/22 63/63/22 64/64/22
f 63/63/23 45/45/23 65/65/23
f 66/66/17 67/67/17 68/68/17
f 45/45/24 47/47/24 65/65/24
f 48/48/17 50/50/17 69/69/17
f 49/49/17 52/52/17 50/50/17
f 51/51/17 54/54/17 52/52/17
f 53/53/25 56/56/25 54/54/25
f 55/55/26 58/58/26 56/56/26
f 57/57/27 60/60/27 58/58/27
f 59/59/28 62/62/28 60/60/28
f 61/61/29 64/64/29 62/62/29
f 63/63/30 65/65/30 64/64/30
f 70/70/17 71/71/17 72/72/17
f 72/72/17 73/73/17 74/74/17
f 71/71/17 73/73/17 72/72/17
f 74/74/17 73/73/17 75/75/17
f 71/71/17 70/70/17 76/76/17
f 76/76/17 77/77/17 78/78/17
f 70/70/17 77/77/17 76/76/17
f 79/79/17 78/78/17 77/77/17
f 78/78/17 79/79/17 80/80/17
f 80/80/17 81/81/17 82/82/17
f 79/79/17 81/81/17 80/80/17
f 83/83/17 82/82/17 81/81/17
f 82/82/17 83/83/17 84/84/17
f 84/84/17 85/85/17 67/67/17
f 83/83/17 85/85/17 84/84/17
f 68/68/17 67/67/17 85/85/17
f 67/67/17 66/66/17 86/86/17
f 86/86/17 87/87/17 88/88/17
f 87/87/17 86/86/17 66/66/17
f 31/40/31 30/37/31 82/82/31 84/84/31
f 16/5/31 4/25/31 69/69/31 50/50/31
f 3/2/32 24/21/32 65/65/32 47/47/32
f 39/14/33 38/16/33 59/59/33 57/57/33
f 30/37/31 29/36/31 80/80/31 82/82/31
f 17/7/31 16/5/31 50/50/31 52/52/31
f 5/3/34 3/2/34 47/47/34 46/46/34
f 38/16/35 37/18/35 61/61/35 59/59/35
f 29/36/31 28/33/31 78/78/31 80/80/31
f 18/9/31 17/7/31 52/52/31 54/54/31
f 6/31/36 2/29/36 74/74/36 75/75/36
f 37/18/37 36/20/37 63/63/37 61/61/37
f 28/33/31 27/32/31 76/76/31 78/78/31
f 19/11/38 18/9/38 54/54/38 56/56/38
f 35/1/39 5/3/39 46/46/39 45/45/39
f 36/20/40 35/1/40 45/45/40 63/63/40
f 27/32/31 26/28/31 71/71/31 76/76/31
f 20/13/41 19/11/41 56/56/41 58/58/41
f 7/22/42 1/44/42 87/87/42 66/66/42
f 26/28/31 25/30/31 73/73/31 71/71/31
f 21/15/43 20/13/43 58/58/43 60/60/43
f 8/23/42 7/22/42 66/66/42 68/68/42
f 25/30/31 6/31/31 75/75/31 73/73/31
f 22/17/44 21/15/44 60/60/44 62/62/44
f 9/41/42 8/23/42 68/68/42 85/85/42
f 23/19/45 22/17/45 62/62/45 64/64/45
f 10/39/42 9/41/42 85/85/42 83/83/42
f 24/21/46 23/19/46 64/64/46 65/65/46
f 11/38/42 10/39/42 83/83/42 81/81/42
f 43/4/42 44/6/42 49/49/42 48/48/42
f 12/35/42 11/38/42 81/81/42 79/79/42
f 44/6/42 42/8/42 51/51/42 49/49/42
f 34/43/31 33/42/31 86/86/31 88/88/31
f 13/34/42 12/35/42 79/79/42 77/77/42
f 1/44/47 34/43/47 88/88/47 87/87/47
f 42/8/42 41/10/42 53/53/42 51/51/42
f 33/42/31 32/24/31 67/67/31 86/86/31
f 14/26/42 13/34/42 77/77/42 70/70/42
f 4/25/36 43/4/36 48/48/36 69/69/36
f 41/10/48 40/12/48 55/55/48 53/53/48
f 32/24/31 31/40/31 84/84/31 67/67/31
f 15/27/42 14/26/42 70/70/42 72/72/42
f 2/29/42 15/27/42 72/72/42 74/74/42
f 40/12/49 39/14/49 57/57/49 55/55/49
