# Blender v2.93.1 OBJ File: 'CardPackAnimated3.blend'
# www.blender.org
o Plane
v -0.700000 0.000000 1.167000
v 0.700000 0.000000 1.167000
v 1.767110 0.228851 -1.489798
v 0.697336 -0.003545 -1.166880
v 1.892458 0.248372 -1.163490
v 0.700000 0.000000 -0.816900
v -0.560000 0.000000 1.167000
v -0.420000 0.000000 1.167000
v -0.280000 -0.000000 1.167000
v -0.140000 0.000000 1.167000
v -0.000000 0.000000 1.167000
v 0.140000 0.000000 1.167000
v 0.280000 0.000000 1.167000
v 0.420000 0.000000 1.167000
v 0.560000 0.000000 1.167000
v 0.656643 0.132605 -1.168095
v 0.743551 0.231362 -1.181074
v 0.853508 0.309595 -1.203438
v 0.986825 0.333224 -1.240198
v 1.124456 0.327645 -1.276380
v 1.252630 0.326357 -1.309041
v 1.384471 0.325148 -1.356032
v 1.519381 0.295814 -1.395611
v 1.642059 0.269818 -1.439913
v 0.560000 0.000000 -0.816900
v 0.420000 0.000000 -0.816900
v 0.280000 0.000000 -0.816900
v 0.140000 0.000000 -0.816900
v -0.000000 0.000000 -0.816900
v -0.140000 0.000000 -0.816900
v -0.280000 -0.000000 -0.816900
v -0.420000 0.000000 -0.816900
v -0.560000 0.000000 -0.816900
v -0.700000 0.000000 -0.816900
v 1.756648 0.236216 -1.115306
v 1.617434 0.246693 -1.065396
v 1.486758 0.264181 -1.030931
v 1.349458 0.282898 -0.977803
v 1.213607 0.283403 -0.941449
v 1.080107 0.267859 -0.909225
v 0.945243 0.267397 -0.869122
v 0.807639 0.225225 -0.837765
v 0.708356 0.003887 -0.817032
v 0.684629 0.140013 -0.819609
v 1.758099 0.245976 -1.114807
v 1.893302 0.258294 -1.164408
v 1.767954 0.238773 -1.490716
v 0.698636 0.001564 -0.816677
v 0.676489 0.142610 -0.819087
v 0.648503 0.135202 -1.167572
v 0.802299 0.233474 -0.836655
v 0.738211 0.239611 -1.179964
v 0.943013 0.276782 -0.867343
v 0.851279 0.318979 -1.201659
v 1.080016 0.277660 -0.907258
v 0.986734 0.343025 -1.238232
v 1.214180 0.293282 -0.940299
v 1.125029 0.337524 -1.275231
v 1.350447 0.292841 -0.977409
v 1.253608 0.336074 -1.307342
v 1.488100 0.273851 -1.029496
v 1.385813 0.334818 -1.354597
v 1.619321 0.256417 -1.064504
v 1.521268 0.305538 -1.394719
v 1.643509 0.279577 -1.439414
v -0.560000 -0.010000 1.167000
v -0.420000 -0.010000 -0.816900
v -0.420000 -0.010000 1.167000
v 0.687616 -0.005868 -1.166524
v 0.420000 -0.010000 1.167000
v 0.420000 -0.010000 -0.816900
v 0.560000 -0.010000 1.167000
v 0.560000 -0.010000 -0.816900
v 0.700000 -0.010000 1.167000
v 0.700000 -0.010000 -0.816900
v 0.280000 -0.010000 -0.816900
v 0.280000 -0.010000 1.167000
v 0.140000 -0.010000 -0.816900
v 0.140000 -0.010000 1.167000
v -0.000000 -0.010000 -0.816900
v -0.000000 -0.010000 1.167000
v -0.140000 -0.010000 -0.816900
v -0.140000 -0.010000 1.167000
v -0.280000 -0.010000 -0.816900
v -0.280000 -0.010000 1.167000
v -0.560000 -0.010000 -0.816900
v -0.700000 -0.010000 1.167000
v -0.700000 -0.010000 -0.816900
vt 0.100000 0.850000
vt 0.000000 1.000000
vt 0.000000 0.850000
vt 1.000000 0.850000
vt 0.900000 1.000000
vt 0.900000 0.850000
vt 0.800000 1.000000
vt 0.800000 0.850000
vt 0.700000 1.000000
vt 0.700000 0.850000
vt 0.600000 1.000000
vt 0.600000 0.850000
vt 0.500000 1.000000
vt 0.500000 0.850000
vt 0.400000 1.000000
vt 0.400000 0.850000
vt 0.300000 1.000000
vt 0.300000 0.850000
vt 0.200000 1.000000
vt 0.200000 0.850000
vt 0.100000 1.000000
vt 0.100000 0.000000
vt 0.200000 0.000000
vt 0.200000 0.850000
vt 1.000000 1.000000
vt 0.800000 0.000000
vt 0.900000 0.000000
vt 0.800000 0.850000
vt 1.000000 0.000000
vt 0.900000 0.850000
vt 1.000000 0.850000
vt 0.700000 0.850000
vt 0.600000 0.850000
vt 0.700000 0.000000
vt 0.600000 0.000000
vt 0.500000 0.850000
vt 0.400000 0.850000
vt 0.500000 0.000000
vt 0.400000 0.000000
vt 0.300000 0.850000
vt 0.300000 0.000000
vt 0.100000 0.850000
vt 0.000000 0.850000
vt 0.000000 0.000000
vt 0.100000 0.850000
vt 0.000000 0.850000
vt 0.000000 1.000000
vt 1.000000 0.850000
vt 0.900000 0.850000
vt 0.900000 1.000000
vt 0.800000 0.850000
vt 0.800000 1.000000
vt 0.700000 0.850000
vt 0.700000 1.000000
vt 0.600000 0.850000
vt 0.600000 1.000000
vt 0.500000 0.850000
vt 0.500000 1.000000
vt 0.400000 0.850000
vt 0.400000 1.000000
vt 0.300000 0.850000
vt 0.300000 1.000000
vt 0.200000 0.850000
vt 0.200000 1.000000
vt 0.100000 1.000000
vt 0.100000 0.000000
vt 0.200000 0.850000
vt 0.200000 0.000000
vt 1.000000 1.000000
vt 0.800000 0.000000
vt 0.800000 0.850000
vt 0.900000 0.000000
vt 0.900000 0.850000
vt 1.000000 0.000000
vt 1.000000 0.850000
vt 0.700000 0.850000
vt 0.700000 0.000000
vt 0.600000 0.850000
vt 0.600000 0.000000
vt 0.500000 0.850000
vt 0.500000 0.000000
vt 0.400000 0.850000
vt 0.400000 0.000000
vt 0.300000 0.850000
vt 0.300000 0.000000
vt 0.100000 0.850000
vt 0.000000 0.000000
vt 0.000000 0.850000
vn 0.0970 -0.9950 0.0223
vn 0.9821 0.1696 -0.0825
vn 0.5536 -0.8244 -0.1181
vn 0.2484 -0.9502 -0.1881
vn -0.0501 -0.9824 -0.1799
vn 0.0783 -0.9854 -0.1510
vn -0.0357 -0.9922 -0.1197
vn -0.1816 -0.9753 -0.1258
vn -0.1577 -0.9825 -0.0993
vn -0.0990 -0.9928 -0.0678
vn 0.0000 1.0000 0.0000
vn -0.3077 -0.9514 0.0101
vn 0.9576 0.2859 -0.0362
vn 0.7469 -0.6633 -0.0459
vn 0.5594 -0.8203 -0.1191
vn 0.1296 -0.9787 -0.1591
vn -0.0845 -0.9818 -0.1701
vn -0.0406 -0.9919 -0.1202
vn -0.0503 -0.9920 -0.1155
vn -0.2407 -0.9649 -0.1052
vn -0.2326 -0.9697 -0.0752
vn -0.0986 0.9949 -0.0216
vn -0.9848 -0.1532 0.0823
vn -0.5700 0.8127 0.1209
vn -0.2510 0.9494 0.1887
vn 0.0464 0.9824 0.1809
vn -0.0776 0.9855 0.1508
vn 0.0358 0.9922 0.1195
vn 0.1821 0.9752 0.1256
vn 0.1571 0.9826 0.0995
vn 0.0992 0.9928 0.0677
vn 0.0000 -1.0000 0.0000
vn 0.3078 0.9514 -0.0102
vn -0.9631 -0.2668 0.0360
vn -0.7549 0.6542 0.0467
vn -0.5552 0.8233 0.1184
vn -0.1307 0.9785 0.1594
vn 0.0846 0.9818 0.1701
vn 0.0412 0.9919 0.1201
vn 0.0506 0.9921 0.1151
vn 0.2399 0.9651 0.1055
vn 0.2333 0.9695 0.0749
vn 0.0000 0.0000 -1.0000
vn -0.0495 -0.0224 -0.9985
vn -0.3692 0.0233 -0.9291
vn 0.2591 -0.0952 0.9611
vn -0.1293 -0.0114 -0.9915
vn 0.9299 -0.1116 -0.3505
vn 0.3392 -0.1272 0.9321
vn -0.2333 0.0589 -0.9706
vn 1.0000 0.0000 0.0000
vn 0.2341 -0.1541 0.9599
vn -0.2850 0.1504 -0.9467
vn 0.3409 -0.0198 0.9399
vn 0.3283 -0.1231 0.9365
vn -0.2472 0.1574 -0.9561
vn 0.0000 0.0000 1.0000
vn -0.2399 0.1582 -0.9578
vn -0.3285 0.1889 -0.9254
vn -0.2480 0.1560 -0.9561
vn -0.3162 0.1213 -0.9409
vn 0.0495 0.0262 0.9984
vn 0.1319 0.0147 0.9912
vn -1.0000 0.0000 0.0000
vn 0.2343 -0.0584 0.9704
vn 0.2329 -0.9724 0.0133
vn 0.2798 -0.1513 0.9481
vn 0.2512 -0.1574 0.9551
s off
f 35/1/1 3/2/1 5/3/1
f 43/4/2 16/5/2 44/6/2
f 44/6/3 17/7/3 42/8/3
f 42/8/4 18/9/4 41/10/4
f 41/10/5 19/11/5 40/12/5
f 40/12/6 20/13/6 39/14/6
f 39/14/7 21/15/7 38/16/7
f 38/16/8 22/17/8 37/18/8
f 37/18/9 23/19/9 36/20/9
f 36/20/10 24/21/10 35/1/10
f 7/22/11 8/23/11 32/24/11
f 35/1/12 24/21/12 3/2/12
f 43/4/13 4/25/13 16/5/13
f 44/6/14 16/5/14 17/7/14
f 42/8/15 17/7/15 18/9/15
f 41/10/16 18/9/16 19/11/16
f 40/12/17 19/11/17 20/13/17
f 39/14/18 20/13/18 21/15/18
f 38/16/19 21/15/19 22/17/19
f 37/18/20 22/17/20 23/19/20
f 36/20/21 23/19/21 24/21/21
f 14/26/11 15/27/11 26/28/11
f 15/27/11 2/29/11 25/30/11
f 26/28/11 15/27/11 25/30/11
f 2/29/11 6/31/11 25/30/11
f 26/28/11 27/32/11 14/26/11
f 27/32/11 28/33/11 13/34/11
f 14/26/11 27/32/11 13/34/11
f 12/35/11 13/34/11 28/33/11
f 28/33/11 29/36/11 12/35/11
f 29/36/11 30/37/11 11/38/11
f 12/35/11 29/36/11 11/38/11
f 10/39/11 11/38/11 30/37/11
f 30/37/11 31/40/11 10/39/11
f 31/40/11 32/24/11 9/41/11
f 10/39/11 31/40/11 9/41/11
f 8/23/11 9/41/11 32/24/11
f 32/24/11 33/42/11 7/22/11
f 33/42/11 34/43/11 1/44/11
f 1/44/11 7/22/11 33/42/11
f 45/45/22 46/46/22 47/47/22
f 48/48/23 49/49/23 50/50/23
f 49/49/24 51/51/24 52/52/24
f 51/51/25 53/53/25 54/54/25
f 53/53/26 55/55/26 56/56/26
f 55/55/27 57/57/27 58/58/27
f 57/57/28 59/59/28 60/60/28
f 59/59/29 61/61/29 62/62/29
f 61/61/30 63/63/30 64/64/30
f 63/63/31 45/45/31 65/65/31
f 66/66/32 67/67/32 68/68/32
f 45/45/33 47/47/33 65/65/33
f 48/48/34 50/50/34 69/69/34
f 49/49/35 52/52/35 50/50/35
f 51/51/36 54/54/36 52/52/36
f 53/53/37 56/56/37 54/54/37
f 55/55/38 58/58/38 56/56/38
f 57/57/39 60/60/39 58/58/39
f 59/59/40 62/62/40 60/60/40
f 61/61/41 64/64/41 62/62/41
f 63/63/42 65/65/42 64/64/42
f 70/70/32 71/71/32 72/72/32
f 72/72/32 73/73/32 74/74/32
f 71/71/32 73/73/32 72/72/32
f 74/74/32 73/73/32 75/75/32
f 71/71/32 70/70/32 76/76/32
f 76/76/32 77/77/32 78/78/32
f 70/70/32 77/77/32 76/76/32
f 79/79/32 78/78/32 77/77/32
f 78/78/32 79/79/32 80/80/32
f 80/80/32 81/81/32 82/82/32
f 79/79/32 81/81/32 80/80/32
f 83/83/32 82/82/32 81/81/32
f 82/82/32 83/83/32 84/84/32
f 84/84/32 85/85/32 67/67/32
f 83/83/32 85/85/32 84/84/32
f 68/68/32 67/67/32 85/85/32
f 67/67/32 66/66/32 86/86/32
f 86/86/32 87/87/32 88/88/32
f 87/87/32 86/86/32 66/66/32
f 31/40/43 30/37/43 82/82/43 84/84/43
f 16/5/44 4/25/44 69/69/44 50/50/44
f 3/2/45 24/21/45 65/65/45 47/47/45
f 39/14/46 38/16/46 59/59/46 57/57/46
f 30/37/43 29/36/43 80/80/43 82/82/43
f 17/7/47 16/5/47 50/50/47 52/52/47
f 5/3/48 3/2/48 47/47/48 46/46/48
f 38/16/49 37/18/49 61/61/49 59/59/49
f 29/36/43 28/33/43 78/78/43 80/80/43
f 18/9/50 17/7/50 52/52/50 54/54/50
f 6/31/51 2/29/51 74/74/51 75/75/51
f 37/18/52 36/20/52 63/63/52 61/61/52
f 28/33/43 27/32/43 76/76/43 78/78/43
f 19/11/53 18/9/53 54/54/53 56/56/53
f 35/1/54 5/3/54 46/46/54 45/45/54
f 36/20/55 35/1/55 45/45/55 63/63/55
f 27/32/43 26/28/43 71/71/43 76/76/43
f 20/13/56 19/11/56 56/56/56 58/58/56
f 7/22/57 1/44/57 87/87/57 66/66/57
f 26/28/43 25/30/43 73/73/43 71/71/43
f 21/15/58 20/13/58 58/58/58 60/60/58
f 8/23/57 7/22/57 66/66/57 68/68/57
f 25/30/43 6/31/43 75/75/43 73/73/43
f 22/17/59 21/15/59 60/60/59 62/62/59
f 9/41/57 8/23/57 68/68/57 85/85/57
f 23/19/60 22/17/60 62/62/60 64/64/60
f 10/39/57 9/41/57 85/85/57 83/83/57
f 24/21/61 23/19/61 64/64/61 65/65/61
f 11/38/57 10/39/57 83/83/57 81/81/57
f 43/4/62 44/6/62 49/49/62 48/48/62
f 12/35/57 11/38/57 81/81/57 79/79/57
f 44/6/63 42/8/63 51/51/63 49/49/63
f 34/43/43 33/42/43 86/86/43 88/88/43
f 13/34/57 12/35/57 79/79/57 77/77/57
f 1/44/64 34/43/64 88/88/64 87/87/64
f 42/8/65 41/10/65 53/53/65 51/51/65
f 33/42/43 32/24/43 67/67/43 86/86/43
f 14/26/57 13/34/57 77/77/57 70/70/57
f 4/25/66 43/4/66 48/48/66 69/69/66
f 41/10/67 40/12/67 55/55/67 53/53/67
f 32/24/43 31/40/43 84/84/43 67/67/43
f 15/27/57 14/26/57 70/70/57 72/72/57
f 2/29/57 15/27/57 72/72/57 74/74/57
f 40/12/68 39/14/68 57/57/68 55/55/68
