# Blender v2.93.1 OBJ File: 'CardPackAnimated3.blend'
# www.blender.org
o Plane
v -0.700000 0.000000 1.167000
v 0.700000 0.000000 1.167000
v -0.307566 0.341470 -1.142990
v 0.700000 0.000000 -1.167000
v -0.313794 0.361520 -0.793520
v 0.700000 0.000000 -0.816900
v -0.560000 0.000000 1.167000
v -0.420000 0.000000 1.167000
v -0.280000 -0.000000 1.167000
v -0.140000 0.000000 1.167000
v -0.000000 0.000000 1.167000
v 0.140000 0.000000 1.167000
v 0.280000 0.000000 1.167000
v 0.420000 0.000000 1.167000
v 0.560000 0.000000 1.167000
v 0.560000 0.000000 -1.167000
v 0.420000 0.000000 -1.167000
v 0.280000 0.000000 -1.167000
v 0.140000 0.000000 -1.167000
v -0.000000 0.000000 -1.167000
v -0.140000 0.000000 -1.167000
v -0.288943 0.002446 -1.166484
v -0.406321 0.100615 -1.151098
v -0.382109 0.231843 -1.135969
v 0.560000 0.000000 -0.816900
v 0.420000 0.000000 -0.816900
v 0.280000 0.000000 -0.816900
v 0.140000 0.000000 -0.816900
v -0.000000 0.000000 -0.816900
v -0.140000 0.000000 -0.816900
v -0.280000 -0.000000 -0.816900
v -0.420000 0.000000 -0.816900
v -0.560000 0.000000 -0.816900
v -0.700000 0.000000 -0.816900
v -0.365439 0.220580 -0.788613
v -0.367787 0.074199 -0.804509
v -0.270195 -0.002682 -0.817466
v -0.140000 0.000000 -0.816900
v -0.000000 0.000000 -0.816900
v 0.140000 0.000000 -0.816900
v 0.280000 0.000000 -0.816900
v 0.420000 0.000000 -0.816900
v 0.700000 0.000000 -0.816900
v 0.560000 0.000000 -0.816900
v -0.374835 0.223267 -0.788204
v -0.322700 0.366049 -0.793939
v -0.316472 0.345999 -1.143409
v 0.700000 -0.010000 -0.816900
v 0.560000 -0.010000 -0.816900
v 0.560000 -0.010000 -1.167000
v 0.420000 -0.010000 -0.816900
v 0.420000 -0.010000 -1.167000
v 0.280000 -0.010000 -0.816900
v 0.280000 -0.010000 -1.167000
v 0.140000 -0.010000 -0.816900
v 0.140000 -0.010000 -1.167000
v -0.000000 -0.010000 -0.816900
v -0.000000 -0.010000 -1.167000
v -0.140000 -0.010000 -0.816900
v -0.140000 -0.010000 -1.167000
v -0.273334 -0.011568 -0.817242
v -0.292082 -0.006439 -1.166260
v -0.375870 0.070736 -0.803667
v -0.414403 0.097153 -1.150255
v -0.391506 0.234530 -1.135559
v -0.560000 -0.010000 1.167000
v -0.420000 -0.010000 -0.816900
v -0.420000 -0.010000 1.167000
v 0.700000 -0.010000 -1.167000
v 0.420000 -0.010000 1.167000
v 0.420000 -0.010000 -0.816900
v 0.560000 -0.010000 1.167000
v 0.560000 -0.010000 -0.816900
v 0.700000 -0.010000 1.167000
v 0.700000 -0.010000 -0.816900
v 0.280000 -0.010000 -0.816900
v 0.280000 -0.010000 1.167000
v 0.140000 -0.010000 -0.816900
v 0.140000 -0.010000 1.167000
v -0.000000 -0.010000 -0.816900
v -0.000000 -0.010000 1.167000
v -0.140000 -0.010000 -0.816900
v -0.140000 -0.010000 1.167000
v -0.280000 -0.010000 -0.816900
v -0.280000 -0.010000 1.167000
v -0.560000 -0.010000 -0.816900
v -0.700000 -0.010000 1.167000
v -0.700000 -0.010000 -0.816900
vt 0.100000 0.850000
vt 0.000000 1.000000
vt 0.000000 0.850000
vt 1.000000 0.850000
vt 0.900000 1.000000
vt 0.900000 0.850000
vt 0.800000 1.000000
vt 0.800000 0.850000
vt 0.700000 1.000000
vt 0.700000 0.850000
vt 0.600000 1.000000
vt 0.600000 0.850000
vt 0.500000 1.000000
vt 0.500000 0.850000
vt 0.400000 1.000000
vt 0.400000 0.850000
vt 0.300000 1.000000
vt 0.300000 0.850000
vt 0.200000 1.000000
vt 0.200000 0.850000
vt 0.100000 1.000000
vt 0.100000 0.000000
vt 0.200000 0.000000
vt 0.200000 0.850000
vt 1.000000 1.000000
vt 0.800000 0.000000
vt 0.900000 0.000000
vt 0.800000 0.850000
vt 1.000000 0.000000
vt 0.900000 0.850000
vt 1.000000 0.850000
vt 0.700000 0.850000
vt 0.600000 0.850000
vt 0.700000 0.000000
vt 0.600000 0.000000
vt 0.500000 0.850000
vt 0.400000 0.850000
vt 0.500000 0.000000
vt 0.400000 0.000000
vt 0.300000 0.850000
vt 0.300000 0.000000
vt 0.100000 0.850000
vt 0.000000 0.850000
vt 0.000000 0.000000
vt 0.100000 0.850000
vt 0.000000 0.850000
vt 0.000000 1.000000
vt 1.000000 0.850000
vt 0.900000 0.850000
vt 0.900000 1.000000
vt 0.800000 0.850000
vt 0.800000 1.000000
vt 0.700000 0.850000
vt 0.700000 1.000000
vt 0.600000 0.850000
vt 0.600000 1.000000
vt 0.500000 0.850000
vt 0.500000 1.000000
vt 0.400000 0.850000
vt 0.400000 1.000000
vt 0.300000 0.850000
vt 0.300000 1.000000
vt 0.200000 0.850000
vt 0.200000 1.000000
vt 0.100000 1.000000
vt 0.100000 0.000000
vt 0.200000 0.850000
vt 0.200000 0.000000
vt 1.000000 1.000000
vt 0.800000 0.000000
vt 0.800000 0.850000
vt 0.900000 0.000000
vt 0.900000 0.850000
vt 1.000000 0.000000
vt 1.000000 0.850000
vt 0.700000 0.850000
vt 0.700000 0.000000
vt 0.600000 0.850000
vt 0.600000 0.000000
vt 0.500000 0.850000
vt 0.500000 0.000000
vt 0.400000 0.850000
vt 0.400000 0.000000
vt 0.300000 0.850000
vt 0.300000 0.000000
vt 0.100000 0.850000
vt 0.000000 0.000000
vt 0.000000 0.850000
vn 0.9387 -0.3427 0.0364
vn 0.0000 1.0000 0.0000
vn -0.0207 0.9997 0.0158
vn 0.6181 0.7861 -0.0088
vn 0.9988 -0.0108 -0.0483
vn 0.8238 -0.5639 -0.0578
vn 0.0164 0.9999 0.0000
vn 0.6396 0.7684 -0.0231
vn 0.9785 -0.1665 -0.1215
vn -0.9392 0.3415 -0.0363
vn 0.0000 -1.0000 0.0000
vn 0.0118 -0.9998 -0.0153
vn -0.6251 -0.7805 0.0100
vn -0.9988 0.0019 0.0480
vn -0.8263 0.5603 0.0578
vn -0.0234 -0.9997 -0.0000
vn -0.6443 -0.7644 0.0234
vn -0.9812 0.1506 0.1206
vn 0.0000 0.0000 -1.0000
vn -0.0205 -0.0533 -0.9984
vn 0.0000 0.0000 1.0000
vn 0.4544 0.8897 -0.0429
vn -0.0036 0.0125 0.9999
vn 1.0000 0.0000 0.0000
vn 0.1160 -0.0197 0.9931
vn 0.0125 0.0329 0.9994
vn 0.0757 -0.1049 0.9916
vn -0.0044 -0.0111 -0.9999
vn -0.1146 0.0184 -0.9932
vn -0.0763 0.1233 -0.9894
vn -1.0000 0.0000 0.0000
s off
f 35/1/1 3/2/1 5/3/1
f 43/4/2 16/5/2 44/6/2
f 44/6/2 17/7/2 42/8/2
f 42/8/2 18/9/2 41/10/2
f 41/10/2 19/11/2 40/12/2
f 40/12/2 20/13/2 39/14/2
f 39/14/2 21/15/2 38/16/2
f 38/16/3 22/17/3 37/18/3
f 37/18/4 23/19/4 36/20/4
f 36/20/5 24/21/5 35/1/5
f 7/22/2 8/23/2 32/24/2
f 35/1/6 24/21/6 3/2/6
f 43/4/2 4/25/2 16/5/2
f 44/6/2 16/5/2 17/7/2
f 42/8/2 17/7/2 18/9/2
f 41/10/2 18/9/2 19/11/2
f 40/12/2 19/11/2 20/13/2
f 39/14/2 20/13/2 21/15/2
f 38/16/7 21/15/7 22/17/7
f 37/18/8 22/17/8 23/19/8
f 36/20/9 23/19/9 24/21/9
f 14/26/2 15/27/2 26/28/2
f 15/27/2 2/29/2 25/30/2
f 26/28/2 15/27/2 25/30/2
f 2/29/2 6/31/2 25/30/2
f 26/28/2 27/32/2 14/26/2
f 27/32/2 28/33/2 13/34/2
f 14/26/2 27/32/2 13/34/2
f 12/35/2 13/34/2 28/33/2
f 28/33/2 29/36/2 12/35/2
f 29/36/2 30/37/2 11/38/2
f 12/35/2 29/36/2 11/38/2
f 10/39/2 11/38/2 30/37/2
f 30/37/2 31/40/2 10/39/2
f 31/40/2 32/24/2 9/41/2
f 10/39/2 31/40/2 9/41/2
f 8/23/2 9/41/2 32/24/2
f 32/24/2 33/42/2 7/22/2
f 33/42/2 34/43/2 1/44/2
f 1/44/2 7/22/2 33/42/2
f 45/45/10 46/46/10 47/47/10
f 48/48/11 49/49/11 50/50/11
f 49/49/11 51/51/11 52/52/11
f 51/51/11 53/53/11 54/54/11
f 53/53/11 55/55/11 56/56/11
f 55/55/11 57/57/11 58/58/11
f 57/57/11 59/59/11 60/60/11
f 59/59/12 61/61/12 62/62/12
f 61/61/13 63/63/13 64/64/13
f 63/63/14 45/45/14 65/65/14
f 66/66/11 67/67/11 68/68/11
f 45/45/15 47/47/15 65/65/15
f 48/48/11 50/50/11 69/69/11
f 49/49/11 52/52/11 50/50/11
f 51/51/11 54/54/11 52/52/11
f 53/53/11 56/56/11 54/54/11
f 55/55/11 58/58/11 56/56/11
f 57/57/11 60/60/11 58/58/11
f 59/59/16 62/62/16 60/60/16
f 61/61/17 64/64/17 62/62/17
f 63/63/18 65/65/18 64/64/18
f 70/70/11 71/71/11 72/72/11
f 72/72/11 73/73/11 74/74/11
f 71/71/11 73/73/11 72/72/11
f 74/74/11 73/73/11 75/75/11
f 71/71/11 70/70/11 76/76/11
f 76/76/11 77/77/11 78/78/11
f 70/70/11 77/77/11 76/76/11
f 79/79/11 78/78/11 77/77/11
f 78/78/11 79/79/11 80/80/11
f 80/80/11 81/81/11 82/82/11
f 79/79/11 81/81/11 80/80/11
f 83/83/11 82/82/11 81/81/11
f 82/82/11 83/83/11 84/84/11
f 84/84/11 85/85/11 67/67/11
f 83/83/11 85/85/11 84/84/11
f 68/68/11 67/67/11 85/85/11
f 67/67/11 66/66/11 86/86/11
f 86/86/11 87/87/11 88/88/11
f 87/87/11 86/86/11 66/66/11
f 31/40/19 30/37/19 82/82/19 84/84/19
f 16/5/19 4/25/19 69/69/19 50/50/19
f 3/2/20 24/21/20 65/65/20 47/47/20
f 39/14/21 38/16/21 59/59/21 57/57/21
f 30/37/19 29/36/19 80/80/19 82/82/19
f 17/7/19 16/5/19 50/50/19 52/52/19
f 5/3/22 3/2/22 47/47/22 46/46/22
f 38/16/23 37/18/23 61/61/23 59/59/23
f 29/36/19 28/33/19 78/78/19 80/80/19
f 18/9/19 17/7/19 52/52/19 54/54/19
f 6/31/24 2/29/24 74/74/24 75/75/24
f 37/18/25 36/20/25 63/63/25 61/61/25
f 28/33/19 27/32/19 76/76/19 78/78/19
f 19/11/19 18/9/19 54/54/19 56/56/19
f 35/1/26 5/3/26 46/46/26 45/45/26
f 36/20/27 35/1/27 45/45/27 63/63/27
f 27/32/19 26/28/19 71/71/19 76/76/19
f 20/13/19 19/11/19 56/56/19 58/58/19
f 7/22/21 1/44/21 87/87/21 66/66/21
f 26/28/19 25/30/19 73/73/19 71/71/19
f 21/15/19 20/13/19 58/58/19 60/60/19
f 8/23/21 7/22/21 66/66/21 68/68/21
f 25/30/19 6/31/19 75/75/19 73/73/19
f 22/17/28 21/15/28 60/60/28 62/62/28
f 9/41/21 8/23/21 68/68/21 85/85/21
f 23/19/29 22/17/29 62/62/29 64/64/29
f 10/39/21 9/41/21 85/85/21 83/83/21
f 24/21/30 23/19/30 64/64/30 65/65/30
f 11/38/21 10/39/21 83/83/21 81/81/21
f 43/4/21 44/6/21 49/49/21 48/48/21
f 12/35/21 11/38/21 81/81/21 79/79/21
f 44/6/21 42/8/21 51/51/21 49/49/21
f 34/43/19 33/42/19 86/86/19 88/88/19
f 13/34/21 12/35/21 79/79/21 77/77/21
f 1/44/31 34/43/31 88/88/31 87/87/31
f 42/8/21 41/10/21 53/53/21 51/51/21
f 33/42/19 32/24/19 67/67/19 86/86/19
f 14/26/21 13/34/21 77/77/21 70/70/21
f 4/25/24 43/4/24 48/48/24 69/69/24
f 41/10/21 40/12/21 55/55/21 53/53/21
f 32/24/19 31/40/19 84/84/19 67/67/19
f 15/27/21 14/26/21 70/70/21 72/72/21
f 2/29/21 15/27/21 72/72/21 74/74/21
f 40/12/21 39/14/21 57/57/21 55/55/21
