# Blender v2.93.1 OBJ File: 'CardPackAnimated3.blend'
# www.blender.org
o Plane
v -0.700000 0.000000 1.167000
v 0.700000 0.000000 1.167000
v 0.147404 0.217894 -1.235706
v 0.700000 0.000000 -1.167000
v 0.208399 0.288877 -0.898347
v 0.700000 0.000000 -0.816900
v -0.560000 0.000000 1.167000
v -0.420000 0.000000 1.167000
v -0.280000 -0.000000 1.167000
v -0.140000 0.000000 1.167000
v -0.000000 0.000000 1.167000
v 0.140000 0.000000 1.167000
v 0.280000 0.000000 1.167000
v 0.420000 0.000000 1.167000
v 0.560000 0.000000 1.167000
v 0.560000 0.000000 -1.167000
v 0.420000 0.000000 -1.167000
v 0.280000 0.000000 -1.167000
v 0.140000 0.000000 -1.167000
v -0.000000 0.000000 -1.167000
v -0.160866 -0.009007 -1.163848
v -0.239361 0.124726 -1.160490
v -0.137358 0.237897 -1.185498
v 0.008560 0.236227 -1.211165
v 0.560000 0.000000 -0.816900
v 0.420000 0.000000 -0.816900
v 0.280000 0.000000 -0.816900
v 0.140000 0.000000 -0.816900
v -0.000000 0.000000 -0.816900
v -0.140000 0.000000 -0.816900
v -0.280000 -0.000000 -0.816900
v -0.420000 0.000000 -0.816900
v -0.560000 0.000000 -0.816900
v -0.700000 0.000000 -0.816900
v 0.072335 0.259094 -0.871092
v -0.053413 0.215412 -0.846838
v -0.144950 0.133747 -0.824783
v -0.140000 0.000000 -0.816900
v -0.000000 0.000000 -0.816900
v 0.140000 0.000000 -0.816900
v 0.280000 0.000000 -0.816900
v 0.420000 0.000000 -0.816900
v 0.700000 0.000000 -0.816900
v 0.560000 0.000000 -0.816900
v 0.071355 0.268923 -0.871573
v 0.207707 0.298664 -0.900281
v 0.146712 0.227681 -1.237640
v 0.700000 -0.010000 -0.816900
v 0.560000 -0.010000 -0.816900
v 0.560000 -0.010000 -1.167000
v 0.420000 -0.010000 -0.816900
v 0.420000 -0.010000 -1.167000
v 0.280000 -0.010000 -0.816900
v 0.280000 -0.010000 -1.167000
v 0.140000 -0.010000 -0.816900
v 0.140000 -0.010000 -1.167000
v -0.000000 -0.010000 -0.816900
v -0.000000 -0.010000 -1.167000
v -0.140000 -0.010000 -0.816900
v -0.165302 -0.015871 -1.162487
v -0.152688 0.135438 -0.822212
v -0.247099 0.126417 -1.157920
v -0.057349 0.223902 -0.845142
v -0.141294 0.246388 -1.183802
v 0.007580 0.246056 -1.211646
v -0.560000 -0.010000 1.167000
v -0.420000 -0.010000 -0.816900
v -0.420000 -0.010000 1.167000
v 0.700000 -0.010000 -1.167000
v 0.420000 -0.010000 1.167000
v 0.420000 -0.010000 -0.816900
v 0.560000 -0.010000 1.167000
v 0.560000 -0.010000 -0.816900
v 0.700000 -0.010000 1.167000
v 0.700000 -0.010000 -0.816900
v 0.280000 -0.010000 -0.816900
v 0.280000 -0.010000 1.167000
v 0.140000 -0.010000 -0.816900
v 0.140000 -0.010000 1.167000
v -0.000000 -0.010000 -0.816900
v -0.000000 -0.010000 1.167000
v -0.140000 -0.010000 -0.816900
v -0.140000 -0.010000 1.167000
v -0.280000 -0.010000 -0.816900
v -0.280000 -0.010000 1.167000
v -0.560000 -0.010000 -0.816900
v -0.700000 -0.010000 1.167000
v -0.700000 -0.010000 -0.816900
vt 0.100000 0.850000
vt 0.000000 1.000000
vt 0.000000 0.850000
vt 1.000000 0.850000
vt 0.900000 1.000000
vt 0.900000 0.850000
vt 0.800000 1.000000
vt 0.800000 0.850000
vt 0.700000 1.000000
vt 0.700000 0.850000
vt 0.600000 1.000000
vt 0.600000 0.850000
vt 0.500000 1.000000
vt 0.500000 0.850000
vt 0.400000 1.000000
vt 0.400000 0.850000
vt 0.300000 1.000000
vt 0.300000 0.850000
vt 0.200000 1.000000
vt 0.200000 0.850000
vt 0.100000 1.000000
vt 0.100000 0.000000
vt 0.200000 0.000000
vt 0.200000 0.850000
vt 1.000000 1.000000
vt 0.800000 0.000000
vt 0.900000 0.000000
vt 0.800000 0.850000
vt 1.000000 0.000000
vt 0.900000 0.850000
vt 1.000000 0.850000
vt 0.700000 0.850000
vt 0.600000 0.850000
vt 0.700000 0.000000
vt 0.600000 0.000000
vt 0.500000 0.850000
vt 0.400000 0.850000
vt 0.500000 0.000000
vt 0.400000 0.000000
vt 0.300000 0.850000
vt 0.300000 0.000000
vt 0.100000 0.850000
vt 0.000000 0.850000
vt 0.000000 0.000000
vt 0.100000 0.850000
vt 0.000000 0.850000
vt 0.000000 1.000000
vt 1.000000 0.850000
vt 0.900000 0.850000
vt 0.900000 1.000000
vt 0.800000 0.850000
vt 0.800000 1.000000
vt 0.700000 0.850000
vt 0.700000 1.000000
vt 0.600000 0.850000
vt 0.600000 1.000000
vt 0.500000 0.850000
vt 0.500000 1.000000
vt 0.400000 0.850000
vt 0.400000 1.000000
vt 0.300000 0.850000
vt 0.300000 1.000000
vt 0.200000 0.850000
vt 0.200000 1.000000
vt 0.100000 1.000000
vt 0.100000 0.000000
vt 0.200000 0.850000
vt 0.200000 0.000000
vt 1.000000 1.000000
vt 0.800000 0.000000
vt 0.800000 0.850000
vt 0.900000 0.000000
vt 0.900000 0.850000
vt 1.000000 0.000000
vt 1.000000 0.850000
vt 0.700000 0.850000
vt 0.700000 0.000000
vt 0.600000 0.850000
vt 0.600000 0.000000
vt 0.500000 0.850000
vt 0.500000 0.000000
vt 0.400000 0.850000
vt 0.400000 0.000000
vt 0.300000 0.850000
vt 0.300000 0.000000
vt 0.100000 0.850000
vt 0.000000 0.000000
vt 0.000000 0.850000
vn 0.2412 -0.9575 0.1579
vn 0.0000 1.0000 0.0000
vn 0.0000 0.9997 -0.0260
vn 0.9623 0.0196 -0.2712
vn 0.6237 -0.7544 -0.2047
vn 0.3285 -0.9445 0.0019
vn -0.1151 -0.9894 0.0881
vn -0.0559 0.9984 0.0000
vn 0.8599 0.5063 -0.0649
vn 0.7102 -0.6802 -0.1815
vn -0.0221 -0.9979 -0.0608
vn -0.2420 0.9574 -0.1577
vn 0.0000 -1.0000 0.0000
vn -0.0000 -0.9999 0.0170
vn -0.9595 -0.0738 0.2718
vn -0.6381 0.7415 0.2074
vn -0.3305 0.9438 -0.0015
vn 0.1143 0.9895 -0.0880
vn 0.0355 -0.9994 0.0000
vn -0.8637 -0.4988 0.0717
vn -0.7173 0.6722 0.1836
vn 0.0140 0.9979 0.0628
vn 0.0000 0.0000 -1.0000
vn -0.1946 -0.1362 -0.9714
vn 0.0000 0.0000 1.0000
vn 0.9823 0.0330 -0.1845
vn 0.2544 0.0617 0.9651
vn 1.0000 0.0000 0.0000
vn 0.2906 -0.0668 0.9545
vn 0.1711 0.1347 0.9760
vn 0.1992 -0.0116 0.9799
vn -0.0200 -0.0752 -0.9970
vn -0.2577 -0.1221 -0.9585
vn -0.2980 0.0576 -0.9528
vn -0.1785 0.0174 -0.9838
vn -1.0000 0.0000 0.0000
s off
f 35/1/1 3/2/1 5/3/1
f 43/4/2 16/5/2 44/6/2
f 44/6/2 17/7/2 42/8/2
f 42/8/2 18/9/2 41/10/2
f 41/10/2 19/11/2 40/12/2
f 40/12/2 20/13/2 39/14/2
f 39/14/3 21/15/3 38/16/3
f 38/16/4 22/17/4 37/18/4
f 37/18/5 23/19/5 36/20/5
f 36/20/6 24/21/6 35/1/6
f 7/22/2 8/23/2 32/24/2
f 35/1/7 24/21/7 3/2/7
f 43/4/2 4/25/2 16/5/2
f 44/6/2 16/5/2 17/7/2
f 42/8/2 17/7/2 18/9/2
f 41/10/2 18/9/2 19/11/2
f 40/12/2 19/11/2 20/13/2
f 39/14/8 20/13/8 21/15/8
f 38/16/9 21/15/9 22/17/9
f 37/18/10 22/17/10 23/19/10
f 36/20/11 23/19/11 24/21/11
f 14/26/2 15/27/2 26/28/2
f 15/27/2 2/29/2 25/30/2
f 26/28/2 15/27/2 25/30/2
f 2/29/2 6/31/2 25/30/2
f 26/28/2 27/32/2 14/26/2
f 27/32/2 28/33/2 13/34/2
f 14/26/2 27/32/2 13/34/2
f 12/35/2 13/34/2 28/33/2
f 28/33/2 29/36/2 12/35/2
f 29/36/2 30/37/2 11/38/2
f 12/35/2 29/36/2 11/38/2
f 10/39/2 11/38/2 30/37/2
f 30/37/2 31/40/2 10/39/2
f 31/40/2 32/24/2 9/41/2
f 10/39/2 31/40/2 9/41/2
f 8/23/2 9/41/2 32/24/2
f 32/24/2 33/42/2 7/22/2
f 33/42/2 34/43/2 1/44/2
f 1/44/2 7/22/2 33/42/2
f 45/45/12 46/46/12 47/47/12
f 48/48/13 49/49/13 50/50/13
f 49/49/13 51/51/13 52/52/13
f 51/51/13 53/53/13 54/54/13
f 53/53/13 55/55/13 56/56/13
f 55/55/13 57/57/13 58/58/13
f 57/57/14 59/59/14 60/60/14
f 59/59/15 61/61/15 62/62/15
f 61/61/16 63/63/16 64/64/16
f 63/63/17 45/45/17 65/65/17
f 66/66/13 67/67/13 68/68/13
f 45/45/18 47/47/18 65/65/18
f 48/48/13 50/50/13 69/69/13
f 49/49/13 52/52/13 50/50/13
f 51/51/13 54/54/13 52/52/13
f 53/53/13 56/56/13 54/54/13
f 55/55/13 58/58/13 56/56/13
f 57/57/19 60/60/19 58/58/19
f 59/59/20 62/62/20 60/60/20
f 61/61/21 64/64/21 62/62/21
f 63/63/22 65/65/22 64/64/22
f 70/70/13 71/71/13 72/72/13
f 72/72/13 73/73/13 74/74/13
f 71/71/13 73/73/13 72/72/13
f 74/74/13 73/73/13 75/75/13
f 71/71/13 70/70/13 76/76/13
f 76/76/13 77/77/13 78/78/13
f 70/70/13 77/77/13 76/76/13
f 79/79/13 78/78/13 77/77/13
f 78/78/13 79/79/13 80/80/13
f 80/80/13 81/81/13 82/82/13
f 79/79/13 81/81/13 80/80/13
f 83/83/13 82/82/13 81/81/13
f 82/82/13 83/83/13 84/84/13
f 84/84/13 85/85/13 67/67/13
f 83/83/13 85/85/13 84/84/13
f 68/68/13 67/67/13 85/85/13
f 67/67/13 66/66/13 86/86/13
f 86/86/13 87/87/13 88/88/13
f 87/87/13 86/86/13 66/66/13
f 31/40/23 30/37/23 82/82/23 84/84/23
f 16/5/23 4/25/23 69/69/23 50/50/23
f 3/2/24 24/21/24 65/65/24 47/47/24
f 39/14/25 38/16/25 59/59/25 57/57/25
f 30/37/23 29/36/23 80/80/23 82/82/23
f 17/7/23 16/5/23 50/50/23 52/52/23
f 5/3/26 3/2/26 47/47/26 46/46/26
f 38/16/27 37/18/27 61/61/27 59/59/27
f 29/36/23 28/33/23 78/78/23 80/80/23
f 18/9/23 17/7/23 52/52/23 54/54/23
f 6/31/28 2/29/28 74/74/28 75/75/28
f 37/18/29 36/20/29 63/63/29 61/61/29
f 28/33/23 27/32/23 76/76/23 78/78/23
f 19/11/23 18/9/23 54/54/23 56/56/23
f 35/1/30 5/3/30 46/46/30 45/45/30
f 36/20/31 35/1/31 45/45/31 63/63/31
f 27/32/23 26/28/23 71/71/23 76/76/23
f 20/13/23 19/11/23 56/56/23 58/58/23
f 7/22/25 1/44/25 87/87/25 66/66/25
f 26/28/23 25/30/23 73/73/23 71/71/23
f 21/15/32 20/13/32 58/58/32 60/60/32
f 8/23/25 7/22/25 66/66/25 68/68/25
f 25/30/23 6/31/23 75/75/23 73/73/23
f 22/17/33 21/15/33 60/60/33 62/62/33
f 9/41/25 8/23/25 68/68/25 85/85/25
f 23/19/34 22/17/34 62/62/34 64/64/34
f 10/39/25 9/41/25 85/85/25 83/83/25
f 24/21/35 23/19/35 64/64/35 65/65/35
f 11/38/25 10/39/25 83/83/25 81/81/25
f 43/4/25 44/6/25 49/49/25 48/48/25
f 12/35/25 11/38/25 81/81/25 79/79/25
f 44/6/25 42/8/25 51/51/25 49/49/25
f 34/43/23 33/42/23 86/86/23 88/88/23
f 13/34/25 12/35/25 79/79/25 77/77/25
f 1/44/36 34/43/36 88/88/36 87/87/36
f 42/8/25 41/10/25 53/53/25 51/51/25
f 33/42/23 32/24/23 67/67/23 86/86/23
f 14/26/25 13/34/25 77/77/25 70/70/25
f 4/25/28 43/4/28 48/48/28 69/69/28
f 41/10/25 40/12/25 55/55/25 53/53/25
f 32/24/23 31/40/23 84/84/23 67/67/23
f 15/27/25 14/26/25 70/70/25 72/72/25
f 2/29/25 15/27/25 72/72/25 74/74/25
f 40/12/25 39/14/25 57/57/25 55/55/25
