# Blender v2.93.1 OBJ File: 'CardPackAnimated3.blend'
# www.blender.org
o Plane
v -0.700000 0.000000 1.167000
v 0.700000 0.000000 1.167000
v 2.000037 0.100706 -1.341120
v 0.707081 0.000000 -1.166440
v 2.068080 0.109929 -0.997819
v 0.700000 0.000000 -0.816900
v -0.560000 0.000000 1.167000
v -0.420000 0.000000 1.167000
v -0.280000 -0.000000 1.167000
v -0.140000 0.000000 1.167000
v -0.000000 0.000000 1.167000
v 0.140000 0.000000 1.167000
v 0.280000 0.000000 1.167000
v 0.420000 0.000000 1.167000
v 0.560000 0.000000 1.167000
v 0.781764 0.119393 -1.172405
v 0.904746 0.166582 -1.185562
v 1.040627 0.206217 -1.210736
v 1.191419 0.222721 -1.225851
v 1.333028 0.213862 -1.238135
v 1.464829 0.209498 -1.248459
v 1.602698 0.205395 -1.272270
v 1.741608 0.172945 -1.288958
v 1.869365 0.144284 -1.312305
v 0.560000 0.000000 -0.816900
v 0.420000 0.000000 -0.816900
v 0.280000 0.000000 -0.816900
v 0.140000 0.000000 -0.816900
v -0.000000 0.000000 -0.816900
v -0.140000 0.000000 -0.816900
v -0.280000 -0.000000 -0.816900
v -0.420000 0.000000 -0.816900
v -0.560000 0.000000 -0.816900
v -0.700000 0.000000 -0.816900
v 1.925760 0.100766 -0.973845
v 1.780363 0.114287 -0.948185
v 1.646199 0.134878 -0.936107
v 1.502345 0.156512 -0.906745
v 1.362331 0.160244 -0.894114
v 1.224934 0.147952 -0.885551
v 1.099034 0.146266 -0.871554
v 0.965003 0.136212 -0.842755
v 0.735717 0.000000 -0.817514
v 0.818283 0.111821 -0.824470
v 1.927350 0.110467 -0.972861
v 2.069320 0.119838 -0.998331
v 2.001278 0.110616 -1.341631
v 0.727475 0.005622 -0.816837
v 0.812901 0.119456 -0.823760
v 0.776382 0.127028 -1.171695
v 0.962985 0.145909 -0.841557
v 0.902728 0.176279 -1.184364
v 1.098061 0.156013 -0.869636
v 1.039654 0.215964 -1.208818
v 1.224756 0.157709 -0.883384
v 1.191241 0.232479 -1.223684
v 1.362948 0.170077 -0.892637
v 1.333645 0.223695 -1.236658
v 1.503503 0.166412 -0.905940
v 1.465747 0.219145 -1.246376
v 1.647520 0.144473 -0.934223
v 1.604019 0.214990 -1.270385
v 1.782315 0.123931 -0.946742
v 1.743560 0.182590 -1.287515
v 1.870955 0.153985 -1.311321
v -0.560000 -0.010000 1.167000
v -0.420000 -0.010000 -0.816900
v -0.420000 -0.010000 1.167000
v 0.698839 0.005622 -1.165764
v 0.420000 -0.010000 1.167000
v 0.420000 -0.010000 -0.816900
v 0.560000 -0.010000 1.167000
v 0.560000 -0.010000 -0.816900
v 0.700000 -0.010000 1.167000
v 0.700000 -0.010000 -0.816900
v 0.280000 -0.010000 -0.816900
v 0.280000 -0.010000 1.167000
v 0.140000 -0.010000 -0.816900
v 0.140000 -0.010000 1.167000
v -0.000000 -0.010000 -0.816900
v -0.000000 -0.010000 1.167000
v -0.140000 -0.010000 -0.816900
v -0.140000 -0.010000 1.167000
v -0.280000 -0.010000 -0.816900
v -0.280000 -0.010000 1.167000
v -0.560000 -0.010000 -0.816900
v -0.700000 -0.010000 1.167000
v -0.700000 -0.010000 -0.816900
vt 0.100000 0.850000
vt 0.000000 1.000000
vt 0.000000 0.850000
vt 1.000000 0.850000
vt 0.900000 1.000000
vt 0.900000 0.850000
vt 0.800000 1.000000
vt 0.800000 0.850000
vt 0.700000 1.000000
vt 0.700000 0.850000
vt 0.600000 1.000000
vt 0.600000 0.850000
vt 0.500000 1.000000
vt 0.500000 0.850000
vt 0.400000 1.000000
vt 0.400000 0.850000
vt 0.300000 1.000000
vt 0.300000 0.850000
vt 0.200000 1.000000
vt 0.200000 0.850000
vt 0.100000 1.000000
vt 0.100000 0.000000
vt 0.200000 0.000000
vt 0.200000 0.850000
vt 1.000000 1.000000
vt 0.800000 0.000000
vt 0.900000 0.000000
vt 0.800000 0.850000
vt 1.000000 0.000000
vt 0.900000 0.850000
vt 1.000000 0.850000
vt 0.700000 0.850000
vt 0.600000 0.850000
vt 0.700000 0.000000
vt 0.600000 0.000000
vt 0.500000 0.850000
vt 0.400000 0.850000
vt 0.500000 0.000000
vt 0.400000 0.000000
vt 0.300000 0.850000
vt 0.300000 0.000000
vt 0.100000 0.850000
vt 0.000000 0.850000
vt 0.000000 0.000000
vt 0.100000 0.850000
vt 0.000000 0.850000
vt 0.000000 1.000000
vt 1.000000 0.850000
vt 0.900000 0.850000
vt 0.900000 1.000000
vt 0.800000 0.850000
vt 0.800000 1.000000
vt 0.700000 0.850000
vt 0.700000 1.000000
vt 0.600000 0.850000
vt 0.600000 1.000000
vt 0.500000 0.850000
vt 0.500000 1.000000
vt 0.400000 0.850000
vt 0.400000 1.000000
vt 0.300000 0.850000
vt 0.300000 1.000000
vt 0.200000 0.850000
vt 0.200000 1.000000
vt 0.100000 1.000000
vt 0.100000 0.000000
vt 0.200000 0.850000
vt 0.200000 0.000000
vt 1.000000 1.000000
vt 0.800000 0.000000
vt 0.800000 0.850000
vt 0.900000 0.000000
vt 0.900000 0.850000
vt 1.000000 0.000000
vt 1.000000 0.850000
vt 0.700000 0.850000
vt 0.700000 0.000000
vt 0.600000 0.850000
vt 0.600000 0.000000
vt 0.500000 0.850000
vt 0.500000 0.000000
vt 0.400000 0.850000
vt 0.400000 0.000000
vt 0.300000 0.850000
vt 0.300000 0.000000
vt 0.100000 0.850000
vt 0.000000 0.000000
vt 0.000000 0.850000
vn 0.0665 -0.9977 0.0136
vn 0.7978 -0.5951 -0.0967
vn 0.1492 -0.9823 -0.1132
vn 0.0351 -0.9831 -0.1798
vn -0.0107 -0.9769 -0.2136
vn 0.0781 -0.9840 -0.1600
vn -0.0398 -0.9881 -0.1488
vn -0.1820 -0.9668 -0.1793
vn -0.1631 -0.9752 -0.1493
vn -0.1110 -0.9879 -0.1085
vn 0.0000 1.0000 0.0000
vn -0.3288 -0.9421 -0.0663
vn 0.8442 -0.5315 -0.0693
vn 0.3523 -0.9341 -0.0573
vn 0.2554 -0.9581 -0.1298
vn 0.0882 -0.9782 -0.1881
vn -0.0789 -0.9753 -0.2065
vn -0.0445 -0.9877 -0.1501
vn -0.0548 -0.9876 -0.1471
vn -0.2434 -0.9551 -0.1689
vn -0.2407 -0.9607 -0.1380
vn -0.0682 0.9976 -0.0133
vn -0.7933 0.6012 0.0963
vn -0.1592 0.9805 0.1149
vn -0.0361 0.9830 0.1800
vn 0.0101 0.9769 0.2136
vn -0.0774 0.9841 0.1600
vn 0.0398 0.9881 0.1486
vn 0.1825 0.9667 0.1792
vn 0.1625 0.9753 0.1494
vn 0.1112 0.9879 0.1085
vn 0.0000 -1.0000 0.0000
vn 0.3289 0.9420 0.0663
vn -0.8392 0.5394 0.0689
vn -0.3575 0.9321 0.0578
vn -0.2546 0.9583 0.1297
vn -0.0881 0.9782 0.1881
vn 0.0790 0.9753 0.2065
vn 0.0451 0.9876 0.1501
vn 0.0552 0.9876 0.1469
vn 0.2426 0.9553 0.1690
vn 0.2414 0.9606 0.1379
vn 0.0000 0.0000 -1.0000
vn -0.0924 0.0092 -0.9957
vn -0.2038 0.0529 -0.9776
vn 0.0882 -0.1223 0.9886
vn -0.1243 0.0560 -0.9907
vn 0.9731 -0.1316 -0.1893
vn 0.1712 -0.1560 0.9728
vn -0.2121 0.1228 -0.9695
vn 1.0000 0.0000 0.0000
vn 0.0622 -0.1804 0.9816
vn -0.1180 0.1969 -0.9733
vn 0.1742 -0.0488 0.9835
vn 0.1598 -0.1516 0.9754
vn -0.0757 0.1840 -0.9800
vn 0.0000 0.0000 1.0000
vn -0.0682 0.1846 -0.9805
vn -0.1603 0.2172 -0.9629
vn -0.0765 0.1826 -0.9802
vn -0.1471 0.1496 -0.9777
vn 0.0933 -0.0082 0.9956
vn 0.1296 -0.0537 0.9901
vn -1.0000 0.0000 0.0000
vn 0.2140 -0.1224 0.9691
vn -0.5603 -0.8270 0.0460
vn 0.1096 -0.1975 0.9741
vn 0.0798 -0.1840 0.9797
s off
f 35/1/1 3/2/1 5/3/1
f 43/4/2 16/5/2 44/6/2
f 44/6/3 17/7/3 42/8/3
f 42/8/4 18/9/4 41/10/4
f 41/10/5 19/11/5 40/12/5
f 40/12/6 20/13/6 39/14/6
f 39/14/7 21/15/7 38/16/7
f 38/16/8 22/17/8 37/18/8
f 37/18/9 23/19/9 36/20/9
f 36/20/10 24/21/10 35/1/10
f 7/22/11 8/23/11 32/24/11
f 35/1/12 24/21/12 3/2/12
f 43/4/13 4/25/13 16/5/13
f 44/6/14 16/5/14 17/7/14
f 42/8/15 17/7/15 18/9/15
f 41/10/16 18/9/16 19/11/16
f 40/12/17 19/11/17 20/13/17
f 39/14/18 20/13/18 21/15/18
f 38/16/19 21/15/19 22/17/19
f 37/18/20 22/17/20 23/19/20
f 36/20/21 23/19/21 24/21/21
f 14/26/11 15/27/11 26/28/11
f 15/27/11 2/29/11 25/30/11
f 26/28/11 15/27/11 25/30/11
f 2/29/11 6/31/11 25/30/11
f 26/28/11 27/32/11 14/26/11
f 27/32/11 28/33/11 13/34/11
f 14/26/11 27/32/11 13/34/11
f 12/35/11 13/34/11 28/33/11
f 28/33/11 29/36/11 12/35/11
f 29/36/11 30/37/11 11/38/11
f 12/35/11 29/36/11 11/38/11
f 10/39/11 11/38/11 30/37/11
f 30/37/11 31/40/11 10/39/11
f 31/40/11 32/24/11 9/41/11
f 10/39/11 31/40/11 9/41/11
f 8/23/11 9/41/11 32/24/11
f 32/24/11 33/42/11 7/22/11
f 33/42/11 34/43/11 1/44/11
f 1/44/11 7/22/11 33/42/11
f 45/45/22 46/46/22 47/47/22
f 48/48/23 49/49/23 50/50/23
f 49/49/24 51/51/24 52/52/24
f 51/51/25 53/53/25 54/54/25
f 53/53/26 55/55/26 56/56/26
f 55/55/27 57/57/27 58/58/27
f 57/57/28 59/59/28 60/60/28
f 59/59/29 61/61/29 62/62/29
f 61/61/30 63/63/30 64/64/30
f 63/63/31 45/45/31 65/65/31
f 66/66/32 67/67/32 68/68/32
f 45/45/33 47/47/33 65/65/33
f 48/48/34 50/50/34 69/69/34
f 49/49/35 52/52/35 50/50/35
f 51/51/36 54/54/36 52/52/36
f 53/53/37 56/56/37 54/54/37
f 55/55/38 58/58/38 56/56/38
f 57/57/39 60/60/39 58/58/39
f 59/59/40 62/62/40 60/60/40
f 61/61/41 64/64/41 62/62/41
f 63/63/42 65/65/42 64/64/42
f 70/70/32 71/71/32 72/72/32
f 72/72/32 73/73/32 74/74/32
f 71/71/32 73/73/32 72/72/32
f 74/74/32 73/73/32 75/75/32
f 71/71/32 70/70/32 76/76/32
f 76/76/32 77/77/32 78/78/32
f 70/70/32 77/77/32 76/76/32
f 79/79/32 78/78/32 77/77/32
f 78/78/32 79/79/32 80/80/32
f 80/80/32 81/81/32 82/82/32
f 79/79/32 81/81/32 80/80/32
f 83/83/32 82/82/32 81/81/32
f 82/82/32 83/83/32 84/84/32
f 84/84/32 85/85/32 67/67/32
f 83/83/32 85/85/32 84/84/32
f 68/68/32 67/67/32 85/85/32
f 67/67/32 66/66/32 86/86/32
f 86/86/32 87/87/32 88/88/32
f 87/87/32 86/86/32 66/66/32
f 31/40/43 30/37/43 82/82/43 84/84/43
f 16/5/44 4/25/44 69/69/44 50/50/44
f 3/2/45 24/21/45 65/65/45 47/47/45
f 39/14/46 38/16/46 59/59/46 57/57/46
f 30/37/43 29/36/43 80/80/43 82/82/43
f 17/7/47 16/5/47 50/50/47 52/52/47
f 5/3/48 3/2/48 47/47/48 46/46/48
f 38/16/49 37/18/49 61/61/49 59/59/49
f 29/36/43 28/33/43 78/78/43 80/80/43
f 18/9/50 17/7/50 52/52/50 54/54/50
f 6/31/51 2/29/51 74/74/51 75/75/51
f 37/18/52 36/20/52 63/63/52 61/61/52
f 28/33/43 27/32/43 76/76/43 78/78/43
f 19/11/53 18/9/53 54/54/53 56/56/53
f 35/1/54 5/3/54 46/46/54 45/45/54
f 36/20/55 35/1/55 45/45/55 63/63/55
f 27/32/43 26/28/43 71/71/43 76/76/43
f 20/13/56 19/11/56 56/56/56 58/58/56
f 7/22/57 1/44/57 87/87/57 66/66/57
f 26/28/43 25/30/43 73/73/43 71/71/43
f 21/15/58 20/13/58 58/58/58 60/60/58
f 8/23/57 7/22/57 66/66/57 68/68/57
f 25/30/43 6/31/43 75/75/43 73/73/43
f 22/17/59 21/15/59 60/60/59 62/62/59
f 9/41/57 8/23/57 68/68/57 85/85/57
f 23/19/60 22/17/60 62/62/60 64/64/60
f 10/39/57 9/41/57 85/85/57 83/83/57
f 24/21/61 23/19/61 64/64/61 65/65/61
f 11/38/57 10/39/57 83/83/57 81/81/57
f 43/4/62 44/6/62 49/49/62 48/48/62
f 12/35/57 11/38/57 81/81/57 79/79/57
f 44/6/63 42/8/63 51/51/63 49/49/63
f 34/43/43 33/42/43 86/86/43 88/88/43
f 13/34/57 12/35/57 79/79/57 77/77/57
f 1/44/64 34/43/64 88/88/64 87/87/64
f 42/8/65 41/10/65 53/53/65 51/51/65
f 33/42/43 32/24/43 67/67/43 86/86/43
f 14/26/57 13/34/57 77/77/57 70/70/57
f 4/25/66 43/4/66 48/48/66 69/69/66
f 41/10/67 40/12/67 55/55/67 53/53/67
f 32/24/43 31/40/43 84/84/43 67/67/43
f 15/27/57 14/26/57 70/70/57 72/72/57
f 2/29/57 15/27/57 72/72/57 74/74/57
f 40/12/68 39/14/68 57/57/68 55/55/68
