# Blender v2.93.1 OBJ File: 'CardPackAnimated3.blend'
# www.blender.org
o Plane
v -0.700000 0.000000 1.167000
v 0.700000 0.000000 1.167000
v 1.909254 0.116913 -1.415218
v 0.698636 -0.003033 -1.166666
v 2.005313 0.128366 -1.078748
v 0.700000 0.000000 -0.816900
v -0.560000 0.000000 1.167000
v -0.420000 0.000000 1.167000
v -0.280000 -0.000000 1.167000
v -0.140000 0.000000 1.167000
v -0.000000 0.000000 1.167000
v 0.140000 0.000000 1.167000
v 0.280000 0.000000 1.167000
v 0.420000 0.000000 1.167000
v 0.560000 0.000000 1.167000
v 0.726163 0.136165 -1.170558
v 0.842886 0.194013 -1.184882
v 0.971445 0.242467 -1.209981
v 1.115358 0.256960 -1.235906
v 1.255284 0.245024 -1.259587
v 1.385686 0.237806 -1.280569
v 1.521037 0.230580 -1.315490
v 1.657444 0.195068 -1.343050
v 1.782269 0.163506 -1.376382
v 0.560000 0.000000 -0.816900
v 0.420000 0.000000 -0.816900
v 0.280000 0.000000 -0.816900
v 0.140000 0.000000 -0.816900
v -0.000000 0.000000 -0.816900
v -0.140000 0.000000 -0.816900
v -0.280000 -0.000000 -0.816900
v -0.420000 0.000000 -0.816900
v -0.560000 0.000000 -0.816900
v -0.700000 0.000000 -0.816900
v 1.865276 0.122425 -1.043138
v 1.722763 0.139243 -1.005876
v 1.590472 0.162751 -0.983153
v 1.449959 0.187687 -0.942427
v 1.311549 0.194468 -0.918467
v 1.175096 0.185132 -0.898578
v 1.044794 0.187637 -0.872547
v 0.906622 0.170948 -0.842138
v 0.719840 0.003325 -0.817266
v 0.760582 0.135348 -0.822483
v 1.867134 0.132101 -1.042407
v 2.006704 0.138242 -1.079482
v 1.910646 0.126788 -1.415951
v 0.710155 0.005757 -0.816723
v 0.754083 0.141269 -0.821875
v 0.719664 0.142086 -1.169951
v 0.903922 0.180479 -0.841013
v 0.840185 0.203544 -1.183757
v 1.043721 0.197352 -0.870712
v 0.970372 0.252182 -1.208145
v 1.175289 0.194914 -0.896524
v 1.115552 0.266742 -1.233852
v 1.312480 0.204302 -0.917166
v 1.256215 0.254857 -1.258286
v 1.451376 0.197569 -0.941840
v 1.386963 0.247453 -1.278686
v 1.592133 0.172336 -0.981500
v 1.522698 0.240165 -1.313838
v 1.725018 0.148859 -1.004716
v 1.659700 0.204685 -1.341890
v 1.784127 0.173182 -1.375651
v -0.560000 -0.010000 1.167000
v -0.420000 -0.010000 -0.816900
v -0.420000 -0.010000 1.167000
v 0.688951 -0.000602 -1.166122
v 0.420000 -0.010000 1.167000
v 0.420000 -0.010000 -0.816900
v 0.560000 -0.010000 1.167000
v 0.560000 -0.010000 -0.816900
v 0.700000 -0.010000 1.167000
v 0.700000 -0.010000 -0.816900
v 0.280000 -0.010000 -0.816900
v 0.280000 -0.010000 1.167000
v 0.140000 -0.010000 -0.816900
v 0.140000 -0.010000 1.167000
v -0.000000 -0.010000 -0.816900
v -0.000000 -0.010000 1.167000
v -0.140000 -0.010000 -0.816900
v -0.140000 -0.010000 1.167000
v -0.280000 -0.010000 -0.816900
v -0.280000 -0.010000 1.167000
v -0.560000 -0.010000 -0.816900
v -0.700000 -0.010000 1.167000
v -0.700000 -0.010000 -0.816900
vt 0.100000 0.850000
vt 0.000000 1.000000
vt 0.000000 0.850000
vt 1.000000 0.850000
vt 0.900000 1.000000
vt 0.900000 0.850000
vt 0.800000 1.000000
vt 0.800000 0.850000
vt 0.700000 1.000000
vt 0.700000 0.850000
vt 0.600000 1.000000
vt 0.600000 0.850000
vt 0.500000 1.000000
vt 0.500000 0.850000
vt 0.400000 1.000000
vt 0.400000 0.850000
vt 0.300000 1.000000
vt 0.300000 0.850000
vt 0.200000 1.000000
vt 0.200000 0.850000
vt 0.100000 1.000000
vt 0.100000 0.000000
vt 0.200000 0.000000
vt 0.200000 0.850000
vt 1.000000 1.000000
vt 0.800000 0.000000
vt 0.900000 0.000000
vt 0.800000 0.850000
vt 1.000000 0.000000
vt 0.900000 0.850000
vt 1.000000 0.850000
vt 0.700000 0.850000
vt 0.600000 0.850000
vt 0.700000 0.000000
vt 0.600000 0.000000
vt 0.500000 0.850000
vt 0.400000 0.850000
vt 0.500000 0.000000
vt 0.400000 0.000000
vt 0.300000 0.850000
vt 0.300000 0.000000
vt 0.100000 0.850000
vt 0.000000 0.850000
vt 0.000000 0.000000
vt 0.100000 0.850000
vt 0.000000 0.850000
vt 0.000000 1.000000
vt 1.000000 0.850000
vt 0.900000 0.850000
vt 0.900000 1.000000
vt 0.800000 0.850000
vt 0.800000 1.000000
vt 0.700000 0.850000
vt 0.700000 1.000000
vt 0.600000 0.850000
vt 0.600000 1.000000
vt 0.500000 0.850000
vt 0.500000 1.000000
vt 0.400000 0.850000
vt 0.400000 1.000000
vt 0.300000 0.850000
vt 0.300000 1.000000
vt 0.200000 0.850000
vt 0.200000 1.000000
vt 0.100000 1.000000
vt 0.100000 0.000000
vt 0.200000 0.850000
vt 0.200000 0.000000
vt 1.000000 1.000000
vt 0.800000 0.000000
vt 0.800000 0.850000
vt 0.900000 0.000000
vt 0.900000 0.850000
vt 1.000000 0.000000
vt 1.000000 0.850000
vt 0.700000 0.850000
vt 0.700000 0.000000
vt 0.600000 0.850000
vt 0.600000 0.000000
vt 0.500000 0.850000
vt 0.500000 0.000000
vt 0.400000 0.850000
vt 0.400000 0.000000
vt 0.300000 0.850000
vt 0.300000 0.000000
vt 0.100000 0.850000
vt 0.000000 0.000000
vt 0.000000 0.850000
vn 0.0476 -0.9987 0.0204
vn 0.9502 -0.2970 -0.0947
vn 0.2219 -0.9692 -0.1065
vn 0.0796 -0.9810 -0.1767
vn -0.0584 -0.9785 -0.1980
vn 0.0451 -0.9871 -0.1537
vn -0.0714 -0.9885 -0.1329
vn -0.2152 -0.9647 -0.1519
vn -0.1941 -0.9732 -0.1235
vn -0.1391 -0.9864 -0.0869
vn 0.0000 1.0000 0.0000
vn -0.3518 -0.9357 -0.0277
vn 0.9792 -0.1952 -0.0559
vn 0.4391 -0.8973 -0.0455
vn 0.3286 -0.9363 -0.1241
vn 0.0675 -0.9824 -0.1743
vn -0.1149 -0.9755 -0.1874
vn -0.0762 -0.9881 -0.1339
vn -0.0863 -0.9878 -0.1300
vn -0.2753 -0.9516 -0.1367
vn -0.2703 -0.9569 -0.1061
vn -0.0492 0.9986 -0.0199
vn -0.9460 0.3102 0.0943
vn -0.2385 0.9650 0.1093
vn -0.0808 0.9809 0.1770
vn 0.0570 0.9785 0.1983
vn -0.0444 0.9871 0.1536
vn 0.0715 0.9886 0.1327
vn 0.2157 0.9646 0.1518
vn 0.1935 0.9733 0.1236
vn 0.1394 0.9864 0.0869
vn 0.0000 -1.0000 0.0000
vn 0.3519 0.9356 0.0277
vn -0.9758 0.2115 0.0554
vn -0.4495 0.8920 0.0465
vn -0.3268 0.9369 0.1238
vn -0.0677 0.9824 0.1743
vn 0.1150 0.9755 0.1874
vn 0.0768 0.9880 0.1338
vn 0.0866 0.9878 0.1297
vn 0.2745 0.9518 0.1369
vn 0.2710 0.9567 0.1059
vn 0.0000 0.0000 -1.0000
vn -0.0768 -0.0114 -0.9970
vn -0.2820 0.0468 -0.9583
vn 0.1663 -0.1136 0.9795
vn -0.1334 0.0317 -0.9906
vn 0.9515 -0.1538 -0.2664
vn 0.2470 -0.1492 0.9575
vn -0.2247 0.1050 -0.9688
vn 1.0000 0.0000 0.0000
vn 0.1387 -0.1712 0.9754
vn -0.1907 0.1838 -0.9643
vn 0.2531 -0.0419 0.9665
vn 0.2360 -0.1445 0.9609
vn -0.1519 0.1751 -0.9728
vn 0.0000 0.0000 1.0000
vn -0.1445 0.1755 -0.9738
vn -0.2341 0.2102 -0.9492
vn -0.1528 0.1737 -0.9729
vn -0.2236 0.1422 -0.9643
vn 0.0781 0.0139 0.9968
vn 0.1372 -0.0293 0.9901
vn -1.0000 0.0000 0.0000
vn 0.2223 -0.1055 0.9692
vn -0.2416 -0.9698 0.0323
vn 0.1875 -0.1840 0.9649
vn 0.1560 -0.1752 0.9721
s off
f 35/1/1 3/2/1 5/3/1
f 43/4/2 16/5/2 44/6/2
f 44/6/3 17/7/3 42/8/3
f 42/8/4 18/9/4 41/10/4
f 41/10/5 19/11/5 40/12/5
f 40/12/6 20/13/6 39/14/6
f 39/14/7 21/15/7 38/16/7
f 38/16/8 22/17/8 37/18/8
f 37/18/9 23/19/9 36/20/9
f 36/20/10 24/21/10 35/1/10
f 7/22/11 8/23/11 32/24/11
f 35/1/12 24/21/12 3/2/12
f 43/4/13 4/25/13 16/5/13
f 44/6/14 16/5/14 17/7/14
f 42/8/15 17/7/15 18/9/15
f 41/10/16 18/9/16 19/11/16
f 40/12/17 19/11/17 20/13/17
f 39/14/18 20/13/18 21/15/18
f 38/16/19 21/15/19 22/17/19
f 37/18/20 22/17/20 23/19/20
f 36/20/21 23/19/21 24/21/21
f 14/26/11 15/27/11 26/28/11
f 15/27/11 2/29/11 25/30/11
f 26/28/11 15/27/11 25/30/11
f 2/29/11 6/31/11 25/30/11
f 26/28/11 27/32/11 14/26/11
f 27/32/11 28/33/11 13/34/11
f 14/26/11 27/32/11 13/34/11
f 12/35/11 13/34/11 28/33/11
f 28/33/11 29/36/11 12/35/11
f 29/36/11 30/37/11 11/38/11
f 12/35/11 29/36/11 11/38/11
f 10/39/11 11/38/11 30/37/11
f 30/37/11 31/40/11 10/39/11
f 31/40/11 32/24/11 9/41/11
f 10/39/11 31/40/11 9/41/11
f 8/23/11 9/41/11 32/24/11
f 32/24/11 33/42/11 7/22/11
f 33/42/11 34/43/11 1/44/11
f 1/44/11 7/22/11 33/42/11
f 45/45/22 46/46/22 47/47/22
f 48/48/23 49/49/23 50/50/23
f 49/49/24 51/51/24 52/52/24
f 51/51/25 53/53/25 54/54/25
f 53/53/26 55/55/26 56/56/26
f 55/55/27 57/57/27 58/58/27
f 57/57/28 59/59/28 60/60/28
f 59/59/29 61/61/29 62/62/29
f 61/61/30 63/63/30 64/64/30
f 63/63/31 45/45/31 65/65/31
f 66/66/32 67/67/32 68/68/32
f 45/45/33 47/47/33 65/65/33
f 48/48/34 50/50/34 69/69/34
f 49/49/35 52/52/35 50/50/35
f 51/51/36 54/54/36 52/52/36
f 53/53/37 56/56/37 54/54/37
f 55/55/38 58/58/38 56/56/38
f 57/57/39 60/60/39 58/58/39
f 59/59/40 62/62/40 60/60/40
f 61/61/41 64/64/41 62/62/41
f 63/63/42 65/65/42 64/64/42
f 70/70/32 71/71/32 72/72/32
f 72/72/32 73/73/32 74/74/32
f 71/71/32 73/73/32 72/72/32
f 74/74/32 73/73/32 75/75/32
f 71/71/32 70/70/32 76/76/32
f 76/76/32 77/77/32 78/78/32
f 70/70/32 77/77/32 76/76/32
f 79/79/32 78/78/32 77/77/32
f 78/78/32 79/79/32 80/80/32
f 80/80/32 81/81/32 82/82/32
f 79/79/32 81/81/32 80/80/32
f 83/83/32 82/82/32 81/81/32
f 82/82/32 83/83/32 84/84/32
f 84/84/32 85/85/32 67/67/32
f 83/83/32 85/85/32 84/84/32
f 68/68/32 67/67/32 85/85/32
f 67/67/32 66/66/32 86/86/32
f 86/86/32 87/87/32 88/88/32
f 87/87/32 86/86/32 66/66/32
f 31/40/43 30/37/43 82/82/43 84/84/43
f 16/5/44 4/25/44 69/69/44 50/50/44
f 3/2/45 24/21/45 65/65/45 47/47/45
f 39/14/46 38/16/46 59/59/46 57/57/46
f 30/37/43 29/36/43 80/80/43 82/82/43
f 17/7/47 16/5/47 50/50/47 52/52/47
f 5/3/48 3/2/48 47/47/48 46/46/48
f 38/16/49 37/18/49 61/61/49 59/59/49
f 29/36/43 28/33/43 78/78/43 80/80/43
f 18/9/50 17/7/50 52/52/50 54/54/50
f 6/31/51 2/29/51 74/74/51 75/75/51
f 37/18/52 36/20/52 63/63/52 61/61/52
f 28/33/43 27/32/43 76/76/43 78/78/43
f 19/11/53 18/9/53 54/54/53 56/56/53
f 35/1/54 5/3/54 46/46/54 45/45/54
f 36/20/55 35/1/55 45/45/55 63/63/55
f 27/32/43 26/28/43 71/71/43 76/76/43
f 20/13/56 19/11/56 56/56/56 58/58/56
f 7/22/57 1/44/57 87/87/57 66/66/57
f 26/28/43 25/30/43 73/73/43 71/71/43
f 21/15/58 20/13/58 58/58/58 60/60/58
f 8/23/57 7/22/57 66/66/57 68/68/57
f 25/30/43 6/31/43 75/75/43 73/73/43
f 22/17/59 21/15/59 60/60/59 62/62/59
f 9/41/57 8/23/57 68/68/57 85/85/57
f 23/19/60 22/17/60 62/62/60 64/64/60
f 10/39/57 9/41/57 85/85/57 83/83/57
f 24/21/61 23/19/61 64/64/61 65/65/61
f 11/38/57 10/39/57 83/83/57 81/81/57
f 43/4/62 44/6/62 49/49/62 48/48/62
f 12/35/57 11/38/57 81/81/57 79/79/57
f 44/6/63 42/8/63 51/51/63 49/49/63
f 34/43/43 33/42/43 86/86/43 88/88/43
f 13/34/57 12/35/57 79/79/57 77/77/57
f 1/44/64 34/43/64 88/88/64 87/87/64
f 42/8/65 41/10/65 53/53/65 51/51/65
f 33/42/43 32/24/43 67/67/43 86/86/43
f 14/26/57 13/34/57 77/77/57 70/70/57
f 4/25/66 43/4/66 48/48/66 69/69/66
f 41/10/67 40/12/67 55/55/67 53/53/67
f 32/24/43 31/40/43 84/84/43 67/67/43
f 15/27/57 14/26/57 70/70/57 72/72/57
f 2/29/57 15/27/57 72/72/57 74/74/57
f 40/12/68 39/14/68 57/57/68 55/55/68
