# Blender v2.93.1 OBJ File: 'CardPackAnimated3.blend'
# www.blender.org
o Plane
v -0.700000 0.000000 1.167000
v 0.700000 0.000000 1.167000
v 0.792867 0.293893 -1.327735
v 0.700000 0.000000 -1.167000
v 0.893894 0.360181 -0.999149
v 0.700000 0.000000 -0.816900
v -0.560000 0.000000 1.167000
v -0.420000 0.000000 1.167000
v -0.280000 -0.000000 1.167000
v -0.140000 0.000000 1.167000
v -0.000000 0.000000 1.167000
v 0.140000 0.000000 1.167000
v 0.280000 0.000000 1.167000
v 0.420000 0.000000 1.167000
v 0.560000 0.000000 1.167000
v 0.560000 0.000000 -1.167000
v 0.420000 0.000000 -1.167000
v 0.277219 0.000367 -1.166953
v 0.149400 0.079272 -1.161748
v 0.152167 0.214761 -1.164616
v 0.267572 0.288002 -1.184864
v 0.396678 0.313242 -1.217429
v 0.531970 0.311561 -1.248075
v 0.659523 0.309938 -1.285705
v 0.560000 0.000000 -0.816900
v 0.420000 0.000000 -0.816900
v 0.280000 0.000000 -0.816900
v 0.140000 0.000000 -0.816900
v -0.000000 0.000000 -0.816900
v -0.140000 0.000000 -0.816900
v -0.280000 -0.000000 -0.816900
v -0.420000 0.000000 -0.816900
v -0.560000 0.000000 -0.816900
v -0.700000 0.000000 -0.816900
v 0.761436 0.322033 -0.955408
v 0.620754 0.305314 -0.911700
v 0.482616 0.296599 -0.881844
v 0.335835 0.283764 -0.843518
v 0.209059 0.224146 -0.819338
v 0.182507 0.080821 -0.813900
v 0.283049 -0.000402 -0.816952
v 0.420000 0.000000 -0.816900
v 0.700000 0.000000 -0.816900
v 0.560000 0.000000 -0.816900
v 0.760750 0.331887 -0.955556
v 0.892657 0.369975 -1.000744
v 0.791630 0.303687 -1.329331
v 0.700000 -0.010000 -0.816900
v 0.560000 -0.010000 -0.816900
v 0.560000 -0.010000 -1.167000
v 0.420000 -0.010000 -0.816900
v 0.420000 -0.010000 -1.167000
v 0.280193 -0.009505 -0.816875
v 0.274362 -0.008736 -1.166876
v 0.174738 0.077239 -0.813055
v 0.141630 0.075690 -1.160903
v 0.202102 0.229227 -0.818405
v 0.145210 0.219842 -1.163684
v 0.331748 0.292884 -0.843190
v 0.264768 0.297371 -1.183561
v 0.481651 0.306389 -0.881093
v 0.395713 0.323031 -1.216678
v 0.620481 0.315252 -0.911439
v 0.531698 0.321499 -1.247813
v 0.658837 0.319792 -1.285854
v -0.560000 -0.010000 1.167000
v -0.420000 -0.010000 -0.816900
v -0.420000 -0.010000 1.167000
v 0.700000 -0.010000 -1.167000
v 0.420000 -0.010000 1.167000
v 0.420000 -0.010000 -0.816900
v 0.560000 -0.010000 1.167000
v 0.560000 -0.010000 -0.816900
v 0.700000 -0.010000 1.167000
v 0.700000 -0.010000 -0.816900
v 0.280000 -0.010000 -0.816900
v 0.280000 -0.010000 1.167000
v 0.140000 -0.010000 -0.816900
v 0.140000 -0.010000 1.167000
v -0.000000 -0.010000 -0.816900
v -0.000000 -0.010000 1.167000
v -0.140000 -0.010000 -0.816900
v -0.140000 -0.010000 1.167000
v -0.280000 -0.010000 -0.816900
v -0.280000 -0.010000 1.167000
v -0.560000 -0.010000 -0.816900
v -0.700000 -0.010000 1.167000
v -0.700000 -0.010000 -0.816900
vt 0.100000 0.850000
vt 0.000000 1.000000
vt 0.000000 0.850000
vt 1.000000 0.850000
vt 0.900000 1.000000
vt 0.900000 0.850000
vt 0.800000 1.000000
vt 0.800000 0.850000
vt 0.700000 1.000000
vt 0.700000 0.850000
vt 0.600000 1.000000
vt 0.600000 0.850000
vt 0.500000 1.000000
vt 0.500000 0.850000
vt 0.400000 1.000000
vt 0.400000 0.850000
vt 0.300000 1.000000
vt 0.300000 0.850000
vt 0.200000 1.000000
vt 0.200000 0.850000
vt 0.100000 1.000000
vt 0.100000 0.000000
vt 0.200000 0.000000
vt 0.200000 0.850000
vt 1.000000 1.000000
vt 0.800000 0.000000
vt 0.900000 0.000000
vt 0.800000 0.850000
vt 1.000000 0.000000
vt 0.900000 0.850000
vt 1.000000 0.850000
vt 0.700000 0.850000
vt 0.600000 0.850000
vt 0.700000 0.000000
vt 0.600000 0.000000
vt 0.500000 0.850000
vt 0.400000 0.850000
vt 0.500000 0.000000
vt 0.400000 0.000000
vt 0.300000 0.850000
vt 0.300000 0.000000
vt 0.100000 0.850000
vt 0.000000 0.850000
vt 0.000000 0.000000
vt 0.100000 0.850000
vt 0.000000 0.850000
vt 0.000000 1.000000
vt 1.000000 0.850000
vt 0.900000 0.850000
vt 0.900000 1.000000
vt 0.800000 0.850000
vt 0.800000 1.000000
vt 0.700000 0.850000
vt 0.700000 1.000000
vt 0.600000 0.850000
vt 0.600000 1.000000
vt 0.500000 0.850000
vt 0.500000 1.000000
vt 0.400000 0.850000
vt 0.400000 1.000000
vt 0.300000 0.850000
vt 0.300000 1.000000
vt 0.200000 0.850000
vt 0.200000 1.000000
vt 0.100000 1.000000
vt 0.100000 0.000000
vt 0.200000 0.850000
vt 0.200000 0.000000
vt 1.000000 1.000000
vt 0.800000 0.000000
vt 0.800000 0.850000
vt 0.900000 0.000000
vt 0.900000 0.850000
vt 1.000000 0.000000
vt 1.000000 0.850000
vt 0.700000 0.850000
vt 0.700000 0.000000
vt 0.600000 0.850000
vt 0.600000 0.000000
vt 0.500000 0.850000
vt 0.500000 0.000000
vt 0.400000 0.850000
vt 0.400000 0.000000
vt 0.300000 0.850000
vt 0.300000 0.000000
vt 0.100000 0.850000
vt 0.000000 0.000000
vt 0.000000 0.850000
vn 0.3050 -0.9474 0.0973
vn 0.0000 1.0000 0.0000
vn -0.0029 1.0000 0.0022
vn 0.6260 0.7773 -0.0630
vn 0.9703 -0.1856 -0.1548
vn 0.4091 -0.9077 -0.0931
vn 0.0695 -0.9953 -0.0672
vn 0.0558 -0.9979 -0.0333
vn 0.1180 -0.9930 -0.0000
vn -0.0984 -0.9929 0.0667
vn 0.0026 1.0000 0.0000
vn 0.5251 0.8510 -0.0069
vn 0.9953 -0.0223 -0.0946
vn 0.5268 -0.8476 -0.0638
vn 0.1799 -0.9825 -0.0482
vn -0.0223 -0.9988 -0.0438
vn -0.0169 -0.9998 -0.0141
vn -0.3066 0.9469 -0.0968
vn 0.0000 -1.0000 0.0000
vn -0.0035 -1.0000 -0.0021
vn -0.6326 -0.7719 0.0636
vn -0.9713 0.1803 0.1551
vn -0.4240 0.9006 0.0953
vn -0.0725 0.9951 0.0679
vn -0.0564 0.9978 0.0334
vn -0.1178 0.9930 -0.0000
vn 0.0986 0.9929 -0.0668
vn -0.0087 -1.0000 0.0000
vn -0.5365 -0.8439 0.0071
vn -0.9952 0.0265 0.0946
vn -0.5353 0.8422 0.0653
vn -0.1803 0.9824 0.0484
vn 0.0213 0.9988 0.0441
vn 0.0176 0.9997 0.0139
vn 0.0000 0.0000 -1.0000
vn -0.3164 -0.1145 -0.9417
vn 0.1675 0.0428 0.9849
vn 0.9494 0.0700 -0.3060
vn 0.2479 0.0110 0.9687
vn -0.0006 -0.0039 -1.0000
vn 1.0000 0.0000 0.0000
vn 0.2145 -0.0366 0.9760
vn -0.0579 -0.0241 -0.9980
vn 0.2875 0.1126 0.9511
vn 0.2974 0.0089 0.9547
vn -0.1216 -0.0173 -0.9924
vn 0.0000 0.0000 1.0000
vn -0.1851 0.0270 -0.9824
vn -0.2544 0.0535 -0.9656
vn -0.2215 0.0361 -0.9745
vn -0.2849 -0.0083 -0.9585
vn -1.0000 0.0000 0.0000
vn -0.0001 0.0041 1.0000
vn 0.0549 0.0266 0.9981
vn 0.1213 0.0141 0.9925
s off
f 35/1/1 3/2/1 5/3/1
f 43/4/2 16/5/2 44/6/2
f 44/6/2 17/7/2 42/8/2
f 42/8/3 18/9/3 41/10/3
f 41/10/4 19/11/4 40/12/4
f 40/12/5 20/13/5 39/14/5
f 39/14/6 21/15/6 38/16/6
f 38/16/7 22/17/7 37/18/7
f 37/18/8 23/19/8 36/20/8
f 36/20/9 24/21/9 35/1/9
f 7/22/2 8/23/2 32/24/2
f 35/1/10 24/21/10 3/2/10
f 43/4/2 4/25/2 16/5/2
f 44/6/2 16/5/2 17/7/2
f 42/8/11 17/7/11 18/9/11
f 41/10/12 18/9/12 19/11/12
f 40/12/13 19/11/13 20/13/13
f 39/14/14 20/13/14 21/15/14
f 38/16/15 21/15/15 22/17/15
f 37/18/16 22/17/16 23/19/16
f 36/20/17 23/19/17 24/21/17
f 14/26/2 15/27/2 26/28/2
f 15/27/2 2/29/2 25/30/2
f 26/28/2 15/27/2 25/30/2
f 2/29/2 6/31/2 25/30/2
f 26/28/2 27/32/2 14/26/2
f 27/32/2 28/33/2 13/34/2
f 14/26/2 27/32/2 13/34/2
f 12/35/2 13/34/2 28/33/2
f 28/33/2 29/36/2 12/35/2
f 29/36/2 30/37/2 11/38/2
f 12/35/2 29/36/2 11/38/2
f 10/39/2 11/38/2 30/37/2
f 30/37/2 31/40/2 10/39/2
f 31/40/2 32/24/2 9/41/2
f 10/39/2 31/40/2 9/41/2
f 8/23/2 9/41/2 32/24/2
f 32/24/2 33/42/2 7/22/2
f 33/42/2 34/43/2 1/44/2
f 1/44/2 7/22/2 33/42/2
f 45/45/18 46/46/18 47/47/18
f 48/48/19 49/49/19 50/50/19
f 49/49/19 51/51/19 52/52/19
f 51/51/20 53/53/20 54/54/20
f 53/53/21 55/55/21 56/56/21
f 55/55/22 57/57/22 58/58/22
f 57/57/23 59/59/23 60/60/23
f 59/59/24 61/61/24 62/62/24
f 61/61/25 63/63/25 64/64/25
f 63/63/26 45/45/26 65/65/26
f 66/66/19 67/67/19 68/68/19
f 45/45/27 47/47/27 65/65/27
f 48/48/19 50/50/19 69/69/19
f 49/49/19 52/52/19 50/50/19
f 51/51/28 54/54/28 52/52/28
f 53/53/29 56/56/29 54/54/29
f 55/55/30 58/58/30 56/56/30
f 57/57/31 60/60/31 58/58/31
f 59/59/32 62/62/32 60/60/32
f 61/61/33 64/64/33 62/62/33
f 63/63/34 65/65/34 64/64/34
f 70/70/19 71/71/19 72/72/19
f 72/72/19 73/73/19 74/74/19
f 71/71/19 73/73/19 72/72/19
f 74/74/19 73/73/19 75/75/19
f 71/71/19 70/70/19 76/76/19
f 76/76/19 77/77/19 78/78/19
f 70/70/19 77/77/19 76/76/19
f 79/79/19 78/78/19 77/77/19
f 78/78/19 79/79/19 80/80/19
f 80/80/19 81/81/19 82/82/19
f 79/79/19 81/81/19 80/80/19
f 83/83/19 82/82/19 81/81/19
f 82/82/19 83/83/19 84/84/19
f 84/84/19 85/85/19 67/67/19
f 83/83/19 85/85/19 84/84/19
f 68/68/19 67/67/19 85/85/19
f 67/67/19 66/66/19 86/86/19
f 86/86/19 87/87/19 88/88/19
f 87/87/19 86/86/19 66/66/19
f 31/40/35 30/37/35 82/82/35 84/84/35
f 16/5/35 4/25/35 69/69/35 50/50/35
f 3/2/36 24/21/36 65/65/36 47/47/36
f 39/14/37 38/16/37 59/59/37 57/57/37
f 30/37/35 29/36/35 80/80/35 82/82/35
f 17/7/35 16/5/35 50/50/35 52/52/35
f 5/3/38 3/2/38 47/47/38 46/46/38
f 38/16/39 37/18/39 61/61/39 59/59/39
f 29/36/35 28/33/35 78/78/35 80/80/35
f 18/9/40 17/7/40 52/52/40 54/54/40
f 6/31/41 2/29/41 74/74/41 75/75/41
f 37/18/42 36/20/42 63/63/42 61/61/42
f 28/33/35 27/32/35 76/76/35 78/78/35
f 19/11/43 18/9/43 54/54/43 56/56/43
f 35/1/44 5/3/44 46/46/44 45/45/44
f 36/20/45 35/1/45 45/45/45 63/63/45
f 27/32/35 26/28/35 71/71/35 76/76/35
f 20/13/46 19/11/46 56/56/46 58/58/46
f 7/22/47 1/44/47 87/87/47 66/66/47
f 26/28/35 25/30/35 73/73/35 71/71/35
f 21/15/48 20/13/48 58/58/48 60/60/48
f 8/23/47 7/22/47 66/66/47 68/68/47
f 25/30/35 6/31/35 75/75/35 73/73/35
f 22/17/49 21/15/49 60/60/49 62/62/49
f 9/41/47 8/23/47 68/68/47 85/85/47
f 23/19/50 22/17/50 62/62/50 64/64/50
f 10/39/47 9/41/47 85/85/47 83/83/47
f 24/21/51 23/19/51 64/64/51 65/65/51
f 11/38/47 10/39/47 83/83/47 81/81/47
f 43/4/47 44/6/47 49/49/47 48/48/47
f 12/35/47 11/38/47 81/81/47 79/79/47
f 44/6/47 42/8/47 51/51/47 49/49/47
f 34/43/35 33/42/35 86/86/35 88/88/35
f 13/34/47 12/35/47 79/79/47 77/77/47
f 1/44/52 34/43/52 88/88/52 87/87/52
f 42/8/53 41/10/53 53/53/53 51/51/53
f 33/42/35 32/24/35 67/67/35 86/86/35
f 14/26/47 13/34/47 77/77/47 70/70/47
f 4/25/41 43/4/41 48/48/41 69/69/41
f 41/10/54 40/12/54 55/55/54 53/53/54
f 32/24/35 31/40/35 84/84/35 67/67/35
f 15/27/47 14/26/47 70/70/47 72/72/47
f 2/29/47 15/27/47 72/72/47 74/74/47
f 40/12/55 39/14/55 57/57/55 55/55/55
