# Blender v2.93.1 OBJ File: 'CardPackAnimated3.blend'
# www.blender.org
o Plane
v -0.700000 0.000000 1.167000
v 0.700000 0.000000 1.167000
v 0.269559 0.242984 -1.259068
v 0.700000 0.000000 -1.167000
v 0.354268 0.304297 -0.924949
v 0.700000 0.000000 -0.816900
v -0.560000 0.000000 1.167000
v -0.420000 0.000000 1.167000
v -0.280000 -0.000000 1.167000
v -0.140000 0.000000 1.167000
v -0.000000 0.000000 1.167000
v 0.140000 0.000000 1.167000
v 0.280000 0.000000 1.167000
v 0.420000 0.000000 1.167000
v 0.560000 0.000000 1.167000
v 0.560000 0.000000 -1.167000
v 0.420000 0.000000 -1.167000
v 0.280000 0.000000 -1.167000
v 0.140000 0.000000 -1.167000
v 0.000427 -0.000031 -1.166999
v -0.139370 0.082087 -1.163903
v -0.136164 0.232931 -1.162952
v -0.006222 0.295296 -1.193474
v 0.134544 0.272431 -1.226702
v 0.560000 0.000000 -0.816900
v 0.420000 0.000000 -0.816900
v 0.280000 0.000000 -0.816900
v 0.140000 0.000000 -0.816900
v -0.000000 0.000000 -0.816900
v -0.140000 0.000000 -0.816900
v -0.280000 -0.000000 -0.816900
v -0.420000 0.000000 -0.816900
v -0.560000 0.000000 -0.816900
v -0.700000 0.000000 -0.816900
v 0.217525 0.284035 -0.890442
v 0.086404 0.247332 -0.859644
v -0.032852 0.198278 -0.831061
v -0.116256 0.079445 -0.817521
v -0.000468 0.000034 -0.816901
v 0.140000 0.000000 -0.816900
v 0.280000 0.000000 -0.816900
v 0.420000 0.000000 -0.816900
v 0.700000 0.000000 -0.816900
v 0.560000 0.000000 -0.816900
v 0.217444 0.293920 -0.890766
v 0.354241 0.314134 -0.926747
v 0.269532 0.252821 -1.260866
v 0.700000 -0.010000 -0.816900
v 0.560000 -0.010000 -0.816900
v 0.560000 -0.010000 -1.167000
v 0.420000 -0.010000 -0.816900
v 0.420000 -0.010000 -1.167000
v 0.280000 -0.010000 -0.816900
v 0.280000 -0.010000 -1.167000
v 0.140000 -0.010000 -0.816900
v 0.140000 -0.010000 -1.167000
v -0.003303 -0.009085 -0.816914
v -0.002408 -0.009149 -1.167012
v -0.121926 0.071208 -0.817547
v -0.146876 0.078981 -1.162448
v -0.039230 0.203797 -0.828263
v -0.142542 0.238451 -1.160154
v 0.084631 0.256806 -0.857738
v -0.007996 0.304769 -1.191568
v 0.134463 0.282316 -1.227026
v -0.560000 -0.010000 1.167000
v -0.420000 -0.010000 -0.816900
v -0.420000 -0.010000 1.167000
v 0.700000 -0.010000 -1.167000
v 0.420000 -0.010000 1.167000
v 0.420000 -0.010000 -0.816900
v 0.560000 -0.010000 1.167000
v 0.560000 -0.010000 -0.816900
v 0.700000 -0.010000 1.167000
v 0.700000 -0.010000 -0.816900
v 0.280000 -0.010000 -0.816900
v 0.280000 -0.010000 1.167000
v 0.140000 -0.010000 -0.816900
v 0.140000 -0.010000 1.167000
v -0.000000 -0.010000 -0.816900
v -0.000000 -0.010000 1.167000
v -0.140000 -0.010000 -0.816900
v -0.140000 -0.010000 1.167000
v -0.280000 -0.010000 -0.816900
v -0.280000 -0.010000 1.167000
v -0.560000 -0.010000 -0.816900
v -0.700000 -0.010000 1.167000
v -0.700000 -0.010000 -0.816900
vt 0.100000 0.850000
vt 0.000000 1.000000
vt 0.000000 0.850000
vt 1.000000 0.850000
vt 0.900000 1.000000
vt 0.900000 0.850000
vt 0.800000 1.000000
vt 0.800000 0.850000
vt 0.700000 1.000000
vt 0.700000 0.850000
vt 0.600000 1.000000
vt 0.600000 0.850000
vt 0.500000 1.000000
vt 0.500000 0.850000
vt 0.400000 1.000000
vt 0.400000 0.850000
vt 0.300000 1.000000
vt 0.300000 0.850000
vt 0.200000 1.000000
vt 0.200000 0.850000
vt 0.100000 1.000000
vt 0.100000 0.000000
vt 0.200000 0.000000
vt 0.200000 0.850000
vt 1.000000 1.000000
vt 0.800000 0.000000
vt 0.900000 0.000000
vt 0.800000 0.850000
vt 1.000000 0.000000
vt 0.900000 0.850000
vt 1.000000 0.850000
vt 0.700000 0.850000
vt 0.600000 0.850000
vt 0.700000 0.000000
vt 0.600000 0.000000
vt 0.500000 0.850000
vt 0.400000 0.850000
vt 0.500000 0.000000
vt 0.400000 0.000000
vt 0.300000 0.850000
vt 0.300000 0.000000
vt 0.100000 0.850000
vt 0.000000 0.850000
vt 0.000000 0.000000
vt 0.100000 0.850000
vt 0.000000 0.850000
vt 0.000000 1.000000
vt 1.000000 0.850000
vt 0.900000 0.850000
vt 0.900000 1.000000
vt 0.800000 0.850000
vt 0.800000 1.000000
vt 0.700000 0.850000
vt 0.700000 1.000000
vt 0.600000 0.850000
vt 0.600000 1.000000
vt 0.500000 0.850000
vt 0.500000 1.000000
vt 0.400000 0.850000
vt 0.400000 1.000000
vt 0.300000 0.850000
vt 0.300000 1.000000
vt 0.200000 0.850000
vt 0.200000 1.000000
vt 0.100000 1.000000
vt 0.100000 0.000000
vt 0.200000 0.850000
vt 0.200000 0.000000
vt 1.000000 1.000000
vt 0.800000 0.000000
vt 0.800000 0.850000
vt 0.900000 0.000000
vt 0.900000 0.850000
vt 1.000000 0.000000
vt 1.000000 0.850000
vt 0.700000 0.850000
vt 0.700000 0.000000
vt 0.600000 0.850000
vt 0.600000 0.000000
vt 0.500000 0.850000
vt 0.500000 0.000000
vt 0.400000 0.850000
vt 0.400000 0.000000
vt 0.300000 0.850000
vt 0.300000 0.000000
vt 0.100000 0.850000
vt 0.000000 0.000000
vt 0.000000 0.850000
vn 0.1782 -0.9749 0.1337
vn 0.0000 1.0000 0.0000
vn 0.0002 1.0000 -0.0002
vn 0.5654 0.8242 -0.0314
vn 0.7651 -0.5709 -0.2978
vn 0.3249 -0.9193 -0.2222
vn 0.2626 -0.9644 -0.0315
vn -0.1937 -0.9777 0.0815
vn -0.0002 1.0000 0.0000
vn 0.5065 0.8622 0.0011
vn 0.9976 -0.0208 -0.0667
vn 0.3817 -0.8995 -0.2127
vn -0.1805 -0.9794 -0.0906
vn -0.1791 0.9747 -0.1335
vn 0.0000 -1.0000 0.0000
vn -0.0064 -1.0000 0.0002
vn -0.5605 -0.8279 0.0219
vn -0.7975 0.5219 0.3027
vn -0.3376 0.9140 0.2250
vn -0.2618 0.9646 0.0313
vn 0.1931 0.9778 -0.0814
vn -0.0060 -1.0000 0.0000
vn -0.5208 -0.8537 -0.0012
vn -0.9970 0.0260 0.0727
vn -0.3909 0.8949 0.2151
vn 0.1772 0.9799 0.0916
vn 0.0000 0.0000 -1.0000
vn -0.2583 -0.1047 -0.9604
vn -0.0052 0.0003 1.0000
vn 0.9703 -0.0410 -0.2385
vn 0.2374 -0.0633 0.9694
vn 1.0000 0.0000 0.0000
vn 0.2859 -0.1419 0.9477
vn 0.2335 0.1053 0.9666
vn 0.2492 -0.0551 0.9669
vn 0.0000 0.0007 -1.0000
vn 0.0000 0.0000 1.0000
vn -0.0645 -0.0629 -0.9959
vn -0.2901 0.0171 -0.9568
vn -0.2897 0.1396 -0.9469
vn -0.2266 0.0578 -0.9723
vn -1.0000 0.0000 0.0000
vn -0.0001 -0.0007 1.0000
s off
f 35/1/1 3/2/1 5/3/1
f 43/4/2 16/5/2 44/6/2
f 44/6/2 17/7/2 42/8/2
f 42/8/2 18/9/2 41/10/2
f 41/10/2 19/11/2 40/12/2
f 40/12/3 20/13/3 39/14/3
f 39/14/4 21/15/4 38/16/4
f 38/16/5 22/17/5 37/18/5
f 37/18/6 23/19/6 36/20/6
f 36/20/7 24/21/7 35/1/7
f 7/22/2 8/23/2 32/24/2
f 35/1/8 24/21/8 3/2/8
f 43/4/2 4/25/2 16/5/2
f 44/6/2 16/5/2 17/7/2
f 42/8/2 17/7/2 18/9/2
f 41/10/2 18/9/2 19/11/2
f 40/12/9 19/11/9 20/13/9
f 39/14/10 20/13/10 21/15/10
f 38/16/11 21/15/11 22/17/11
f 37/18/12 22/17/12 23/19/12
f 36/20/13 23/19/13 24/21/13
f 14/26/2 15/27/2 26/28/2
f 15/27/2 2/29/2 25/30/2
f 26/28/2 15/27/2 25/30/2
f 2/29/2 6/31/2 25/30/2
f 26/28/2 27/32/2 14/26/2
f 27/32/2 28/33/2 13/34/2
f 14/26/2 27/32/2 13/34/2
f 12/35/2 13/34/2 28/33/2
f 28/33/2 29/36/2 12/35/2
f 29/36/2 30/37/2 11/38/2
f 12/35/2 29/36/2 11/38/2
f 10/39/2 11/38/2 30/37/2
f 30/37/2 31/40/2 10/39/2
f 31/40/2 32/24/2 9/41/2
f 10/39/2 31/40/2 9/41/2
f 8/23/2 9/41/2 32/24/2
f 32/24/2 33/42/2 7/22/2
f 33/42/2 34/43/2 1/44/2
f 1/44/2 7/22/2 33/42/2
f 45/45/14 46/46/14 47/47/14
f 48/48/15 49/49/15 50/50/15
f 49/49/15 51/51/15 52/52/15
f 51/51/15 53/53/15 54/54/15
f 53/53/15 55/55/15 56/56/15
f 55/55/16 57/57/16 58/58/16
f 57/57/17 59/59/17 60/60/17
f 59/59/18 61/61/18 62/62/18
f 61/61/19 63/63/19 64/64/19
f 63/63/20 45/45/20 65/65/20
f 66/66/15 67/67/15 68/68/15
f 45/45/21 47/47/21 65/65/21
f 48/48/15 50/50/15 69/69/15
f 49/49/15 52/52/15 50/50/15
f 51/51/15 54/54/15 52/52/15
f 53/53/15 56/56/15 54/54/15
f 55/55/22 58/58/22 56/56/22
f 57/57/23 60/60/23 58/58/23
f 59/59/24 62/62/24 60/60/24
f 61/61/25 64/64/25 62/62/25
f 63/63/26 65/65/26 64/64/26
f 70/70/15 71/71/15 72/72/15
f 72/72/15 73/73/15 74/74/15
f 71/71/15 73/73/15 72/72/15
f 74/74/15 73/73/15 75/75/15
f 71/71/15 70/70/15 76/76/15
f 76/76/15 77/77/15 78/78/15
f 70/70/15 77/77/15 76/76/15
f 79/79/15 78/78/15 77/77/15
f 78/78/15 79/79/15 80/80/15
f 80/80/15 81/81/15 82/82/15
f 79/79/15 81/81/15 80/80/15
f 83/83/15 82/82/15 81/81/15
f 82/82/15 83/83/15 84/84/15
f 84/84/15 85/85/15 67/67/15
f 83/83/15 85/85/15 84/84/15
f 68/68/15 67/67/15 85/85/15
f 67/67/15 66/66/15 86/86/15
f 86/86/15 87/87/15 88/88/15
f 87/87/15 86/86/15 66/66/15
f 31/40/27 30/37/27 82/82/27 84/84/27
f 16/5/27 4/25/27 69/69/27 50/50/27
f 3/2/28 24/21/28 65/65/28 47/47/28
f 39/14/29 38/16/29 59/59/29 57/57/29
f 30/37/27 29/36/27 80/80/27 82/82/27
f 17/7/27 16/5/27 50/50/27 52/52/27
f 5/3/30 3/2/30 47/47/30 46/46/30
f 38/16/31 37/18/31 61/61/31 59/59/31
f 29/36/27 28/33/27 78/78/27 80/80/27
f 18/9/27 17/7/27 52/52/27 54/54/27
f 6/31/32 2/29/32 74/74/32 75/75/32
f 37/18/33 36/20/33 63/63/33 61/61/33
f 28/33/27 27/32/27 76/76/27 78/78/27
f 19/11/27 18/9/27 54/54/27 56/56/27
f 35/1/34 5/3/34 46/46/34 45/45/34
f 36/20/35 35/1/35 45/45/35 63/63/35
f 27/32/27 26/28/27 71/71/27 76/76/27
f 20/13/36 19/11/36 56/56/36 58/58/36
f 7/22/37 1/44/37 87/87/37 66/66/37
f 26/28/27 25/30/27 73/73/27 71/71/27
f 21/15/38 20/13/38 58/58/38 60/60/38
f 8/23/37 7/22/37 66/66/37 68/68/37
f 25/30/27 6/31/27 75/75/27 73/73/27
f 22/17/39 21/15/39 60/60/39 62/62/39
f 9/41/37 8/23/37 68/68/37 85/85/37
f 23/19/40 22/17/40 62/62/40 64/64/40
f 10/39/37 9/41/37 85/85/37 83/83/37
f 24/21/41 23/19/41 64/64/41 65/65/41
f 11/38/37 10/39/37 83/83/37 81/81/37
f 43/4/37 44/6/37 49/49/37 48/48/37
f 12/35/37 11/38/37 81/81/37 79/79/37
f 44/6/37 42/8/37 51/51/37 49/49/37
f 34/43/27 33/42/27 86/86/27 88/88/27
f 13/34/37 12/35/37 79/79/37 77/77/37
f 1/44/42 34/43/42 88/88/42 87/87/42
f 42/8/37 41/10/37 53/53/37 51/51/37
f 33/42/27 32/24/27 67/67/27 86/86/27
f 14/26/37 13/34/37 77/77/37 70/70/37
f 4/25/32 43/4/32 48/48/32 69/69/32
f 41/10/37 40/12/37 55/55/37 53/53/37
f 32/24/27 31/40/27 84/84/27 67/67/27
f 15/27/37 14/26/37 70/70/37 72/72/37
f 2/29/37 15/27/37 72/72/37 74/74/37
f 40/12/43 39/14/43 57/57/43 55/55/43
