# Blender v2.93.1 OBJ File: 'CardPackAnimated3.blend'
# www.blender.org
o Plane
v -0.700000 0.000000 1.167000
v 0.700000 0.000000 1.167000
v 0.418367 0.243524 -1.261795
v 0.700000 0.000000 -1.167000
v 0.501822 0.288597 -0.924787
v 0.700000 0.000000 -0.816900
v -0.560000 0.000000 1.167000
v -0.420000 0.000000 1.167000
v -0.280000 -0.000000 1.167000
v -0.140000 0.000000 1.167000
v -0.000000 0.000000 1.167000
v 0.140000 0.000000 1.167000
v 0.280000 0.000000 1.167000
v 0.420000 0.000000 1.167000
v 0.560000 0.000000 1.167000
v 0.560000 0.000000 -1.167000
v 0.420000 0.000000 -1.167000
v 0.280000 0.000000 -1.167000
v 0.140000 0.000000 -1.167000
v 0.001218 -0.000476 -1.166990
v -0.067289 0.144892 -1.165063
v 0.013492 0.265305 -1.165251
v 0.147782 0.284336 -1.192136
v 0.282551 0.261912 -1.226826
v 0.560000 0.000000 -0.816900
v 0.420000 0.000000 -0.816900
v 0.280000 0.000000 -0.816900
v 0.140000 0.000000 -0.816900
v -0.000000 0.000000 -0.816900
v -0.140000 0.000000 -0.816900
v -0.280000 -0.000000 -0.816900
v -0.420000 0.000000 -0.816900
v -0.560000 0.000000 -0.816900
v -0.700000 0.000000 -0.816900
v 0.366546 0.255223 -0.890985
v 0.229729 0.206729 -0.861314
v 0.092021 0.186315 -0.833848
v -0.052645 0.131812 -0.818397
v -0.001335 0.000522 -0.816911
v 0.140000 0.000000 -0.816900
v 0.280000 0.000000 -0.816900
v 0.420000 0.000000 -0.816900
v 0.700000 0.000000 -0.816900
v 0.560000 0.000000 -0.816900
v 0.365974 0.265090 -0.890647
v 0.501072 0.298503 -0.925927
v 0.417617 0.253431 -1.262934
v 0.700000 -0.010000 -0.816900
v 0.560000 -0.010000 -0.816900
v 0.560000 -0.010000 -1.167000
v 0.420000 -0.010000 -0.816900
v 0.420000 -0.010000 -1.167000
v 0.280000 -0.010000 -0.816900
v 0.280000 -0.010000 -1.167000
v 0.140000 -0.010000 -0.816900
v 0.140000 -0.010000 -1.167000
v -0.006005 -0.006263 -0.816969
v -0.003453 -0.007262 -1.167048
v -0.061985 0.128242 -0.818513
v -0.075242 0.146609 -1.163723
v 0.088349 0.194571 -0.830949
v 0.009821 0.273561 -1.162351
v 0.229144 0.216396 -0.858905
v 0.147196 0.294002 -1.189728
v 0.281979 0.271778 -1.226488
v -0.560000 -0.010000 1.167000
v -0.420000 -0.010000 -0.816900
v -0.420000 -0.010000 1.167000
v 0.700000 -0.010000 -1.167000
v 0.420000 -0.010000 1.167000
v 0.420000 -0.010000 -0.816900
v 0.560000 -0.010000 1.167000
v 0.560000 -0.010000 -0.816900
v 0.700000 -0.010000 1.167000
v 0.700000 -0.010000 -0.816900
v 0.280000 -0.010000 -0.816900
v 0.280000 -0.010000 1.167000
v 0.140000 -0.010000 -0.816900
v 0.140000 -0.010000 1.167000
v -0.000000 -0.010000 -0.816900
v -0.000000 -0.010000 1.167000
v -0.140000 -0.010000 -0.816900
v -0.140000 -0.010000 1.167000
v -0.280000 -0.010000 -0.816900
v -0.280000 -0.010000 1.167000
v -0.560000 -0.010000 -0.816900
v -0.700000 -0.010000 1.167000
v -0.700000 -0.010000 -0.816900
vt 0.100000 0.850000
vt 0.000000 1.000000
vt 0.000000 0.850000
vt 1.000000 0.850000
vt 0.900000 1.000000
vt 0.900000 0.850000
vt 0.800000 1.000000
vt 0.800000 0.850000
vt 0.700000 1.000000
vt 0.700000 0.850000
vt 0.600000 1.000000
vt 0.600000 0.850000
vt 0.500000 1.000000
vt 0.500000 0.850000
vt 0.400000 1.000000
vt 0.400000 0.850000
vt 0.300000 1.000000
vt 0.300000 0.850000
vt 0.200000 1.000000
vt 0.200000 0.850000
vt 0.100000 1.000000
vt 0.100000 0.000000
vt 0.200000 0.000000
vt 0.200000 0.850000
vt 1.000000 1.000000
vt 0.800000 0.000000
vt 0.900000 0.000000
vt 0.800000 0.850000
vt 1.000000 0.000000
vt 0.900000 0.850000
vt 1.000000 0.850000
vt 0.700000 0.850000
vt 0.600000 0.850000
vt 0.700000 0.000000
vt 0.600000 0.000000
vt 0.500000 0.850000
vt 0.400000 0.850000
vt 0.500000 0.000000
vt 0.400000 0.000000
vt 0.300000 0.850000
vt 0.300000 0.000000
vt 0.100000 0.850000
vt 0.000000 0.850000
vt 0.000000 0.000000
vt 0.100000 0.850000
vt 0.000000 0.850000
vt 0.000000 1.000000
vt 1.000000 0.850000
vt 0.900000 0.850000
vt 0.900000 1.000000
vt 0.800000 0.850000
vt 0.800000 1.000000
vt 0.700000 0.850000
vt 0.700000 1.000000
vt 0.600000 0.850000
vt 0.600000 1.000000
vt 0.500000 0.850000
vt 0.500000 1.000000
vt 0.400000 0.850000
vt 0.400000 1.000000
vt 0.300000 0.850000
vt 0.300000 1.000000
vt 0.200000 0.850000
vt 0.200000 1.000000
vt 0.100000 1.000000
vt 0.100000 0.000000
vt 0.200000 0.850000
vt 0.200000 0.000000
vt 1.000000 1.000000
vt 0.800000 0.000000
vt 0.800000 0.850000
vt 0.900000 0.000000
vt 0.900000 0.850000
vt 1.000000 0.000000
vt 1.000000 0.850000
vt 0.700000 0.850000
vt 0.700000 0.000000
vt 0.600000 0.850000
vt 0.600000 0.000000
vt 0.500000 0.850000
vt 0.500000 0.000000
vt 0.400000 0.850000
vt 0.400000 0.000000
vt 0.300000 0.850000
vt 0.300000 0.000000
vt 0.100000 0.850000
vt 0.000000 0.000000
vt 0.000000 0.850000
vn 0.2545 -0.9648 0.0660
vn 0.0000 1.0000 0.0000
vn 0.0037 1.0000 -0.0028
vn 0.9312 0.3636 -0.0256
vn 0.3103 -0.9055 -0.2894
vn 0.0932 -0.9640 -0.2492
vn 0.3137 -0.9445 -0.0973
vn -0.1309 -0.9913 0.0130
vn -0.0034 1.0000 0.0000
vn 0.9046 0.4262 0.0054
vn 0.8291 -0.5563 -0.0560
vn 0.0865 -0.9643 -0.2503
vn -0.2053 -0.9629 -0.1750
vn -0.2557 0.9645 -0.0657
vn 0.0000 -1.0000 0.0000
vn -0.0256 -0.9997 0.0027
vn -0.9232 -0.3841 0.0150
vn -0.3648 0.8825 0.2968
vn -0.0995 0.9630 0.2506
vn -0.3136 0.9446 0.0972
vn 0.1306 0.9913 -0.0129
vn -0.0191 -0.9998 0.0000
vn -0.9063 -0.4227 -0.0054
vn -0.8295 0.5551 0.0614
vn -0.0932 0.9633 0.2517
vn 0.2064 0.9627 0.1747
vn 0.0000 0.0000 -1.0000
vn -0.2612 -0.0565 -0.9636
vn -0.0160 0.0049 0.9999
vn 0.9683 0.0450 -0.2458
vn 0.1543 -0.1514 0.9763
vn 1.0000 0.0000 0.0000
vn 0.2231 -0.2277 0.9478
vn 0.2344 0.0550 0.9706
vn 0.2576 -0.1196 0.9588
vn 0.0002 0.0034 -1.0000
vn 0.0000 0.0000 1.0000
vn -0.0910 -0.0252 -0.9955
vn -0.2205 0.1525 -0.9634
vn -0.2225 0.2279 -0.9479
vn -0.2354 0.1217 -0.9642
vn -1.0000 0.0000 0.0000
vn -0.0003 -0.0034 1.0000
s off
f 35/1/1 3/2/1 5/3/1
f 43/4/2 16/5/2 44/6/2
f 44/6/2 17/7/2 42/8/2
f 42/8/2 18/9/2 41/10/2
f 41/10/2 19/11/2 40/12/2
f 40/12/3 20/13/3 39/14/3
f 39/14/4 21/15/4 38/16/4
f 38/16/5 22/17/5 37/18/5
f 37/18/6 23/19/6 36/20/6
f 36/20/7 24/21/7 35/1/7
f 7/22/2 8/23/2 32/24/2
f 35/1/8 24/21/8 3/2/8
f 43/4/2 4/25/2 16/5/2
f 44/6/2 16/5/2 17/7/2
f 42/8/2 17/7/2 18/9/2
f 41/10/2 18/9/2 19/11/2
f 40/12/9 19/11/9 20/13/9
f 39/14/10 20/13/10 21/15/10
f 38/16/11 21/15/11 22/17/11
f 37/18/12 22/17/12 23/19/12
f 36/20/13 23/19/13 24/21/13
f 14/26/2 15/27/2 26/28/2
f 15/27/2 2/29/2 25/30/2
f 26/28/2 15/27/2 25/30/2
f 2/29/2 6/31/2 25/30/2
f 26/28/2 27/32/2 14/26/2
f 27/32/2 28/33/2 13/34/2
f 14/26/2 27/32/2 13/34/2
f 12/35/2 13/34/2 28/33/2
f 28/33/2 29/36/2 12/35/2
f 29/36/2 30/37/2 11/38/2
f 12/35/2 29/36/2 11/38/2
f 10/39/2 11/38/2 30/37/2
f 30/37/2 31/40/2 10/39/2
f 31/40/2 32/24/2 9/41/2
f 10/39/2 31/40/2 9/41/2
f 8/23/2 9/41/2 32/24/2
f 32/24/2 33/42/2 7/22/2
f 33/42/2 34/43/2 1/44/2
f 1/44/2 7/22/2 33/42/2
f 45/45/14 46/46/14 47/47/14
f 48/48/15 49/49/15 50/50/15
f 49/49/15 51/51/15 52/52/15
f 51/51/15 53/53/15 54/54/15
f 53/53/15 55/55/15 56/56/15
f 55/55/16 57/57/16 58/58/16
f 57/57/17 59/59/17 60/60/17
f 59/59/18 61/61/18 62/62/18
f 61/61/19 63/63/19 64/64/19
f 63/63/20 45/45/20 65/65/20
f 66/66/15 67/67/15 68/68/15
f 45/45/21 47/47/21 65/65/21
f 48/48/15 50/50/15 69/69/15
f 49/49/15 52/52/15 50/50/15
f 51/51/15 54/54/15 52/52/15
f 53/53/15 56/56/15 54/54/15
f 55/55/22 58/58/22 56/56/22
f 57/57/23 60/60/23 58/58/23
f 59/59/24 62/62/24 60/60/24
f 61/61/25 64/64/25 62/62/25
f 63/63/26 65/65/26 64/64/26
f 70/70/15 71/71/15 72/72/15
f 72/72/15 73/73/15 74/74/15
f 71/71/15 73/73/15 72/72/15
f 74/74/15 73/73/15 75/75/15
f 71/71/15 70/70/15 76/76/15
f 76/76/15 77/77/15 78/78/15
f 70/70/15 77/77/15 76/76/15
f 79/79/15 78/78/15 77/77/15
f 78/78/15 79/79/15 80/80/15
f 80/80/15 81/81/15 82/82/15
f 79/79/15 81/81/15 80/80/15
f 83/83/15 82/82/15 81/81/15
f 82/82/15 83/83/15 84/84/15
f 84/84/15 85/85/15 67/67/15
f 83/83/15 85/85/15 84/84/15
f 68/68/15 67/67/15 85/85/15
f 67/67/15 66/66/15 86/86/15
f 86/86/15 87/87/15 88/88/15
f 87/87/15 86/86/15 66/66/15
f 31/40/27 30/37/27 82/82/27 84/84/27
f 16/5/27 4/25/27 69/69/27 50/50/27
f 3/2/28 24/21/28 65/65/28 47/47/28
f 39/14/29 38/16/29 59/59/29 57/57/29
f 30/37/27 29/36/27 80/80/27 82/82/27
f 17/7/27 16/5/27 50/50/27 52/52/27
f 5/3/30 3/2/30 47/47/30 46/46/30
f 38/16/31 37/18/31 61/61/31 59/59/31
f 29/36/27 28/33/27 78/78/27 80/80/27
f 18/9/27 17/7/27 52/52/27 54/54/27
f 6/31/32 2/29/32 74/74/32 75/75/32
f 37/18/33 36/20/33 63/63/33 61/61/33
f 28/33/27 27/32/27 76/76/27 78/78/27
f 19/11/27 18/9/27 54/54/27 56/56/27
f 35/1/34 5/3/34 46/46/34 45/45/34
f 36/20/35 35/1/35 45/45/35 63/63/35
f 27/32/27 26/28/27 71/71/27 76/76/27
f 20/13/36 19/11/36 56/56/36 58/58/36
f 7/22/37 1/44/37 87/87/37 66/66/37
f 26/28/27 25/30/27 73/73/27 71/71/27
f 21/15/38 20/13/38 58/58/38 60/60/38
f 8/23/37 7/22/37 66/66/37 68/68/37
f 25/30/27 6/31/27 75/75/27 73/73/27
f 22/17/39 21/15/39 60/60/39 62/62/39
f 9/41/37 8/23/37 68/68/37 85/85/37
f 23/19/40 22/17/40 62/62/40 64/64/40
f 10/39/37 9/41/37 85/85/37 83/83/37
f 24/21/41 23/19/41 64/64/41 65/65/41
f 11/38/37 10/39/37 83/83/37 81/81/37
f 43/4/37 44/6/37 49/49/37 48/48/37
f 12/35/37 11/38/37 81/81/37 79/79/37
f 44/6/37 42/8/37 51/51/37 49/49/37
f 34/43/27 33/42/27 86/86/27 88/88/27
f 13/34/37 12/35/37 79/79/37 77/77/37
f 1/44/42 34/43/42 88/88/42 87/87/42
f 42/8/37 41/10/37 53/53/37 51/51/37
f 33/42/27 32/24/27 67/67/27 86/86/27
f 14/26/37 13/34/37 77/77/37 70/70/37
f 4/25/32 43/4/32 48/48/32 69/69/32
f 41/10/37 40/12/37 55/55/37 53/53/37
f 32/24/27 31/40/27 84/84/27 67/67/27
f 15/27/37 14/26/37 70/70/37 72/72/37
f 2/29/37 15/27/37 72/72/37 74/74/37
f 40/12/43 39/14/43 57/57/43 55/55/43
