# Blender v2.93.1 OBJ File: 'CardPackAnimated3.blend'
# www.blender.org
o Plane
v -0.700000 0.000000 1.167000
v 0.700000 0.000000 1.167000
v -0.410361 0.250420 -1.162140
v 0.700000 0.000000 -1.167000
v -0.404609 0.268440 -0.812551
v 0.700000 0.000000 -0.816900
v -0.560000 0.000000 1.167000
v -0.420000 0.000000 1.167000
v -0.280000 -0.000000 1.167000
v -0.140000 0.000000 1.167000
v -0.000000 0.000000 1.167000
v 0.140000 0.000000 1.167000
v 0.280000 0.000000 1.167000
v 0.420000 0.000000 1.167000
v 0.560000 0.000000 1.167000
v 0.560000 0.000000 -1.167000
v 0.420000 0.000000 -1.167000
v 0.280000 0.000000 -1.167000
v 0.140000 0.000000 -1.167000
v -0.000000 0.000000 -1.167000
v -0.140000 0.000000 -1.167000
v -0.280000 0.000000 -1.167000
v -0.428835 0.004571 -1.166405
v -0.475807 0.132082 -1.154156
v 0.560000 0.000000 -0.816900
v 0.420000 0.000000 -0.816900
v 0.280000 0.000000 -0.816900
v 0.140000 0.000000 -0.816900
v -0.000000 0.000000 -0.816900
v -0.140000 0.000000 -0.816900
v -0.280000 -0.000000 -0.816900
v -0.420000 0.000000 -0.816900
v -0.560000 0.000000 -0.816900
v -0.700000 0.000000 -0.816900
v -0.454409 0.131509 -0.805558
v -0.410313 -0.005012 -0.817552
v -0.280000 0.000000 -0.816900
v -0.140000 0.000000 -0.816900
v -0.000000 0.000000 -0.816900
v 0.140000 0.000000 -0.816900
v 0.280000 0.000000 -0.816900
v 0.420000 0.000000 -0.816900
v 0.700000 0.000000 -0.816900
v 0.560000 0.000000 -0.816900
v -0.463657 0.131919 -0.805181
v -0.413709 0.272584 -0.812615
v -0.419461 0.254564 -1.162204
v 0.700000 -0.010000 -0.816900
v 0.560000 -0.010000 -0.816900
v 0.560000 -0.010000 -1.167000
v 0.420000 -0.010000 -0.816900
v 0.420000 -0.010000 -1.167000
v 0.280000 -0.010000 -0.816900
v 0.280000 -0.010000 -1.167000
v 0.140000 -0.010000 -0.816900
v 0.140000 -0.010000 -1.167000
v -0.000000 -0.010000 -0.816900
v -0.000000 -0.010000 -1.167000
v -0.140000 -0.010000 -0.816900
v -0.140000 -0.010000 -1.167000
v -0.280000 -0.010000 -0.816900
v -0.280000 -0.010000 -1.167000
v -0.415010 -0.011675 -0.817143
v -0.433533 -0.002091 -1.165996
v -0.485055 0.132491 -1.153779
v -0.560000 -0.010000 1.167000
v -0.420000 -0.010000 -0.816900
v -0.420000 -0.010000 1.167000
v 0.700000 -0.010000 -1.167000
v 0.420000 -0.010000 1.167000
v 0.420000 -0.010000 -0.816900
v 0.560000 -0.010000 1.167000
v 0.560000 -0.010000 -0.816900
v 0.700000 -0.010000 1.167000
v 0.700000 -0.010000 -0.816900
v 0.280000 -0.010000 -0.816900
v 0.280000 -0.010000 1.167000
v 0.140000 -0.010000 -0.816900
v 0.140000 -0.010000 1.167000
v -0.000000 -0.010000 -0.816900
v -0.000000 -0.010000 1.167000
v -0.140000 -0.010000 -0.816900
v -0.140000 -0.010000 1.167000
v -0.280000 -0.010000 -0.816900
v -0.280000 -0.010000 1.167000
v -0.560000 -0.010000 -0.816900
v -0.700000 -0.010000 1.167000
v -0.700000 -0.010000 -0.816900
vt 0.100000 0.850000
vt 0.000000 1.000000
vt 0.000000 0.850000
vt 1.000000 0.850000
vt 0.900000 1.000000
vt 0.900000 0.850000
vt 0.800000 1.000000
vt 0.800000 0.850000
vt 0.700000 1.000000
vt 0.700000 0.850000
vt 0.600000 1.000000
vt 0.600000 0.850000
vt 0.500000 1.000000
vt 0.500000 0.850000
vt 0.400000 1.000000
vt 0.400000 0.850000
vt 0.300000 1.000000
vt 0.300000 0.850000
vt 0.200000 1.000000
vt 0.200000 0.850000
vt 0.100000 1.000000
vt 0.100000 0.000000
vt 0.200000 0.000000
vt 0.200000 0.850000
vt 1.000000 1.000000
vt 0.800000 0.000000
vt 0.900000 0.000000
vt 0.800000 0.850000
vt 1.000000 0.000000
vt 0.900000 0.850000
vt 1.000000 0.850000
vt 0.700000 0.850000
vt 0.600000 0.850000
vt 0.700000 0.000000
vt 0.600000 0.000000
vt 0.500000 0.850000
vt 0.400000 0.850000
vt 0.500000 0.000000
vt 0.400000 0.000000
vt 0.300000 0.850000
vt 0.300000 0.000000
vt 0.100000 0.850000
vt 0.000000 0.850000
vt 0.000000 0.000000
vt 0.100000 0.850000
vt 0.000000 0.850000
vt 0.000000 1.000000
vt 1.000000 0.850000
vt 0.900000 0.850000
vt 0.900000 1.000000
vt 0.800000 0.850000
vt 0.800000 1.000000
vt 0.700000 0.850000
vt 0.700000 1.000000
vt 0.600000 0.850000
vt 0.600000 1.000000
vt 0.500000 0.850000
vt 0.500000 1.000000
vt 0.400000 0.850000
vt 0.400000 1.000000
vt 0.300000 0.850000
vt 0.300000 1.000000
vt 0.200000 0.850000
vt 0.200000 1.000000
vt 0.100000 1.000000
vt 0.100000 0.000000
vt 0.200000 0.850000
vt 0.200000 0.000000
vt 1.000000 1.000000
vt 0.800000 0.000000
vt 0.800000 0.850000
vt 0.900000 0.000000
vt 0.900000 0.850000
vt 1.000000 0.000000
vt 1.000000 0.850000
vt 0.700000 0.850000
vt 0.700000 0.000000
vt 0.600000 0.850000
vt 0.600000 0.000000
vt 0.500000 0.850000
vt 0.500000 0.000000
vt 0.400000 0.850000
vt 0.400000 0.000000
vt 0.300000 0.850000
vt 0.300000 0.000000
vt 0.100000 0.850000
vt 0.000000 0.000000
vt 0.000000 0.850000
vn 0.9398 -0.3417 0.0021
vn 0.0000 1.0000 0.0000
vn -0.0386 0.9988 0.0295
vn 0.9485 0.3114 -0.0577
vn 0.8722 -0.4861 -0.0543
vn 0.0307 0.9995 0.0000
vn 0.9363 0.3488 -0.0401
vn -0.9424 0.3345 -0.0017
vn 0.0000 -1.0000 0.0000
vn 0.0124 -0.9995 -0.0281
vn -0.9441 -0.3246 0.0574
vn -0.8780 0.4755 0.0547
vn -0.0514 -0.9987 0.0000
vn -0.9320 -0.3604 0.0396
vn 0.0000 0.0000 -1.0000
vn -0.0299 -0.0518 -0.9982
vn 0.0000 0.0000 1.0000
vn 0.4142 0.9086 -0.0537
vn 1.0000 0.0000 0.0000
vn -0.0040 0.0257 0.9997
vn 0.0275 0.0420 0.9987
vn 0.0820 -0.0579 0.9949
vn -0.0062 -0.0228 -0.9997
vn -0.0836 0.0614 -0.9946
vn -1.0000 0.0000 0.0000
s off
f 35/1/1 3/2/1 5/3/1
f 43/4/2 16/5/2 44/6/2
f 44/6/2 17/7/2 42/8/2
f 42/8/2 18/9/2 41/10/2
f 41/10/2 19/11/2 40/12/2
f 40/12/2 20/13/2 39/14/2
f 39/14/2 21/15/2 38/16/2
f 38/16/2 22/17/2 37/18/2
f 37/18/3 23/19/3 36/20/3
f 36/20/4 24/21/4 35/1/4
f 7/22/2 8/23/2 32/24/2
f 35/1/5 24/21/5 3/2/5
f 43/4/2 4/25/2 16/5/2
f 44/6/2 16/5/2 17/7/2
f 42/8/2 17/7/2 18/9/2
f 41/10/2 18/9/2 19/11/2
f 40/12/2 19/11/2 20/13/2
f 39/14/2 20/13/2 21/15/2
f 38/16/2 21/15/2 22/17/2
f 37/18/6 22/17/6 23/19/6
f 36/20/7 23/19/7 24/21/7
f 14/26/2 15/27/2 26/28/2
f 15/27/2 2/29/2 25/30/2
f 26/28/2 15/27/2 25/30/2
f 2/29/2 6/31/2 25/30/2
f 26/28/2 27/32/2 14/26/2
f 27/32/2 28/33/2 13/34/2
f 14/26/2 27/32/2 13/34/2
f 12/35/2 13/34/2 28/33/2
f 28/33/2 29/36/2 12/35/2
f 29/36/2 30/37/2 11/38/2
f 12/35/2 29/36/2 11/38/2
f 10/39/2 11/38/2 30/37/2
f 30/37/2 31/40/2 10/39/2
f 31/40/2 32/24/2 9/41/2
f 10/39/2 31/40/2 9/41/2
f 8/23/2 9/41/2 32/24/2
f 32/24/2 33/42/2 7/22/2
f 33/42/2 34/43/2 1/44/2
f 1/44/2 7/22/2 33/42/2
f 45/45/8 46/46/8 47/47/8
f 48/48/9 49/49/9 50/50/9
f 49/49/9 51/51/9 52/52/9
f 51/51/9 53/53/9 54/54/9
f 53/53/9 55/55/9 56/56/9
f 55/55/9 57/57/9 58/58/9
f 57/57/9 59/59/9 60/60/9
f 59/59/9 61/61/9 62/62/9
f 61/61/10 63/63/10 64/64/10
f 63/63/11 45/45/11 65/65/11
f 66/66/9 67/67/9 68/68/9
f 45/45/12 47/47/12 65/65/12
f 48/48/9 50/50/9 69/69/9
f 49/49/9 52/52/9 50/50/9
f 51/51/9 54/54/9 52/52/9
f 53/53/9 56/56/9 54/54/9
f 55/55/9 58/58/9 56/56/9
f 57/57/9 60/60/9 58/58/9
f 59/59/9 62/62/9 60/60/9
f 61/61/13 64/64/13 62/62/13
f 63/63/14 65/65/14 64/64/14
f 70/70/9 71/71/9 72/72/9
f 72/72/9 73/73/9 74/74/9
f 71/71/9 73/73/9 72/72/9
f 74/74/9 73/73/9 75/75/9
f 71/71/9 70/70/9 76/76/9
f 76/76/9 77/77/9 78/78/9
f 70/70/9 77/77/9 76/76/9
f 79/79/9 78/78/9 77/77/9
f 78/78/9 79/79/9 80/80/9
f 80/80/9 81/81/9 82/82/9
f 79/79/9 81/81/9 80/80/9
f 83/83/9 82/82/9 81/81/9
f 82/82/9 83/83/9 84/84/9
f 84/84/9 85/85/9 67/67/9
f 83/83/9 85/85/9 84/84/9
f 68/68/9 67/67/9 85/85/9
f 67/67/9 66/66/9 86/86/9
f 86/86/9 87/87/9 88/88/9
f 87/87/9 86/86/9 66/66/9
f 31/40/15 30/37/15 82/82/15 84/84/15
f 16/5/15 4/25/15 69/69/15 50/50/15
f 3/2/16 24/21/16 65/65/16 47/47/16
f 39/14/17 38/16/17 59/59/17 57/57/17
f 30/37/15 29/36/15 80/80/15 82/82/15
f 17/7/15 16/5/15 50/50/15 52/52/15
f 5/3/18 3/2/18 47/47/18 46/46/18
f 38/16/17 37/18/17 61/61/17 59/59/17
f 29/36/15 28/33/15 78/78/15 80/80/15
f 18/9/15 17/7/15 52/52/15 54/54/15
f 6/31/19 2/29/19 74/74/19 75/75/19
f 37/18/20 36/20/20 63/63/20 61/61/20
f 28/33/15 27/32/15 76/76/15 78/78/15
f 19/11/15 18/9/15 54/54/15 56/56/15
f 35/1/21 5/3/21 46/46/21 45/45/21
f 36/20/22 35/1/22 45/45/22 63/63/22
f 27/32/15 26/28/15 71/71/15 76/76/15
f 20/13/15 19/11/15 56/56/15 58/58/15
f 7/22/17 1/44/17 87/87/17 66/66/17
f 26/28/15 25/30/15 73/73/15 71/71/15
f 21/15/15 20/13/15 58/58/15 60/60/15
f 8/23/17 7/22/17 66/66/17 68/68/17
f 25/30/15 6/31/15 75/75/15 73/73/15
f 22/17/15 21/15/15 60/60/15 62/62/15
f 9/41/17 8/23/17 68/68/17 85/85/17
f 23/19/23 22/17/23 62/62/23 64/64/23
f 10/39/17 9/41/17 85/85/17 83/83/17
f 24/21/24 23/19/24 64/64/24 65/65/24
f 11/38/17 10/39/17 83/83/17 81/81/17
f 43/4/17 44/6/17 49/49/17 48/48/17
f 12/35/17 11/38/17 81/81/17 79/79/17
f 44/6/17 42/8/17 51/51/17 49/49/17
f 34/43/15 33/42/15 86/86/15 88/88/15
f 13/34/17 12/35/17 79/79/17 77/77/17
f 1/44/25 34/43/25 88/88/25 87/87/25
f 42/8/17 41/10/17 53/53/17 51/51/17
f 33/42/15 32/24/15 67/67/15 86/86/15
f 14/26/17 13/34/17 77/77/17 70/70/17
f 4/25/19 43/4/19 48/48/19 69/69/19
f 41/10/17 40/12/17 55/55/17 53/53/17
f 32/24/15 31/40/15 84/84/15 67/67/15
f 15/27/17 14/26/17 70/70/17 72/72/17
f 2/29/17 15/27/17 72/72/17 74/74/17
f 40/12/17 39/14/17 57/57/17 55/55/17
