# Blender v2.93.1 OBJ File: 'CardPackAnimated3.blend'
# www.blender.org
o Plane
v -0.700000 0.000000 1.167000
v 0.700000 0.000000 1.167000
v 0.552895 0.275983 -1.244306
v 0.700000 0.000000 -1.167000
v 0.613325 0.339297 -0.905322
v 0.700000 0.000000 -0.816900
v -0.560000 0.000000 1.167000
v -0.420000 0.000000 1.167000
v -0.280000 -0.000000 1.167000
v -0.140000 0.000000 1.167000
v -0.000000 0.000000 1.167000
v 0.140000 0.000000 1.167000
v 0.280000 0.000000 1.167000
v 0.420000 0.000000 1.167000
v 0.560000 0.000000 1.167000
v 0.560000 0.000000 -1.167000
v 0.420000 0.000000 -1.167000
v 0.280000 0.000000 -1.167000
v 0.138956 -0.001693 -1.166976
v 0.018563 0.065755 -1.166834
v 0.029121 0.221754 -1.170214
v 0.149305 0.280677 -1.177145
v 0.282043 0.289153 -1.193596
v 0.414814 0.284129 -1.217185
v 0.560000 0.000000 -0.816900
v 0.420000 0.000000 -0.816900
v 0.280000 0.000000 -0.816900
v 0.140000 0.000000 -0.816900
v -0.000000 0.000000 -0.816900
v -0.140000 0.000000 -0.816900
v -0.280000 -0.000000 -0.816900
v -0.420000 0.000000 -0.816900
v -0.560000 0.000000 -0.816900
v -0.700000 0.000000 -0.816900
v 0.479236 0.294100 -0.877393
v 0.338345 0.252947 -0.850254
v 0.193910 0.232844 -0.833733
v 0.038756 0.216779 -0.822572
v 0.020027 0.076473 -0.816932
v 0.141144 0.001856 -0.816926
v 0.280000 0.000000 -0.816900
v 0.420000 0.000000 -0.816900
v 0.700000 0.000000 -0.816900
v 0.560000 0.000000 -0.816900
v 0.477981 0.303903 -0.877442
v 0.611773 0.349054 -0.906868
v 0.551343 0.285740 -1.245852
v 0.700000 -0.010000 -0.816900
v 0.560000 -0.010000 -0.816900
v 0.560000 -0.010000 -1.167000
v 0.420000 -0.010000 -0.816900
v 0.420000 -0.010000 -1.167000
v 0.280000 -0.010000 -0.816900
v 0.280000 -0.010000 -1.167000
v 0.138614 -0.007454 -0.816807
v 0.136426 -0.011004 -1.166857
v 0.012550 0.072884 -0.816863
v 0.011085 0.062166 -1.166765
v 0.028862 0.218223 -0.822672
v 0.022538 0.227067 -1.169150
v 0.191828 0.242394 -0.832146
v 0.147224 0.290227 -1.175558
v 0.337420 0.262829 -0.849058
v 0.281117 0.299035 -1.192400
v 0.413559 0.293932 -1.217234
v -0.560000 -0.010000 1.167000
v -0.420000 -0.010000 -0.816900
v -0.420000 -0.010000 1.167000
v 0.700000 -0.010000 -1.167000
v 0.420000 -0.010000 1.167000
v 0.420000 -0.010000 -0.816900
v 0.560000 -0.010000 1.167000
v 0.560000 -0.010000 -0.816900
v 0.700000 -0.010000 1.167000
v 0.700000 -0.010000 -0.816900
v 0.280000 -0.010000 -0.816900
v 0.280000 -0.010000 1.167000
v 0.140000 -0.010000 -0.816900
v 0.140000 -0.010000 1.167000
v -0.000000 -0.010000 -0.816900
v -0.000000 -0.010000 1.167000
v -0.140000 -0.010000 -0.816900
v -0.140000 -0.010000 1.167000
v -0.280000 -0.010000 -0.816900
v -0.280000 -0.010000 1.167000
v -0.560000 -0.010000 -0.816900
v -0.700000 -0.010000 1.167000
v -0.700000 -0.010000 -0.816900
vt 0.100000 0.850000
vt 0.000000 1.000000
vt 0.000000 0.850000
vt 1.000000 0.850000
vt 0.900000 1.000000
vt 0.900000 0.850000
vt 0.800000 1.000000
vt 0.800000 0.850000
vt 0.700000 1.000000
vt 0.700000 0.850000
vt 0.600000 1.000000
vt 0.600000 0.850000
vt 0.500000 1.000000
vt 0.500000 0.850000
vt 0.400000 1.000000
vt 0.400000 0.850000
vt 0.300000 1.000000
vt 0.300000 0.850000
vt 0.200000 1.000000
vt 0.200000 0.850000
vt 0.100000 1.000000
vt 0.100000 0.000000
vt 0.200000 0.000000
vt 0.200000 0.850000
vt 1.000000 1.000000
vt 0.800000 0.000000
vt 0.900000 0.000000
vt 0.800000 0.850000
vt 1.000000 0.000000
vt 0.900000 0.850000
vt 1.000000 0.850000
vt 0.700000 0.850000
vt 0.600000 0.850000
vt 0.700000 0.000000
vt 0.600000 0.000000
vt 0.500000 0.850000
vt 0.400000 0.850000
vt 0.500000 0.000000
vt 0.400000 0.000000
vt 0.300000 0.850000
vt 0.300000 0.000000
vt 0.100000 0.850000
vt 0.000000 0.850000
vt 0.000000 0.000000
vt 0.100000 0.850000
vt 0.000000 0.850000
vt 0.000000 1.000000
vt 1.000000 0.850000
vt 0.900000 0.850000
vt 0.900000 1.000000
vt 0.800000 0.850000
vt 0.800000 1.000000
vt 0.700000 0.850000
vt 0.700000 1.000000
vt 0.600000 0.850000
vt 0.600000 1.000000
vt 0.500000 0.850000
vt 0.500000 1.000000
vt 0.400000 0.850000
vt 0.400000 1.000000
vt 0.300000 0.850000
vt 0.300000 1.000000
vt 0.200000 0.850000
vt 0.200000 1.000000
vt 0.100000 1.000000
vt 0.100000 0.000000
vt 0.200000 0.850000
vt 0.200000 0.000000
vt 1.000000 1.000000
vt 0.800000 0.000000
vt 0.800000 0.850000
vt 0.900000 0.000000
vt 0.900000 0.850000
vt 1.000000 0.000000
vt 1.000000 0.850000
vt 0.700000 0.850000
vt 0.700000 0.000000
vt 0.600000 0.850000
vt 0.600000 0.000000
vt 0.500000 0.850000
vt 0.500000 0.000000
vt 0.400000 0.850000
vt 0.400000 0.000000
vt 0.300000 0.850000
vt 0.300000 0.000000
vt 0.100000 0.850000
vt 0.000000 0.000000
vt 0.000000 0.850000
vn 0.3386 -0.9340 0.1141
vn 0.0000 1.0000 0.0000
vn 0.0134 0.9999 -0.0102
vn 0.5243 0.8511 -0.0283
vn 0.9906 -0.1334 -0.0294
vn 0.0912 -0.9846 -0.1490
vn 0.1229 -0.9846 -0.1240
vn 0.2760 -0.9609 -0.0241
vn -0.0512 -0.9979 0.0390
vn -0.0120 0.9999 0.0000
vn 0.4887 0.8724 -0.0119
vn 0.9977 -0.0676 -0.0021
vn 0.4389 -0.8982 -0.0250
vn 0.0453 -0.9886 -0.1436
vn -0.0546 -0.9939 -0.0958
vn -0.3400 0.9335 -0.1137
vn 0.0000 -1.0000 0.0000
vn -0.0180 -0.9998 0.0103
vn -0.5372 -0.8430 0.0281
vn -0.9934 0.1123 0.0210
vn -0.1362 0.9786 0.1540
vn -0.1238 0.9845 0.1241
vn -0.2759 0.9609 0.0241
vn 0.0512 0.9979 -0.0390
vn 0.0070 -1.0000 0.0000
vn -0.5041 -0.8636 0.0119
vn -0.9976 0.0693 0.0021
vn -0.4504 0.8923 0.0310
vn -0.0469 0.9885 0.1438
vn 0.0562 0.9938 0.0956
vn 0.0000 0.0000 -1.0000
vn -0.2030 -0.1085 -0.9731
vn -0.0068 0.0409 0.9991
vn 0.9727 0.1236 -0.1965
vn 0.0717 -0.0565 0.9958
vn 1.0000 0.0000 0.0000
vn 0.1303 -0.1208 0.9841
vn -0.0005 -0.0061 -1.0000
vn 0.1743 0.1049 0.9791
vn 0.2031 -0.0345 0.9785
vn -0.0065 -0.0096 -0.9999
vn 0.0000 0.0000 1.0000
vn -0.0818 -0.0123 -0.9966
vn -0.1097 0.1122 -0.9876
vn -0.1307 0.1207 -0.9840
vn -0.1781 0.0376 -0.9833
vn -1.0000 0.0000 0.0000
vn 0.0003 0.0061 1.0000
vn 0.0060 0.0099 0.9999
s off
f 35/1/1 3/2/1 5/3/1
f 43/4/2 16/5/2 44/6/2
f 44/6/2 17/7/2 42/8/2
f 42/8/2 18/9/2 41/10/2
f 41/10/3 19/11/3 40/12/3
f 40/12/4 20/13/4 39/14/4
f 39/14/5 21/15/5 38/16/5
f 38/16/6 22/17/6 37/18/6
f 37/18/7 23/19/7 36/20/7
f 36/20/8 24/21/8 35/1/8
f 7/22/2 8/23/2 32/24/2
f 35/1/9 24/21/9 3/2/9
f 43/4/2 4/25/2 16/5/2
f 44/6/2 16/5/2 17/7/2
f 42/8/2 17/7/2 18/9/2
f 41/10/10 18/9/10 19/11/10
f 40/12/11 19/11/11 20/13/11
f 39/14/12 20/13/12 21/15/12
f 38/16/13 21/15/13 22/17/13
f 37/18/14 22/17/14 23/19/14
f 36/20/15 23/19/15 24/21/15
f 14/26/2 15/27/2 26/28/2
f 15/27/2 2/29/2 25/30/2
f 26/28/2 15/27/2 25/30/2
f 2/29/2 6/31/2 25/30/2
f 26/28/2 27/32/2 14/26/2
f 27/32/2 28/33/2 13/34/2
f 14/26/2 27/32/2 13/34/2
f 12/35/2 13/34/2 28/33/2
f 28/33/2 29/36/2 12/35/2
f 29/36/2 30/37/2 11/38/2
f 12/35/2 29/36/2 11/38/2
f 10/39/2 11/38/2 30/37/2
f 30/37/2 31/40/2 10/39/2
f 31/40/2 32/24/2 9/41/2
f 10/39/2 31/40/2 9/41/2
f 8/23/2 9/41/2 32/24/2
f 32/24/2 33/42/2 7/22/2
f 33/42/2 34/43/2 1/44/2
f 1/44/2 7/22/2 33/42/2
f 45/45/16 46/46/16 47/47/16
f 48/48/17 49/49/17 50/50/17
f 49/49/17 51/51/17 52/52/17
f 51/51/17 53/53/17 54/54/17
f 53/53/18 55/55/18 56/56/18
f 55/55/19 57/57/19 58/58/19
f 57/57/20 59/59/20 60/60/20
f 59/59/21 61/61/21 62/62/21
f 61/61/22 63/63/22 64/64/22
f 63/63/23 45/45/23 65/65/23
f 66/66/17 67/67/17 68/68/17
f 45/45/24 47/47/24 65/65/24
f 48/48/17 50/50/17 69/69/17
f 49/49/17 52/52/17 50/50/17
f 51/51/17 54/54/17 52/52/17
f 53/53/25 56/56/25 54/54/25
f 55/55/26 58/58/26 56/56/26
f 57/57/27 60/60/27 58/58/27
f 59/59/28 62/62/28 60/60/28
f 61/61/29 64/64/29 62/62/29
f 63/63/30 65/65/30 64/64/30
f 70/70/17 71/71/17 72/72/17
f 72/72/17 73/73/17 74/74/17
f 71/71/17 73/73/17 72/72/17
f 74/74/17 73/73/17 75/75/17
f 71/71/17 70/70/17 76/76/17
f 76/76/17 77/77/17 78/78/17
f 70/70/17 77/77/17 76/76/17
f 79/79/17 78/78/17 77/77/17
f 78/78/17 79/79/17 80/80/17
f 80/80/17 81/81/17 82/82/17
f 79/79/17 81/81/17 80/80/17
f 83/83/17 82/82/17 81/81/17
f 82/82/17 83/83/17 84/84/17
f 84/84/17 85/85/17 67/67/17
f 83/83/17 85/85/17 84/84/17
f 68/68/17 67/67/17 85/85/17
f 67/67/17 66/66/17 86/86/17
f 86/86/17 87/87/17 88/88/17
f 87/87/17 86/86/17 66/66/17
f 31/40/31 30/37/31 82/82/31 84/84/31
f 16/5/31 4/25/31 69/69/31 50/50/31
f 3/2/32 24/21/32 65/65/32 47/47/32
f 39/14/33 38/16/33 59/59/33 57/57/33
f 30/37/31 29/36/31 80/80/31 82/82/31
f 17/7/31 16/5/31 50/50/31 52/52/31
f 5/3/34 3/2/34 47/47/34 46/46/34
f 38/16/35 37/18/35 61/61/35 59/59/35
f 29/36/31 28/33/31 78/78/31 80/80/31
f 18/9/31 17/7/31 52/52/31 54/54/31
f 6/31/36 2/29/36 74/74/36 75/75/36
f 37/18/37 36/20/37 63/63/37 61/61/37
f 28/33/31 27/32/31 76/76/31 78/78/31
f 19/11/38 18/9/38 54/54/38 56/56/38
f 35/1/39 5/3/39 46/46/39 45/45/39
f 36/20/40 35/1/40 45/45/40 63/63/40
f 27/32/31 26/28/31 71/71/31 76/76/31
f 20/13/41 19/11/41 56/56/41 58/58/41
f 7/22/42 1/44/42 87/87/42 66/66/42
f 26/28/31 25/30/31 73/73/31 71/71/31
f 21/15/43 20/13/43 58/58/43 60/60/43
f 8/23/42 7/22/42 66/66/42 68/68/42
f 25/30/31 6/31/31 75/75/31 73/73/31
f 22/17/44 21/15/44 60/60/44 62/62/44
f 9/41/42 8/23/42 68/68/42 85/85/42
f 23/19/45 22/17/45 62/62/45 64/64/45
f 10/39/42 9/41/42 85/85/42 83/83/42
f 24/21/46 23/19/46 64/64/46 65/65/46
f 11/38/42 10/39/42 83/83/42 81/81/42
f 43/4/42 44/6/42 49/49/42 48/48/42
f 12/35/42 11/38/42 81/81/42 79/79/42
f 44/6/42 42/8/42 51/51/42 49/49/42
f 34/43/31 33/42/31 86/86/31 88/88/31
f 13/34/42 12/35/42 79/79/42 77/77/42
f 1/44/47 34/43/47 88/88/47 87/87/47
f 42/8/42 41/10/42 53/53/42 51/51/42
f 33/42/31 32/24/31 67/67/31 86/86/31
f 14/26/42 13/34/42 77/77/42 70/70/42
f 4/25/36 43/4/36 48/48/36 69/69/36
f 41/10/48 40/12/48 55/55/48 53/53/48
f 32/24/31 31/40/31 84/84/31 67/67/31
f 15/27/42 14/26/42 70/70/42 72/72/42
f 2/29/42 15/27/42 72/72/42 74/74/42
f 40/12/49 39/14/49 57/57/49 55/55/49
