# Blender v2.93.1 OBJ File: 'CardPackAnimated3.blend'
# www.blender.org
o Plane
v -0.700000 0.000000 1.167000
v 0.700000 0.000000 1.167000
v -0.700000 0.000000 -1.167000
v 0.700000 0.000000 -1.167000
v -0.700000 0.000000 -0.816900
v 0.700000 0.000000 -0.816900
v -0.560000 0.000000 1.167000
v -0.420000 0.000000 1.167000
v -0.280000 -0.000000 1.167000
v -0.140000 0.000000 1.167000
v -0.000000 0.000000 1.167000
v 0.140000 0.000000 1.167000
v 0.280000 0.000000 1.167000
v 0.420000 0.000000 1.167000
v 0.560000 0.000000 1.167000
v 0.560000 0.000000 -1.167000
v 0.420000 0.000000 -1.167000
v 0.280000 0.000000 -1.167000
v 0.140000 0.000000 -1.167000
v -0.000000 0.000000 -1.167000
v -0.140000 0.000000 -1.167000
v -0.280000 0.000000 -1.167000
v -0.420000 0.000000 -1.167000
v -0.560000 0.000000 -1.167000
v 0.560000 0.000000 -0.816900
v 0.420000 0.000000 -0.816900
v 0.280000 0.000000 -0.816900
v 0.140000 0.000000 -0.816900
v -0.000000 0.000000 -0.816900
v -0.140000 0.000000 -0.816900
v -0.280000 -0.000000 -0.816900
v -0.420000 0.000000 -0.816900
v -0.560000 0.000000 -0.816900
v -0.700000 0.000000 -0.816900
v -0.560000 0.000000 -0.816900
v -0.420000 0.000000 -0.816900
v -0.280000 0.000000 -0.816900
v -0.140000 0.000000 -0.816900
v -0.000000 0.000000 -0.816900
v 0.140000 0.000000 -0.816900
v 0.280000 0.000000 -0.816900
v 0.420000 0.000000 -0.816900
v 0.700000 0.000000 -0.816900
v 0.560000 0.000000 -0.816900
v -0.560000 -0.010000 -0.816900
v -0.700000 -0.010000 -0.816900
v -0.700000 -0.010000 -1.167000
v 0.700000 -0.010000 -0.816900
v 0.560000 -0.010000 -0.816900
v 0.560000 -0.010000 -1.167000
v 0.420000 -0.010000 -0.816900
v 0.420000 -0.010000 -1.167000
v 0.280000 -0.010000 -0.816900
v 0.280000 -0.010000 -1.167000
v 0.140000 -0.010000 -0.816900
v 0.140000 -0.010000 -1.167000
v -0.000000 -0.010000 -0.816900
v -0.000000 -0.010000 -1.167000
v -0.140000 -0.010000 -0.816900
v -0.140000 -0.010000 -1.167000
v -0.280000 -0.010000 -0.816900
v -0.280000 -0.010000 -1.167000
v -0.420000 -0.010000 -0.816900
v -0.420000 -0.010000 -1.167000
v -0.560000 -0.010000 -1.167000
v -0.560000 -0.010000 1.167000
v -0.420000 -0.010000 -0.816900
v -0.420000 -0.010000 1.167000
v 0.700000 -0.010000 -1.167000
v 0.420000 -0.010000 1.167000
v 0.420000 -0.010000 -0.816900
v 0.560000 -0.010000 1.167000
v 0.560000 -0.010000 -0.816900
v 0.700000 -0.010000 1.167000
v 0.700000 -0.010000 -0.816900
v 0.280000 -0.010000 -0.816900
v 0.280000 -0.010000 1.167000
v 0.140000 -0.010000 -0.816900
v 0.140000 -0.010000 1.167000
v -0.000000 -0.010000 -0.816900
v -0.000000 -0.010000 1.167000
v -0.140000 -0.010000 -0.816900
v -0.140000 -0.010000 1.167000
v -0.280000 -0.010000 -0.816900
v -0.280000 -0.010000 1.167000
v -0.560000 -0.010000 -0.816900
v -0.700000 -0.010000 1.167000
v -0.700000 -0.010000 -0.816900
vt 0.100000 0.850000
vt 0.000000 1.000000
vt 0.000000 0.850000
vt 1.000000 0.850000
vt 0.900000 1.000000
vt 0.900000 0.850000
vt 0.800000 1.000000
vt 0.800000 0.850000
vt 0.700000 1.000000
vt 0.700000 0.850000
vt 0.600000 1.000000
vt 0.600000 0.850000
vt 0.500000 1.000000
vt 0.500000 0.850000
vt 0.400000 1.000000
vt 0.400000 0.850000
vt 0.300000 1.000000
vt 0.300000 0.850000
vt 0.200000 1.000000
vt 0.200000 0.850000
vt 0.100000 1.000000
vt 0.100000 0.000000
vt 0.200000 0.000000
vt 0.200000 0.850000
vt 1.000000 1.000000
vt 0.800000 0.000000
vt 0.900000 0.000000
vt 0.800000 0.850000
vt 1.000000 0.000000
vt 0.900000 0.850000
vt 1.000000 0.850000
vt 0.700000 0.850000
vt 0.600000 0.850000
vt 0.700000 0.000000
vt 0.600000 0.000000
vt 0.500000 0.850000
vt 0.400000 0.850000
vt 0.500000 0.000000
vt 0.400000 0.000000
vt 0.300000 0.850000
vt 0.300000 0.000000
vt 0.100000 0.850000
vt 0.000000 0.850000
vt 0.000000 0.000000
vt 0.100000 0.850000
vt 0.000000 0.850000
vt 0.000000 1.000000
vt 1.000000 0.850000
vt 0.900000 0.850000
vt 0.900000 1.000000
vt 0.800000 0.850000
vt 0.800000 1.000000
vt 0.700000 0.850000
vt 0.700000 1.000000
vt 0.600000 0.850000
vt 0.600000 1.000000
vt 0.500000 0.850000
vt 0.500000 1.000000
vt 0.400000 0.850000
vt 0.400000 1.000000
vt 0.300000 0.850000
vt 0.300000 1.000000
vt 0.200000 0.850000
vt 0.200000 1.000000
vt 0.100000 1.000000
vt 0.100000 0.000000
vt 0.200000 0.850000
vt 0.200000 0.000000
vt 1.000000 1.000000
vt 0.800000 0.000000
vt 0.800000 0.850000
vt 0.900000 0.000000
vt 0.900000 0.850000
vt 1.000000 0.000000
vt 1.000000 0.850000
vt 0.700000 0.850000
vt 0.700000 0.000000
vt 0.600000 0.850000
vt 0.600000 0.000000
vt 0.500000 0.850000
vt 0.500000 0.000000
vt 0.400000 0.850000
vt 0.400000 0.000000
vt 0.300000 0.850000
vt 0.300000 0.000000
vt 0.100000 0.850000
vt 0.000000 0.000000
vt 0.000000 0.850000
vn 0.0000 1.0000 0.0000
vn 0.0000 -1.0000 0.0000
vn 0.0000 0.0000 -1.0000
vn 0.0000 0.0000 1.0000
vn -1.0000 0.0000 0.0000
vn 1.0000 0.0000 0.0000
s off
f 35/1/1 3/2/1 5/3/1
f 43/4/1 16/5/1 44/6/1
f 44/6/1 17/7/1 42/8/1
f 42/8/1 18/9/1 41/10/1
f 41/10/1 19/11/1 40/12/1
f 40/12/1 20/13/1 39/14/1
f 39/14/1 21/15/1 38/16/1
f 38/16/1 22/17/1 37/18/1
f 37/18/1 23/19/1 36/20/1
f 36/20/1 24/21/1 35/1/1
f 7/22/1 8/23/1 32/24/1
f 35/1/1 24/21/1 3/2/1
f 43/4/1 4/25/1 16/5/1
f 44/6/1 16/5/1 17/7/1
f 42/8/1 17/7/1 18/9/1
f 41/10/1 18/9/1 19/11/1
f 40/12/1 19/11/1 20/13/1
f 39/14/1 20/13/1 21/15/1
f 38/16/1 21/15/1 22/17/1
f 37/18/1 22/17/1 23/19/1
f 36/20/1 23/19/1 24/21/1
f 14/26/1 15/27/1 26/28/1
f 15/27/1 2/29/1 25/30/1
f 26/28/1 15/27/1 25/30/1
f 2/29/1 6/31/1 25/30/1
f 26/28/1 27/32/1 14/26/1
f 27/32/1 28/33/1 13/34/1
f 14/26/1 27/32/1 13/34/1
f 12/35/1 13/34/1 28/33/1
f 28/33/1 29/36/1 12/35/1
f 29/36/1 30/37/1 11/38/1
f 12/35/1 29/36/1 11/38/1
f 10/39/1 11/38/1 30/37/1
f 30/37/1 31/40/1 10/39/1
f 31/40/1 32/24/1 9/41/1
f 10/39/1 31/40/1 9/41/1
f 8/23/1 9/41/1 32/24/1
f 32/24/1 33/42/1 7/22/1
f 33/42/1 34/43/1 1/44/1
f 1/44/1 7/22/1 33/42/1
f 45/45/2 46/46/2 47/47/2
f 48/48/2 49/49/2 50/50/2
f 49/49/2 51/51/2 52/52/2
f 51/51/2 53/53/2 54/54/2
f 53/53/2 55/55/2 56/56/2
f 55/55/2 57/57/2 58/58/2
f 57/57/2 59/59/2 60/60/2
f 59/59/2 61/61/2 62/62/2
f 61/61/2 63/63/2 64/64/2
f 63/63/2 45/45/2 65/65/2
f 66/66/2 67/67/2 68/68/2
f 45/45/2 47/47/2 65/65/2
f 48/48/2 50/50/2 69/69/2
f 49/49/2 52/52/2 50/50/2
f 51/51/2 54/54/2 52/52/2
f 53/53/2 56/56/2 54/54/2
f 55/55/2 58/58/2 56/56/2
f 57/57/2 60/60/2 58/58/2
f 59/59/2 62/62/2 60/60/2
f 61/61/2 64/64/2 62/62/2
f 63/63/2 65/65/2 64/64/2
f 70/70/2 71/71/2 72/72/2
f 72/72/2 73/73/2 74/74/2
f 71/71/2 73/73/2 72/72/2
f 74/74/2 73/73/2 75/75/2
f 71/71/2 70/70/2 76/76/2
f 76/76/2 77/77/2 78/78/2
f 70/70/2 77/77/2 76/76/2
f 79/79/2 78/78/2 77/77/2
f 78/78/2 79/79/2 80/80/2
f 80/80/2 81/81/2 82/82/2
f 79/79/2 81/81/2 80/80/2
f 83/83/2 82/82/2 81/81/2
f 82/82/2 83/83/2 84/84/2
f 84/84/2 85/85/2 67/67/2
f 83/83/2 85/85/2 84/84/2
f 68/68/2 67/67/2 85/85/2
f 67/67/2 66/66/2 86/86/2
f 86/86/2 87/87/2 88/88/2
f 87/87/2 86/86/2 66/66/2
f 31/40/3 30/37/3 82/82/3 84/84/3
f 16/5/3 4/25/3 69/69/3 50/50/3
f 3/2/3 24/21/3 65/65/3 47/47/3
f 39/14/4 38/16/4 59/59/4 57/57/4
f 30/37/3 29/36/3 80/80/3 82/82/3
f 17/7/3 16/5/3 50/50/3 52/52/3
f 5/3/5 3/2/5 47/47/5 46/46/5
f 38/16/4 37/18/4 61/61/4 59/59/4
f 29/36/3 28/33/3 78/78/3 80/80/3
f 18/9/3 17/7/3 52/52/3 54/54/3
f 6/31/6 2/29/6 74/74/6 75/75/6
f 37/18/4 36/20/4 63/63/4 61/61/4
f 28/33/3 27/32/3 76/76/3 78/78/3
f 19/11/3 18/9/3 54/54/3 56/56/3
f 35/1/4 5/3/4 46/46/4 45/45/4
f 36/20/4 35/1/4 45/45/4 63/63/4
f 27/32/3 26/28/3 71/71/3 76/76/3
f 20/13/3 19/11/3 56/56/3 58/58/3
f 7/22/4 1/44/4 87/87/4 66/66/4
f 26/28/3 25/30/3 73/73/3 71/71/3
f 21/15/3 20/13/3 58/58/3 60/60/3
f 8/23/4 7/22/4 66/66/4 68/68/4
f 25/30/3 6/31/3 75/75/3 73/73/3
f 22/17/3 21/15/3 60/60/3 62/62/3
f 9/41/4 8/23/4 68/68/4 85/85/4
f 23/19/3 22/17/3 62/62/3 64/64/3
f 10/39/4 9/41/4 85/85/4 83/83/4
f 24/21/3 23/19/3 64/64/3 65/65/3
f 11/38/4 10/39/4 83/83/4 81/81/4
f 43/4/4 44/6/4 49/49/4 48/48/4
f 12/35/4 11/38/4 81/81/4 79/79/4
f 44/6/4 42/8/4 51/51/4 49/49/4
f 34/43/3 33/42/3 86/86/3 88/88/3
f 13/34/4 12/35/4 79/79/4 77/77/4
f 1/44/5 34/43/5 88/88/5 87/87/5
f 42/8/4 41/10/4 53/53/4 51/51/4
f 33/42/3 32/24/3 67/67/3 86/86/3
f 14/26/4 13/34/4 77/77/4 70/70/4
f 4/25/6 43/4/6 48/48/6 69/69/6
f 41/10/4 40/12/4 55/55/4 53/53/4
f 32/24/3 31/40/3 84/84/3 67/67/3
f 15/27/4 14/26/4 70/70/4 72/72/4
f 2/29/4 15/27/4 72/72/4 74/74/4
f 40/12/4 39/14/4 57/57/4 55/55/4
