# Blender v2.93.1 OBJ File: 'CardPackAnimated3.blend'
# www.blender.org
o Plane
v -0.700000 0.000000 1.167000
v 0.700000 0.000000 1.167000
v 1.532339 0.399765 -1.492207
v 0.699319 -0.001780 -1.166988
v 1.655626 0.446483 -1.167881
v 0.700000 0.000000 -0.816900
v -0.560000 0.000000 1.167000
v -0.420000 0.000000 1.167000
v -0.280000 -0.000000 1.167000
v -0.140000 0.000000 1.167000
v -0.000000 0.000000 1.167000
v 0.140000 0.000000 1.167000
v 0.280000 0.000000 1.167000
v 0.420000 0.000000 1.167000
v 0.560000 0.000000 1.167000
v 0.571003 0.058455 -1.166577
v 0.553130 0.195581 -1.174659
v 0.626268 0.310673 -1.195007
v 0.749124 0.361318 -1.233107
v 0.884986 0.380811 -1.271107
v 1.010801 0.402821 -1.305504
v 1.140041 0.425394 -1.354280
v 1.277588 0.420997 -1.395377
v 1.402444 0.417554 -1.441067
v 0.560000 0.000000 -0.816900
v 0.420000 0.000000 -0.816900
v 0.280000 0.000000 -0.816900
v 0.140000 0.000000 -0.816900
v -0.000000 0.000000 -0.816900
v -0.140000 0.000000 -0.816900
v -0.280000 -0.000000 -0.816900
v -0.420000 0.000000 -0.816900
v -0.560000 0.000000 -0.816900
v -0.700000 0.000000 -0.816900
v 1.524974 0.410058 -1.117711
v 1.386806 0.395267 -1.066017
v 1.255554 0.388738 -1.029960
v 1.117779 0.382441 -0.975165
v 0.984607 0.358292 -0.936962
v 0.856669 0.318753 -0.902744
v 0.721013 0.297455 -0.859984
v 0.601272 0.215341 -0.829572
v 0.701426 0.001952 -0.816914
v 0.582578 0.072957 -0.817264
v 1.524599 0.419923 -1.117339
v 1.654609 0.456377 -1.168919
v 1.531322 0.409659 -1.493246
v 0.696757 -0.006890 -0.816791
v 0.575252 0.068542 -0.816902
v 0.563677 0.054040 -1.166214
v 0.592782 0.218864 -0.828647
v 0.544640 0.199104 -1.173734
v 0.716454 0.305762 -0.858398
v 0.621708 0.318980 -1.193421
v 0.854788 0.328393 -0.900884
v 0.747242 0.370958 -1.231247
v 0.983354 0.368122 -0.935929
v 0.883733 0.390641 -1.270074
v 1.116914 0.392400 -0.974895
v 1.009982 0.412572 -1.303925
v 1.255099 0.398508 -1.028650
v 1.139586 0.435163 -1.352970
v 1.386871 0.405183 -1.065258
v 1.277652 0.430913 -1.394619
v 1.402068 0.427419 -1.440695
v -0.560000 -0.010000 1.167000
v -0.420000 -0.010000 -0.816900
v -0.420000 -0.010000 1.167000
v 0.694650 -0.010622 -1.166865
v 0.420000 -0.010000 1.167000
v 0.420000 -0.010000 -0.816900
v 0.560000 -0.010000 1.167000
v 0.560000 -0.010000 -0.816900
v 0.700000 -0.010000 1.167000
v 0.700000 -0.010000 -0.816900
v 0.280000 -0.010000 -0.816900
v 0.280000 -0.010000 1.167000
v 0.140000 -0.010000 -0.816900
v 0.140000 -0.010000 1.167000
v -0.000000 -0.010000 -0.816900
v -0.000000 -0.010000 1.167000
v -0.140000 -0.010000 -0.816900
v -0.140000 -0.010000 1.167000
v -0.280000 -0.010000 -0.816900
v -0.280000 -0.010000 1.167000
v -0.560000 -0.010000 -0.816900
v -0.700000 -0.010000 1.167000
v -0.700000 -0.010000 -0.816900
vt 0.100000 0.850000
vt 0.000000 1.000000
vt 0.000000 0.850000
vt 1.000000 0.850000
vt 0.900000 1.000000
vt 0.900000 0.850000
vt 0.800000 1.000000
vt 0.800000 0.850000
vt 0.700000 1.000000
vt 0.700000 0.850000
vt 0.600000 1.000000
vt 0.600000 0.850000
vt 0.500000 1.000000
vt 0.500000 0.850000
vt 0.400000 1.000000
vt 0.400000 0.850000
vt 0.300000 1.000000
vt 0.300000 0.850000
vt 0.200000 1.000000
vt 0.200000 0.850000
vt 0.100000 1.000000
vt 0.100000 0.000000
vt 0.200000 0.000000
vt 0.200000 0.850000
vt 1.000000 1.000000
vt 0.800000 0.000000
vt 0.900000 0.000000
vt 0.800000 0.850000
vt 1.000000 0.000000
vt 0.900000 0.850000
vt 1.000000 0.850000
vt 0.700000 0.850000
vt 0.600000 0.850000
vt 0.700000 0.000000
vt 0.600000 0.000000
vt 0.500000 0.850000
vt 0.400000 0.850000
vt 0.500000 0.000000
vt 0.400000 0.000000
vt 0.300000 0.850000
vt 0.300000 0.000000
vt 0.100000 0.850000
vt 0.000000 0.850000
vt 0.000000 0.000000
vt 0.100000 0.850000
vt 0.000000 0.850000
vt 0.000000 1.000000
vt 1.000000 0.850000
vt 0.900000 0.850000
vt 0.900000 1.000000
vt 0.800000 0.850000
vt 0.800000 1.000000
vt 0.700000 0.850000
vt 0.700000 1.000000
vt 0.600000 0.850000
vt 0.600000 1.000000
vt 0.500000 0.850000
vt 0.500000 1.000000
vt 0.400000 0.850000
vt 0.400000 1.000000
vt 0.300000 0.850000
vt 0.300000 1.000000
vt 0.200000 0.850000
vt 0.200000 1.000000
vt 0.100000 1.000000
vt 0.100000 0.000000
vt 0.200000 0.850000
vt 0.200000 0.000000
vt 1.000000 1.000000
vt 0.800000 0.000000
vt 0.800000 0.850000
vt 0.900000 0.000000
vt 0.900000 0.850000
vt 1.000000 0.000000
vt 1.000000 0.850000
vt 0.700000 0.850000
vt 0.700000 0.000000
vt 0.600000 0.850000
vt 0.600000 0.000000
vt 0.500000 0.850000
vt 0.500000 0.000000
vt 0.400000 0.850000
vt 0.400000 0.000000
vt 0.300000 0.850000
vt 0.300000 0.000000
vt 0.100000 0.850000
vt 0.000000 0.000000
vt 0.000000 0.850000
vn 0.2798 -0.9595 0.0319
vn 0.5123 0.8572 -0.0526
vn 0.9817 -0.1400 -0.1289
vn 0.5245 -0.8319 -0.1812
vn 0.1036 -0.9816 -0.1602
vn 0.2576 -0.9559 -0.1412
vn 0.1472 -0.9832 -0.1083
vn 0.0007 -0.9936 -0.1125
vn 0.0258 -0.9959 -0.0864
vn 0.0857 -0.9948 -0.0555
vn 0.0000 1.0000 0.0000
vn -0.1261 -0.9917 0.0248
vn 0.4249 0.9052 -0.0122
vn 0.9912 0.1269 -0.0381
vn 0.8341 -0.5451 -0.0851
vn 0.3421 -0.9302 -0.1334
vn 0.0968 -0.9827 -0.1581
vn 0.1424 -0.9838 -0.1087
vn 0.1330 -0.9857 -0.1039
vn -0.0591 -0.9941 -0.0913
vn -0.0499 -0.9969 -0.0613
vn -0.2813 0.9591 -0.0312
vn -0.5267 -0.8484 0.0527
vn -0.9836 0.1249 0.1301
vn -0.5351 0.8245 0.1839
vn -0.1106 0.9805 0.1623
vn -0.2570 0.9561 0.1411
vn -0.1472 0.9832 0.1081
vn -0.0002 0.9937 0.1124
vn -0.0264 0.9959 0.0866
vn -0.0855 0.9948 0.0555
vn 0.0000 -1.0000 0.0000
vn 0.1262 0.9917 -0.0248
vn -0.4426 -0.8966 0.0122
vn -0.9910 -0.1281 0.0382
vn -0.8318 0.5486 0.0846
vn -0.3444 0.9292 0.1340
vn -0.0967 0.9827 0.1581
vn -0.1418 0.9839 0.1086
vn -0.1326 0.9857 0.1035
vn 0.0582 0.9941 0.0916
vn 0.0506 0.9968 0.0611
vn 0.0000 0.0000 -1.0000
vn -0.0151 -0.0229 -0.9996
vn -0.3777 -0.0578 -0.9241
vn 0.2833 -0.0328 0.9585
vn -0.0773 -0.0651 -0.9949
vn 0.9304 0.0577 -0.3620
vn 0.3675 -0.0498 0.9287
vn -0.2144 -0.0293 -0.9763
vn 1.0000 0.0000 0.0000
vn 0.2695 -0.0954 0.9583
vn -0.3172 0.0678 -0.9459
vn 0.3494 0.0562 0.9353
vn 0.3561 -0.0477 0.9332
vn -0.2830 0.0962 -0.9543
vn 0.0000 0.0000 1.0000
vn -0.2760 0.0983 -0.9561
vn -0.3684 0.1125 -0.9228
vn -0.2835 0.0947 -0.9543
vn -0.3439 0.0482 -0.9378
vn 0.0131 0.0247 0.9996
vn 0.0769 0.0722 0.9944
vn -1.0000 0.0000 0.0000
vn 0.2179 0.0333 0.9754
vn 0.8843 -0.4669 -0.0003
vn 0.3068 -0.0721 0.9490
vn 0.2869 -0.0955 0.9532
s off
f 35/1/1 3/2/1 5/3/1
f 43/4/2 16/5/2 44/6/2
f 44/6/3 17/7/3 42/8/3
f 42/8/4 18/9/4 41/10/4
f 41/10/5 19/11/5 40/12/5
f 40/12/6 20/13/6 39/14/6
f 39/14/7 21/15/7 38/16/7
f 38/16/8 22/17/8 37/18/8
f 37/18/9 23/19/9 36/20/9
f 36/20/10 24/21/10 35/1/10
f 7/22/11 8/23/11 32/24/11
f 35/1/12 24/21/12 3/2/12
f 43/4/13 4/25/13 16/5/13
f 44/6/14 16/5/14 17/7/14
f 42/8/15 17/7/15 18/9/15
f 41/10/16 18/9/16 19/11/16
f 40/12/17 19/11/17 20/13/17
f 39/14/18 20/13/18 21/15/18
f 38/16/19 21/15/19 22/17/19
f 37/18/20 22/17/20 23/19/20
f 36/20/21 23/19/21 24/21/21
f 14/26/11 15/27/11 26/28/11
f 15/27/11 2/29/11 25/30/11
f 26/28/11 15/27/11 25/30/11
f 2/29/11 6/31/11 25/30/11
f 26/28/11 27/32/11 14/26/11
f 27/32/11 28/33/11 13/34/11
f 14/26/11 27/32/11 13/34/11
f 12/35/11 13/34/11 28/33/11
f 28/33/11 29/36/11 12/35/11
f 29/36/11 30/37/11 11/38/11
f 12/35/11 29/36/11 11/38/11
f 10/39/11 11/38/11 30/37/11
f 30/37/11 31/40/11 10/39/11
f 31/40/11 32/24/11 9/41/11
f 10/39/11 31/40/11 9/41/11
f 8/23/11 9/41/11 32/24/11
f 32/24/11 33/42/11 7/22/11
f 33/42/11 34/43/11 1/44/11
f 1/44/11 7/22/11 33/42/11
f 45/45/22 46/46/22 47/47/22
f 48/48/23 49/49/23 50/50/23
f 49/49/24 51/51/24 52/52/24
f 51/51/25 53/53/25 54/54/25
f 53/53/26 55/55/26 56/56/26
f 55/55/27 57/57/27 58/58/27
f 57/57/28 59/59/28 60/60/28
f 59/59/29 61/61/29 62/62/29
f 61/61/30 63/63/30 64/64/30
f 63/63/31 45/45/31 65/65/31
f 66/66/32 67/67/32 68/68/32
f 45/45/33 47/47/33 65/65/33
f 48/48/34 50/50/34 69/69/34
f 49/49/35 52/52/35 50/50/35
f 51/51/36 54/54/36 52/52/36
f 53/53/37 56/56/37 54/54/37
f 55/55/38 58/58/38 56/56/38
f 57/57/39 60/60/39 58/58/39
f 59/59/40 62/62/40 60/60/40
f 61/61/41 64/64/41 62/62/41
f 63/63/42 65/65/42 64/64/42
f 70/70/32 71/71/32 72/72/32
f 72/72/32 73/73/32 74/74/32
f 71/71/32 73/73/32 72/72/32
f 74/74/32 73/73/32 75/75/32
f 71/71/32 70/70/32 76/76/32
f 76/76/32 77/77/32 78/78/32
f 70/70/32 77/77/32 76/76/32
f 79/79/32 78/78/32 77/77/32
f 78/78/32 79/79/32 80/80/32
f 80/80/32 81/81/32 82/82/32
f 79/79/32 81/81/32 80/80/32
f 83/83/32 82/82/32 81/81/32
f 82/82/32 83/83/32 84/84/32
f 84/84/32 85/85/32 67/67/32
f 83/83/32 85/85/32 84/84/32
f 68/68/32 67/67/32 85/85/32
f 67/67/32 66/66/32 86/86/32
f 86/86/32 87/87/32 88/88/32
f 87/87/32 86/86/32 66/66/32
f 31/40/43 30/37/43 82/82/43 84/84/43
f 16/5/44 4/25/44 69/69/44 50/50/44
f 3/2/45 24/21/45 65/65/45 47/47/45
f 39/14/46 38/16/46 59/59/46 57/57/46
f 30/37/43 29/36/43 80/80/43 82/82/43
f 17/7/47 16/5/47 50/50/47 52/52/47
f 5/3/48 3/2/48 47/47/48 46/46/48
f 38/16/49 37/18/49 61/61/49 59/59/49
f 29/36/43 28/33/43 78/78/43 80/80/43
f 18/9/50 17/7/50 52/52/50 54/54/50
f 6/31/51 2/29/51 74/74/51 75/75/51
f 37/18/52 36/20/52 63/63/52 61/61/52
f 28/33/43 27/32/43 76/76/43 78/78/43
f 19/11/53 18/9/53 54/54/53 56/56/53
f 35/1/54 5/3/54 46/46/54 45/45/54
f 36/20/55 35/1/55 45/45/55 63/63/55
f 27/32/43 26/28/43 71/71/43 76/76/43
f 20/13/56 19/11/56 56/56/56 58/58/56
f 7/22/57 1/44/57 87/87/57 66/66/57
f 26/28/43 25/30/43 73/73/43 71/71/43
f 21/15/58 20/13/58 58/58/58 60/60/58
f 8/23/57 7/22/57 66/66/57 68/68/57
f 25/30/43 6/31/43 75/75/43 73/73/43
f 22/17/59 21/15/59 60/60/59 62/62/59
f 9/41/57 8/23/57 68/68/57 85/85/57
f 23/19/60 22/17/60 62/62/60 64/64/60
f 10/39/57 9/41/57 85/85/57 83/83/57
f 24/21/61 23/19/61 64/64/61 65/65/61
f 11/38/57 10/39/57 83/83/57 81/81/57
f 43/4/62 44/6/62 49/49/62 48/48/62
f 12/35/57 11/38/57 81/81/57 79/79/57
f 44/6/63 42/8/63 51/51/63 49/49/63
f 34/43/43 33/42/43 86/86/43 88/88/43
f 13/34/57 12/35/57 79/79/57 77/77/57
f 1/44/64 34/43/64 88/88/64 87/87/64
f 42/8/65 41/10/65 53/53/65 51/51/65
f 33/42/43 32/24/43 67/67/43 86/86/43
f 14/26/57 13/34/57 77/77/57 70/70/57
f 4/25/66 43/4/66 48/48/66 69/69/66
f 41/10/67 40/12/67 55/55/67 53/53/67
f 32/24/43 31/40/43 84/84/43 67/67/43
f 15/27/57 14/26/57 70/70/57 72/72/57
f 2/29/57 15/27/57 72/72/57 74/74/57
f 40/12/68 39/14/68 57/57/68 55/55/68
